<svg width="54" height="71" viewBox="0 0 54 71" fill="none" xmlns="http://www.w3.org/2000/svg">
<path d="M33.9405 70.5362C33.6219 70.4998 33.3013 70.4714 32.9837 70.4259C31.4665 70.2073 30.0949 69.6689 29.0329 68.503C28.0538 67.4302 27.6441 66.155 27.8191 64.727C27.9536 63.6339 28.1802 62.5521 28.3785 61.4671C28.783 59.2271 29.1947 56.9884 29.6135 54.7511C30.0322 52.5137 30.4425 50.2872 30.8444 48.0715C31.2686 45.768 31.6931 43.4645 32.1179 41.1611C32.2891 40.2293 32.4601 39.2975 32.6307 38.3658C32.6519 38.2514 32.6742 38.1765 32.8259 38.1765C34.1499 38.1836 35.4739 38.1765 36.798 38.1765C36.8445 38.1765 36.891 38.1836 36.9628 38.1907C36.9021 38.5287 36.8445 38.8556 36.7848 39.1825C36.3856 41.3686 35.9857 43.555 35.5852 45.7417L34.3502 52.5033L33.1516 59.0625C32.7511 61.2492 32.3512 63.4359 31.952 65.6227C31.8589 66.1287 31.7436 66.6418 31.6961 67.1569C31.6407 67.6816 31.7609 68.2098 32.0378 68.6588C32.3148 69.1077 32.7329 69.4519 33.2264 69.6375C34.6314 70.1982 36.624 69.9796 37.8974 68.5131C38.3465 67.997 38.5164 67.3755 38.6318 66.7197C39.0363 64.4314 39.4551 62.1452 39.8678 59.8579C40.2676 57.6469 40.6665 55.4356 41.0643 53.2239C41.4622 51.0122 41.8637 48.8008 42.269 46.5898C42.4275 45.7093 42.5866 44.8295 42.7464 43.9503C42.7565 43.8987 42.7596 43.8491 42.7687 43.7692H40.3674C40.4494 43.3107 40.5273 42.8806 40.6061 42.4393H49.7266C49.6507 42.8624 49.5809 43.2783 49.497 43.6912C49.4899 43.7257 49.3857 43.7611 49.326 43.7611C48.6524 43.7611 47.9788 43.7611 47.3031 43.7611H47.0816C45.5131 52.5127 43.9457 61.2569 42.3793 69.9938H42.1608C40.8371 69.9938 39.5127 69.9938 38.1877 69.9938C38.0992 69.992 38.0108 70.0036 37.9257 70.0282C37.101 70.2889 36.2473 70.4473 35.3839 70.4998C35.3314 70.5064 35.2793 70.5165 35.2282 70.5301L33.9405 70.5362Z" fill="#535B67"/>
<path d="M46.5619 22.806C46.6327 22.4012 46.6995 22.0247 46.7642 21.6452L47.9689 14.9767C48.3788 12.7076 48.7888 10.4382 49.1988 8.16852C49.476 6.6312 49.7683 5.09792 50.0201 3.55655C50.0839 3.1444 50.0839 2.72488 50.0201 2.31273C49.9038 1.52332 49.4132 0.997043 48.6516 0.800703C47.0333 0.379685 45.5535 0.637761 44.3023 1.81277C43.662 2.41393 43.3545 3.175 43.2028 4.02918C42.7547 6.55934 42.2834 9.08242 41.8221 11.6095C41.3872 13.9899 40.9526 16.3699 40.5184 18.7496C40.0956 21.0652 39.6718 23.3808 39.2469 25.6964C39.1458 26.2359 39.0446 26.7743 38.9526 27.3157C38.9354 27.417 38.9111 27.4605 38.7989 27.4605C37.4455 27.4564 36.0918 27.4564 34.7378 27.4605C34.7069 27.458 34.6762 27.454 34.6458 27.4483C34.7004 27.1447 34.753 26.8411 34.8076 26.5375C35.2479 24.1517 35.6862 21.7663 36.1225 19.3812C36.5547 17.0372 36.9863 14.693 37.4172 12.3483C37.7732 10.4204 38.1374 8.49441 38.4813 6.5644C38.8191 4.66274 39.7881 3.15881 41.2942 1.97976C42.611 0.948952 44.1854 0.299886 45.8458 0.103393C47.007 -0.0463922 48.1631 -0.052466 49.3121 0.212695C52.0431 0.84321 53.5755 3.28633 53.7515 5.31046C53.8182 6.07962 53.7009 6.82855 53.5633 7.58456C53.1931 9.61375 52.833 11.6439 52.4689 13.6731C52.0798 15.8443 51.6907 18.0145 51.3017 20.1837C51.153 21.0116 50.9982 21.8385 50.8607 22.6663C50.8404 22.7827 50.8 22.8272 50.6786 22.8272C49.3546 22.8272 48.0306 22.8272 46.7065 22.8272C46.6742 22.8191 46.6327 22.8131 46.5619 22.806Z" fill="#535B67"/>
<path d="M8.21113 69.3581C8.27182 69.3642 8.31734 69.3733 8.36285 69.3733C9.57662 69.3682 10.7975 69.3965 12.0122 69.347C13.6387 69.2822 15.1478 68.8207 16.4263 67.7671C17.3306 67.0243 17.9587 66.077 18.4493 65.0265C19.1704 63.475 19.6762 61.8496 20.1303 60.206C20.8535 57.5908 21.4139 54.9433 21.9237 52.2755C21.9682 52.0417 22.0147 51.8079 22.0622 51.567H22.8593C21.7129 57.7136 20.5666 63.8535 19.4203 69.9866H0C0.0354015 69.7983 0.059677 69.6182 0.109239 69.4441C0.120365 69.4067 0.221512 69.3733 0.281189 69.3733C0.871889 69.3682 1.46259 69.3733 2.05228 69.3733C2.59544 69.3733 3.1386 69.3733 3.68075 69.3733C3.80718 69.3733 3.86382 69.347 3.89113 69.2053C4.27448 67.1741 4.66693 65.1439 5.05635 63.1126C5.52837 60.6486 6.00039 58.1859 6.47241 55.7246C6.94443 53.2632 7.41645 50.8049 7.88847 48.3497L9.33892 40.7825C9.48795 40.0045 9.63697 39.2263 9.78599 38.4477C9.84769 38.1319 9.8042 38.1835 10.0894 38.1825C11.3544 38.1825 12.6191 38.1825 13.8835 38.1825H14.1363C12.1606 48.5852 10.1855 58.977 8.21113 69.3581Z" fill="#535B67"/>
<path d="M11.894 27.4486C13.5717 18.6841 15.2501 9.92134 16.9292 1.16025H13.2747C13.3121 0.951763 13.3415 0.772625 13.3809 0.594501C13.386 0.5692 13.4376 0.544912 13.4719 0.535803C13.5136 0.530709 13.5557 0.530709 13.5974 0.535803H25.0563C25.0209 0.685073 24.9932 0.836072 24.9734 0.988196C24.9613 1.1309 24.8925 1.15822 24.764 1.15721C23.6602 1.15316 22.557 1.15316 21.4545 1.15721C21.1187 1.15721 21.1905 1.10863 21.1278 1.43553C20.4642 4.91163 19.8027 8.38874 19.1433 11.8669C18.3968 15.7896 17.6507 19.7117 16.9049 23.6331C16.6729 24.8476 16.4416 26.0654 16.211 27.2867C16.2019 27.3383 16.1857 27.3879 16.1716 27.4486H11.894Z" fill="#535B67"/>
<path d="M14.7749 30.6472C14.958 30.6472 15.1309 30.6381 15.3019 30.6522C15.3667 30.6673 15.4232 30.7069 15.4597 30.7625C16.0949 31.7206 16.7274 32.6807 17.3572 33.6429C17.3904 33.6977 17.4357 33.7441 17.4897 33.7785V30.6593H18.1583V35.1843C17.9712 35.1843 17.7931 35.1934 17.6171 35.1843C17.5686 35.1843 17.516 35.1154 17.4806 35.0669C16.8501 34.1128 16.2213 33.1574 15.5942 32.2007C15.558 32.1407 15.5072 32.0909 15.4465 32.056V35.1792H14.7749V30.6472Z" fill="#535B67"/>
<path d="M25.9355 30.6772C26.6264 30.6772 27.302 30.6367 27.9696 30.6883C28.2532 30.707 28.5205 30.8274 28.7225 31.0275C28.9245 31.2275 29.0475 31.4938 29.0691 31.7773C29.1389 32.4352 28.8668 32.8987 28.2549 33.1466L28.176 33.1811L29.2158 35.1859C28.9619 35.1859 28.7373 35.193 28.5138 35.1799C28.4622 35.1799 28.3965 35.11 28.3692 35.0564C28.093 34.516 27.8199 33.9735 27.56 33.427C27.5429 33.371 27.5064 33.323 27.4571 33.2916C27.4077 33.2603 27.3488 33.2476 27.2909 33.2559C27.0724 33.2701 26.8519 33.2559 26.6132 33.2559V35.1667H25.9386L25.9355 30.6772ZM26.6132 31.2551V32.677C26.6345 32.6822 26.6562 32.6859 26.678 32.6882C27.0118 32.6882 27.3455 32.6882 27.6793 32.6882C28.0839 32.6831 28.3874 32.4169 28.3985 32.0455C28.4177 31.5941 28.1719 31.2855 27.7329 31.2591C27.3658 31.2379 26.9966 31.2551 26.6132 31.2551V31.2551Z" fill="#535B67"/>
<path d="M36.6265 33.3063H35.6757V32.7506H37.3032C37.2941 33.2152 37.3517 33.6807 37.2233 34.1361C37.0402 34.7879 36.3797 35.2352 35.6292 35.2221C34.7927 35.2079 34.1201 34.63 34.0604 33.8315C34.022 33.3255 34.0412 32.8063 34.0392 32.2942C34.0373 32.1687 34.0471 32.0434 34.0685 31.9197C34.2 31.1981 34.6602 30.7356 35.4037 30.6293C36.3534 30.4937 37.1373 31.0413 37.287 32.0037C37.0847 32.0037 36.8824 32.0108 36.6801 31.9966C36.6417 31.9966 36.5942 31.9157 36.579 31.8631C36.3868 31.352 35.9094 31.101 35.3885 31.2558C35.0041 31.3671 34.7654 31.6374 34.7492 32.029C34.7165 32.6407 34.7223 33.2539 34.7664 33.8649C34.8089 34.3588 35.2266 34.6513 35.7091 34.6219C35.9435 34.616 36.1672 34.5222 36.3357 34.3592C36.5043 34.1961 36.6056 33.9756 36.6194 33.7414C36.6346 33.6018 36.6265 33.4651 36.6265 33.3063Z" fill="#535B67"/>
<path d="M9.11974 30.6533H9.78327V30.8486C9.78327 31.7848 9.77517 32.721 9.78327 33.6571C9.79439 34.5164 10.557 34.7704 11.1326 34.5366C11.5281 34.3757 11.6778 34.0397 11.6798 33.6338C11.6798 32.7088 11.6798 31.7848 11.6798 30.8598V30.6574H12.3423C12.3487 30.6962 12.3531 30.7354 12.3554 30.7748C12.3554 31.7403 12.3605 32.7068 12.3554 33.6733C12.361 34.0104 12.253 34.3395 12.0488 34.6075C11.8445 34.8756 11.556 35.067 11.2297 35.1509C10.4862 35.3533 9.72157 35.0973 9.34732 34.5143C9.19593 34.2838 9.11314 34.0149 9.10862 33.7391C9.10154 32.7372 9.10862 31.7352 9.10862 30.7333C9.1105 30.7064 9.11421 30.6797 9.11974 30.6533V30.6533Z" fill="#535B67"/>
<path d="M20.1187 35.1861C20.2441 34.843 20.3594 34.5252 20.4757 34.2085C20.8884 33.08 21.3041 31.9515 21.7117 30.8201C21.7223 30.7632 21.7549 30.7127 21.8025 30.6798C21.85 30.6468 21.9086 30.6339 21.9656 30.644C22.3247 30.6551 22.3247 30.644 22.4461 30.979C22.9295 32.3034 23.4137 33.6282 23.8985 34.9533C23.9248 35.0242 23.9481 35.0971 23.9774 35.1861C23.761 35.1861 23.5647 35.1922 23.3705 35.1861C23.3424 35.1803 23.316 35.1681 23.2932 35.1506C23.2704 35.1331 23.2519 35.1106 23.239 35.0849C23.1541 34.8693 23.0742 34.6497 23.0105 34.4271C22.974 34.2975 22.9093 34.2661 22.7819 34.2682C22.2984 34.2753 21.8149 34.2763 21.3324 34.2682C21.1969 34.2682 21.1301 34.3036 21.0897 34.4362C21.028 34.6538 20.9531 34.8683 20.8702 35.0788C20.8563 35.1067 20.8364 35.131 20.8119 35.1501C20.7874 35.1692 20.7589 35.1825 20.7286 35.1891C20.5354 35.1962 20.3442 35.1861 20.1187 35.1861ZM21.3537 33.6781H22.7566C22.529 33.0132 22.3085 32.3695 22.087 31.7259H22.0374C21.8119 32.3716 21.5863 33.0132 21.3537 33.6781Z" fill="#535B67"/>
<path d="M42.8766 35.1856C42.6561 35.1856 42.4649 35.1937 42.2758 35.1856C42.245 35.1792 42.216 35.1658 42.1911 35.1466C42.1663 35.1273 42.1461 35.1026 42.1322 35.0743C42.0442 34.8527 41.9673 34.627 41.8975 34.3993C41.8892 34.3562 41.8642 34.318 41.8281 34.2931C41.792 34.2681 41.7476 34.2583 41.7043 34.2657C41.1986 34.2657 40.703 34.2738 40.2013 34.2657C40.1769 34.2622 40.1521 34.2637 40.1283 34.2699C40.1044 34.276 40.0821 34.2869 40.0624 34.3017C40.0428 34.3166 40.0263 34.3352 40.0138 34.3564C40.0014 34.3777 39.9932 34.4012 39.9899 34.4256C39.909 34.6806 39.8189 34.9316 39.732 35.1856H39.0239C39.1413 34.8618 39.2525 34.549 39.3668 34.2383C39.7805 33.1099 40.1993 31.9825 40.6049 30.851C40.6615 30.6951 40.7283 30.6415 40.8931 30.6486C41.2239 30.6637 41.2239 30.6486 41.3361 30.9603C41.8257 32.2949 42.3149 33.6301 42.8038 34.966C42.819 35.0267 42.8402 35.0946 42.8766 35.1856ZM41.6628 33.6858C41.4332 33.0158 41.2127 32.3701 40.9912 31.7244H40.9417L40.2468 33.6858H41.6628Z" fill="#535B67"/>
<path d="M53.093 35.1851C52.8634 35.1851 52.657 35.1912 52.4507 35.1851C52.4112 35.1851 52.3597 35.1213 52.3425 35.0758C52.2555 34.8481 52.1735 34.6173 52.1007 34.3845C52.0941 34.3469 52.0728 34.3134 52.0415 34.2914C52.0102 34.2694 51.9715 34.2607 51.9338 34.2671C51.4149 34.2671 50.8961 34.2672 50.3772 34.2742C50.3438 34.2805 50.3123 34.2945 50.2853 34.315C50.2583 34.3356 50.2364 34.3622 50.2214 34.3926C50.1314 34.6133 50.0555 34.839 49.9847 35.0667C49.9818 35.0868 49.9748 35.1061 49.9643 35.1235C49.9537 35.1408 49.9397 35.1559 49.9232 35.1677C49.9066 35.1795 49.8879 35.1879 49.868 35.1922C49.8482 35.1966 49.8277 35.1969 49.8077 35.1932C49.6236 35.1851 49.4385 35.1932 49.2251 35.1932L50.8859 30.6602H51.4321C51.9804 32.154 52.5296 33.6589 53.093 35.1851ZM51.1924 31.7147H51.1489L50.4631 33.6781H51.8661L51.1924 31.7147Z" fill="#535B67"/>
<path d="M44.8325 30.6533H45.489V34.573H47.6697V35.1712H44.8376L44.8325 30.6533Z" fill="#535B67"/>
<path d="M4.3877 30.6569H5.04717V34.5776H7.22892V35.1737H4.3877V30.6569Z" fill="#535B67"/>
</svg>
