<svg width="42" height="55" viewBox="0 0 42 55" fill="none" xmlns="http://www.w3.org/2000/svg">
<path d="M26.2553 54.5645C26.0088 54.5363 25.7608 54.5144 25.5151 54.4792C24.3414 54.3101 23.2804 53.8936 22.4589 52.9917C21.7015 52.1618 21.3846 51.1754 21.5199 50.0707C21.624 49.2252 21.7993 48.3882 21.9526 47.549C22.2656 45.8162 22.584 44.0844 22.908 42.3536C23.2319 40.6229 23.5493 38.9005 23.8602 37.1865C24.1883 35.4046 24.5167 33.6228 24.8453 31.8409C24.9778 31.1201 25.11 30.3993 25.242 29.6785C25.2584 29.59 25.2757 29.5321 25.393 29.5321C26.4172 29.5376 27.4414 29.5321 28.4657 29.5321C28.5017 29.5321 28.5376 29.5376 28.5932 29.5431C28.5463 29.8046 28.5017 30.0574 28.4555 30.3103C28.1467 32.0014 27.8374 33.6927 27.5275 35.3843L26.5722 40.6148L25.645 45.6888C25.3351 47.3804 25.0258 49.072 24.717 50.7636C24.645 51.155 24.5558 51.5519 24.519 51.9504C24.4762 52.3563 24.5691 52.7649 24.7834 53.1122C24.9976 53.4595 25.321 53.7258 25.7029 53.8693C26.7897 54.303 28.3311 54.1339 29.3162 52.9995C29.6636 52.6002 29.795 52.1195 29.8842 51.6122C30.1972 49.8421 30.5211 48.0735 30.8404 46.3042C31.1497 44.5938 31.4582 42.8831 31.766 41.1723C32.0738 39.4614 32.3844 37.7507 32.6979 36.0403C32.8205 35.3592 32.9436 34.6786 33.0672 33.9985C33.075 33.9586 33.0774 33.9203 33.0844 33.8584H31.2269C31.2903 33.5038 31.3505 33.171 31.4116 32.8297H38.4668C38.4082 33.1569 38.3542 33.4787 38.2892 33.7981C38.2838 33.8247 38.2032 33.8521 38.157 33.8521C37.6359 33.8521 37.1148 33.8521 36.5921 33.8521H36.4208C35.2075 40.6221 33.9949 47.3864 32.7832 54.1449H32.6142C31.5902 54.1449 30.5657 54.1449 29.5407 54.1449C29.4722 54.1435 29.4039 54.1525 29.3381 54.1715C28.7001 54.3732 28.0397 54.4957 27.3718 54.5363C27.3312 54.5414 27.2909 54.5493 27.2513 54.5598L26.2553 54.5645Z" fill="#F8F8F8"/>
<path d="M36.0186 17.642C36.0734 17.3288 36.125 17.0376 36.1751 16.744L37.107 11.5855C37.4241 9.83021 37.7413 8.07469 38.0584 6.31891C38.2728 5.12968 38.499 3.94359 38.6938 2.75123C38.7431 2.4324 38.7431 2.10788 38.6938 1.78905C38.6038 1.17839 38.2243 0.77128 37.6351 0.619398C36.3832 0.293712 35.2385 0.493351 34.2706 1.4023C33.7753 1.86734 33.5375 2.45608 33.4201 3.11685C33.0735 5.07409 32.7089 7.02586 32.3521 8.98076C32.0156 10.8221 31.6794 12.6633 31.3435 14.5041C31.0165 16.2954 30.6886 18.0867 30.36 19.8779C30.2817 20.2952 30.2035 20.7117 30.1323 21.1306C30.119 21.2089 30.1002 21.2425 30.0134 21.2425C28.9665 21.2394 27.9193 21.2394 26.8719 21.2425C26.848 21.2406 26.8242 21.2375 26.8007 21.2331C26.8429 20.9983 26.8836 20.7634 26.9258 20.5285C27.2665 18.683 27.6055 16.8377 27.943 14.9926C28.2774 13.1795 28.6112 11.366 28.9446 9.55228C29.22 8.06086 29.5016 6.571 29.7677 5.07801C30.029 3.60694 30.7786 2.44355 31.9437 1.53148C32.9623 0.734079 34.1803 0.231982 35.4646 0.0799816C36.3629 -0.0358875 37.2572 -0.040586 38.1461 0.164534C40.2587 0.65228 41.4441 2.5422 41.5802 4.108C41.6319 4.703 41.5411 5.28235 41.4347 5.86717C41.1483 7.43689 40.8698 9.00738 40.5881 10.5771C40.2871 12.2567 39.9861 13.9355 39.6851 15.6135C39.5701 16.2539 39.4504 16.8935 39.344 17.5339C39.3283 17.624 39.297 17.6584 39.2032 17.6584C38.1789 17.6584 37.1547 17.6584 36.1305 17.6584C36.1055 17.6522 36.0734 17.6475 36.0186 17.642Z" fill="#F8F8F8"/>
<path d="M6.35187 53.6532C6.39881 53.6579 6.43402 53.665 6.46923 53.665C7.40816 53.661 8.35257 53.683 9.29229 53.6446C10.5505 53.5945 11.7179 53.2375 12.7069 52.4225C13.4064 51.8478 13.8923 51.115 14.2717 50.3024C14.8296 49.1022 15.2208 47.8449 15.5722 46.5734C16.1316 44.5504 16.5651 42.5024 16.9594 40.4386C16.9939 40.2578 17.0299 40.0769 17.0666 39.8906H17.6832C16.7964 44.6454 15.9097 49.395 15.0229 54.1394H0C0.0273855 53.9938 0.0461642 53.8544 0.0845039 53.7198C0.0931108 53.6908 0.171355 53.665 0.217519 53.665C0.674465 53.661 1.13141 53.665 1.58758 53.665C2.00775 53.665 2.42792 53.665 2.84731 53.665C2.94511 53.665 2.98893 53.6446 3.01006 53.535C3.3066 51.9637 3.61019 50.3932 3.91143 48.8219C4.27657 46.9158 4.64171 45.0108 5.00685 43.1068C5.37199 41.2028 5.73713 39.3011 6.10227 37.4018L7.22429 31.548C7.33957 30.9463 7.45485 30.3442 7.57013 29.7419C7.61786 29.4976 7.58421 29.5376 7.80486 29.5368C8.78344 29.5368 9.76175 29.5368 10.7398 29.5368H10.9354C9.40704 37.5839 7.87919 45.6227 6.35187 53.6532Z" fill="#F8F8F8"/>
<path d="M9.20087 21.2333C10.4987 14.4534 11.797 7.67481 13.0959 0.897505H10.2689C10.2979 0.736227 10.3205 0.597652 10.3511 0.459862C10.355 0.440289 10.3949 0.421501 10.4215 0.414455C10.4537 0.410514 10.4863 0.410514 10.5185 0.414455H19.3828C19.3554 0.529925 19.334 0.646733 19.3186 0.764411C19.3092 0.8748 19.256 0.895939 19.1567 0.895156C18.3028 0.892025 17.4494 0.892025 16.5965 0.895156C16.3367 0.895156 16.3923 0.857577 16.3438 1.11045C15.8305 3.79945 15.3188 6.48923 14.8086 9.1798C14.2312 12.2143 13.654 15.2483 13.0771 18.2818C12.8976 19.2213 12.7187 20.1634 12.5403 21.1081C12.5333 21.148 12.5208 21.1863 12.5098 21.2333H9.20087Z" fill="#F8F8F8"/>
<path d="M11.4294 23.7077C11.571 23.7077 11.7048 23.7006 11.837 23.7116C11.8872 23.7233 11.9309 23.7538 11.9591 23.7969C12.4505 24.5381 12.9398 25.2808 13.427 26.0251C13.4526 26.0674 13.4877 26.1033 13.5295 26.13V23.7171H14.0466V27.2174C13.9019 27.2174 13.7642 27.2245 13.628 27.2174C13.5905 27.2174 13.5498 27.1642 13.5224 27.1266C13.0347 26.3886 12.5483 25.6495 12.0632 24.9094C12.0352 24.863 11.9959 24.8245 11.9489 24.7975V27.2135H11.4294V23.7077Z" fill="#F8F8F8"/>
<path d="M20.0629 23.7309C20.5973 23.7309 21.1199 23.6996 21.6364 23.7395C21.8557 23.754 22.0625 23.8471 22.2188 24.0019C22.375 24.1566 22.4702 24.3626 22.4869 24.5819C22.5409 25.0908 22.3304 25.4494 21.857 25.6412L21.796 25.6678L22.6003 27.2187C22.4039 27.2187 22.2302 27.2242 22.0573 27.214C22.0174 27.214 21.9666 27.16 21.9454 27.1185C21.7318 26.7005 21.5206 26.2808 21.3195 25.8581C21.3063 25.8148 21.2781 25.7776 21.2399 25.7534C21.2017 25.7291 21.1561 25.7193 21.1113 25.7257C20.9423 25.7367 20.7718 25.7257 20.5871 25.7257V27.2039H20.0652L20.0629 23.7309ZM20.5871 24.178V25.2779C20.6036 25.2819 20.6203 25.2848 20.6372 25.2865C20.8954 25.2865 21.1536 25.2865 21.4118 25.2865C21.7248 25.2826 21.9595 25.0767 21.9681 24.7894C21.983 24.4402 21.7929 24.2014 21.4533 24.1811C21.1692 24.1646 20.8836 24.178 20.5871 24.178V24.178Z" fill="#F8F8F8"/>
<path d="M28.3331 25.7647H27.5976V25.3349H28.8566C28.8495 25.6942 28.8941 26.0544 28.7948 26.4067C28.6531 26.9109 28.1422 27.2569 27.5616 27.2467C26.9146 27.2358 26.3942 26.7887 26.3481 26.171C26.3183 25.7796 26.3332 25.3779 26.3316 24.9818C26.3301 24.8847 26.3377 24.7878 26.3543 24.6921C26.456 24.1339 26.8121 23.7761 27.3872 23.6939C28.1219 23.589 28.7283 24.0126 28.8441 24.7571C28.6876 24.7571 28.5311 24.7626 28.3746 24.7516C28.3449 24.7516 28.3081 24.689 28.2964 24.6483C28.1477 24.2529 27.7784 24.0588 27.3754 24.1785C27.0781 24.2647 26.8934 24.4737 26.8809 24.7767C26.8556 25.2499 26.86 25.7242 26.8942 26.1969C26.9271 26.5789 27.2502 26.8052 27.6235 26.7825C27.8048 26.7779 27.9778 26.7053 28.1082 26.5792C28.2386 26.4531 28.3169 26.2825 28.3277 26.1013C28.3394 25.9933 28.3331 25.8876 28.3331 25.7647Z" fill="#F8F8F8"/>
<path d="M7.05474 23.7124H7.56802V23.8635C7.56802 24.5877 7.56176 25.3119 7.56802 26.036C7.57663 26.7007 8.16659 26.8972 8.6118 26.7164C8.91774 26.5919 9.03354 26.332 9.0351 26.018C9.0351 25.3025 9.0351 24.5877 9.0351 23.8721V23.7155H9.5476C9.55258 23.7456 9.55598 23.7759 9.55778 23.8064C9.55778 24.5532 9.56169 25.3009 9.55778 26.0486C9.56211 26.3093 9.47853 26.5639 9.32054 26.7713C9.16254 26.9786 8.93933 27.1267 8.68692 27.1916C8.11182 27.3482 7.52029 27.1501 7.23079 26.6992C7.11368 26.5208 7.04964 26.3128 7.04614 26.0995C7.04066 25.3244 7.04614 24.5493 7.04614 23.7742C7.04759 23.7535 7.05047 23.7328 7.05474 23.7124V23.7124Z" fill="#F8F8F8"/>
<path d="M15.5632 27.2189C15.6602 26.9535 15.7494 26.7076 15.8394 26.4626C16.1586 25.5897 16.4802 24.7167 16.7955 23.8414C16.8037 23.7974 16.8289 23.7584 16.8657 23.7329C16.9025 23.7074 16.9478 23.6974 16.9919 23.7052C17.2697 23.7138 17.2697 23.7052 17.3636 23.9644C17.7376 24.9889 18.1121 26.0137 18.4872 27.0388C18.5075 27.0936 18.5255 27.15 18.5482 27.2189C18.3807 27.2189 18.229 27.2236 18.0787 27.2189C18.057 27.2144 18.0365 27.205 18.0189 27.1914C18.0013 27.1779 17.987 27.1605 17.977 27.1406C17.9113 26.9738 17.8495 26.8039 17.8002 26.6317C17.772 26.5315 17.7219 26.5072 17.6233 26.5088C17.2493 26.5143 16.8753 26.515 16.5021 26.5088C16.3973 26.5088 16.3456 26.5362 16.3143 26.6387C16.2666 26.8071 16.2087 26.973 16.1445 27.1359C16.1338 27.1574 16.1184 27.1763 16.0995 27.191C16.0805 27.2058 16.0585 27.2161 16.035 27.2212C15.8855 27.2267 15.7377 27.2189 15.5632 27.2189ZM16.5185 26.0524H17.6038C17.4277 25.538 17.2572 25.0401 17.0858 24.5421H17.0475C16.873 25.0416 16.6985 25.538 16.5185 26.0524Z" fill="#F8F8F8"/>
<path d="M33.168 27.2185C32.9974 27.2185 32.8495 27.2247 32.7032 27.2185C32.6794 27.2135 32.657 27.2031 32.6377 27.1882C32.6185 27.1733 32.6029 27.1542 32.5921 27.1323C32.524 26.9609 32.4646 26.7863 32.4106 26.6101C32.4041 26.5768 32.3849 26.5473 32.3569 26.528C32.329 26.5087 32.2946 26.5011 32.2611 26.5068C31.8699 26.5068 31.4865 26.5131 31.0984 26.5068C31.0796 26.5042 31.0604 26.5053 31.042 26.51C31.0235 26.5148 31.0062 26.5232 30.991 26.5347C30.9758 26.5462 30.9631 26.5606 30.9534 26.577C30.9438 26.5934 30.9375 26.6116 30.9349 26.6305C30.8723 26.8278 30.8027 27.022 30.7354 27.2185H30.1877C30.2784 26.9679 30.3645 26.726 30.4529 26.4857C30.7729 25.6127 31.0969 24.7406 31.4106 23.8653C31.4545 23.7447 31.5061 23.7032 31.6336 23.7087C31.8895 23.7205 31.8895 23.7087 31.9763 23.9499C32.355 24.9822 32.7335 26.0151 33.1117 27.0486C33.1234 27.0955 33.1398 27.148 33.168 27.2185ZM32.2291 26.0582C32.0515 25.5399 31.8809 25.0404 31.7095 24.5409H31.6712L31.1337 26.0582H32.2291Z" fill="#F8F8F8"/>
<path d="M41.071 27.218C40.8934 27.218 40.7338 27.2227 40.5742 27.218C40.5437 27.218 40.5038 27.1687 40.4905 27.1334C40.4232 26.9573 40.3598 26.7788 40.3035 26.5987C40.2983 26.5696 40.2818 26.5437 40.2576 26.5267C40.2335 26.5096 40.2035 26.5029 40.1744 26.5079C39.773 26.5079 39.3716 26.5079 38.9702 26.5134C38.9444 26.5182 38.92 26.529 38.8991 26.5449C38.8782 26.5608 38.8613 26.5814 38.8497 26.605C38.78 26.7757 38.7214 26.9502 38.6666 27.1264C38.6643 27.142 38.659 27.1569 38.6508 27.1703C38.6426 27.1838 38.6318 27.1954 38.619 27.2045C38.6062 27.2137 38.5917 27.2201 38.5763 27.2235C38.561 27.2269 38.5451 27.2272 38.5297 27.2243C38.3873 27.218 38.2441 27.2243 38.079 27.2243L39.3638 23.7177H39.7863C40.2104 24.8732 40.6352 26.0374 41.071 27.218ZM39.6008 24.5334H39.5672L39.0367 26.0523H40.1219L39.6008 24.5334Z" fill="#F8F8F8"/>
<path d="M34.681 23.7124H35.1888V26.7446H36.8758V27.2073H34.6849L34.681 23.7124Z" fill="#F8F8F8"/>
<path d="M3.39417 23.7152H3.90432V26.7482H5.59205V27.2093H3.39417V23.7152Z" fill="#F8F8F8"/>
</svg>
