<svg width="470" height="474" viewBox="0 0 470 474" fill="none" xmlns="http://www.w3.org/2000/svg">
<path d="M171.296 216.516C169.326 218.261 168.934 220.435 169.419 222.68C169.906 224.938 171.28 227.254 172.823 229.223C183.744 243.153 196.632 246.867 207.177 246.789C212.454 246.75 217.149 245.762 220.718 244.623C222.503 244.054 224.004 243.447 225.155 242.905C226.311 242.36 227.1 241.886 227.468 241.584C227.481 241.574 227.492 241.564 227.503 241.555C227.43 241.542 227.335 241.531 227.216 241.524C226.702 241.492 225.866 241.525 224.752 241.569C224.547 241.577 224.331 241.586 224.107 241.595C221.249 241.704 216.991 241.814 212.216 241.165C202.66 239.867 191.009 235.527 184.32 222.071C182.615 218.64 180.322 216.379 177.983 215.415C175.659 214.457 173.27 214.767 171.296 216.516Z" fill="url(#paint0_radial_1009_8925)" stroke="#E4FF98" stroke-width="0.5"/>
<path d="M285.156 266.485C285.161 269.117 283.798 270.854 281.798 271.985C279.787 273.121 277.143 273.634 274.647 273.789C256.98 274.888 245.64 267.726 238.69 259.795C235.211 255.826 232.83 251.661 231.309 248.237C230.548 246.525 230.003 245 229.643 243.78C229.282 242.554 229.113 241.65 229.093 241.174C229.093 241.158 229.092 241.143 229.092 241.129C229.15 241.174 229.221 241.238 229.306 241.322C229.672 241.685 230.202 242.332 230.909 243.193C231.04 243.352 231.176 243.519 231.319 243.692C233.137 245.901 235.884 249.155 239.543 252.292C246.863 258.569 257.85 264.39 272.35 260.445C276.047 259.439 279.26 259.65 281.534 260.757C283.795 261.856 285.151 263.847 285.156 266.485Z" fill="url(#paint1_radial_1009_8925)" stroke="#E4FF98" stroke-width="0.5"/>
<path d="M180.428 203.861C178.122 205.004 177.196 206.956 177.078 209.2C176.96 211.457 177.665 213.996 178.618 216.251C185.367 232.209 196.591 239.018 206.572 241.645C211.567 242.961 216.255 243.229 219.919 243.068C221.751 242.987 223.325 242.799 224.551 242.581C225.783 242.363 226.648 242.117 227.073 241.926C227.084 241.921 227.094 241.917 227.103 241.912C227.04 241.883 226.956 241.85 226.851 241.814C226.374 241.652 225.576 241.47 224.512 241.226C224.316 241.181 224.11 241.134 223.896 241.085C221.167 240.456 217.116 239.469 212.77 237.633C204.074 233.958 194.176 226.872 191.303 212.442C190.571 208.764 188.984 206.043 187.023 204.533C185.074 203.034 182.74 202.715 180.428 203.861Z" fill="url(#paint2_radial_1009_8925)" stroke="#E4FF98" stroke-width="0.5"/>
<path d="M288.543 251.251C289.221 253.734 288.379 255.723 286.78 257.302C285.172 258.89 282.807 260.052 280.488 260.838C264.079 266.401 251.533 262.54 242.935 256.828C238.633 253.97 235.316 250.645 233.002 247.8C231.845 246.378 230.94 245.077 230.287 244.016C229.632 242.951 229.24 242.14 229.101 241.697C229.097 241.685 229.094 241.675 229.091 241.665C229.155 241.692 229.235 241.733 229.332 241.788C229.77 242.037 230.437 242.512 231.325 243.145C231.489 243.262 231.661 243.384 231.84 243.511C234.124 245.132 237.554 247.503 241.814 249.53C250.34 253.586 262.213 256.272 274.904 248.828C278.138 246.931 281.227 246.308 283.658 246.771C286.073 247.23 287.863 248.762 288.543 251.251Z" fill="url(#paint3_radial_1009_8925)" stroke="#E4FF98" stroke-width="0.5"/>
<path d="M232.218 229.538C215.669 290.68 179.37 330.836 106.877 353.674" stroke="url(#paint4_linear_1009_8925)" stroke-width="3"/>
<path d="M298.281 142.978C297.952 143.783 296.999 144.387 295.349 144.693C293.718 144.994 291.517 144.981 288.887 144.656C283.631 144.007 276.752 142.124 269.501 139.156C262.251 136.187 256.026 132.705 251.825 129.483C249.721 127.87 248.143 126.336 247.192 124.977C246.23 123.603 245.974 122.503 246.304 121.698C246.634 120.893 247.586 120.289 249.236 119.983C250.867 119.682 253.068 119.695 255.699 120.02C260.954 120.669 267.833 122.552 275.084 125.52C282.334 128.489 288.559 131.971 292.761 135.193C294.864 136.806 296.443 138.34 297.393 139.699C298.355 141.073 298.611 142.173 298.281 142.978Z" fill="#FFFDA7" stroke="#4966B3" stroke-width="0.75"/>
<path d="M292.104 138.187C291.884 138.723 291.232 139.154 290.029 139.372C288.846 139.587 287.24 139.574 285.312 139.332C281.462 138.849 276.414 137.463 271.088 135.283C265.762 133.102 261.192 130.55 258.108 128.195C256.563 127.015 255.41 125.898 254.717 124.916C254.012 123.916 253.849 123.152 254.069 122.616C254.288 122.079 254.94 121.649 256.144 121.43C257.326 121.216 258.932 121.229 260.86 121.471C264.711 121.954 269.759 123.339 275.085 125.52C280.411 127.7 284.981 130.252 288.065 132.608C289.609 133.787 290.763 134.904 291.456 135.887C292.16 136.886 292.323 137.65 292.104 138.187Z" fill="#C90C21" stroke="#4966B3" stroke-width="0.75"/>
<path d="M287.199 139.119C286.425 141.009 283.892 141.881 281.455 140.884C279.018 139.886 277.824 137.488 278.598 135.597C279.372 133.707 281.905 132.834 284.342 133.832C286.779 134.83 287.973 137.228 287.199 139.119Z" fill="#FFFDA7" stroke="#4966B3" stroke-width="0.75"/>
<path d="M198.771 191.281C206.674 171.977 232.198 164.027 255.873 173.719C279.549 183.412 292.17 206.979 284.267 226.282C276.364 245.586 250.841 253.536 227.165 243.844C203.489 234.151 190.869 210.584 198.771 191.281Z" fill="url(#paint5_radial_1009_8925)" stroke="#E4FF98" stroke-width="0.75"/>
<mask id="path-10-inside-1_1009_8925" fill="white">
<path fill-rule="evenodd" clip-rule="evenodd" d="M251.442 183.381C192.798 159.373 198.152 130.974 198.569 129.124C204.052 123.891 211.704 120.277 220.711 118.418C219.833 117.94 218.918 117.504 217.97 117.116C206.715 112.508 194.274 115.984 187.705 124.827C174.493 123.258 162.086 129.14 157.555 140.208C151.903 154.014 160.645 170.66 177.08 177.389C179.398 178.338 181.745 179.039 184.083 179.504C179.825 192.934 188.509 208.474 204.249 214.918C218.447 220.731 233.743 217.24 241.288 207.281C239.682 219.672 248.139 232.887 262.337 238.699C278.115 245.159 295.247 240.13 301.594 227.504C303.703 228.93 306.011 230.173 308.495 231.19C324.93 237.918 342.836 232.181 348.488 218.376C353.003 207.346 348.332 194.504 337.89 186.354C339.429 175.43 332.995 164.207 321.727 159.594C320.759 159.197 319.782 158.861 318.801 158.582C323.783 166.025 326.681 173.755 327.047 181.151L326.997 181.29C326.997 181.29 312.089 208.21 251.442 183.381Z"/>
</mask>
<path fill-rule="evenodd" clip-rule="evenodd" d="M251.442 183.381C192.798 159.373 198.152 130.974 198.569 129.124C204.052 123.891 211.704 120.277 220.711 118.418C219.833 117.94 218.918 117.504 217.97 117.116C206.715 112.508 194.274 115.984 187.705 124.827C174.493 123.258 162.086 129.14 157.555 140.208C151.903 154.014 160.645 170.66 177.08 177.389C179.398 178.338 181.745 179.039 184.083 179.504C179.825 192.934 188.509 208.474 204.249 214.918C218.447 220.731 233.743 217.24 241.288 207.281C239.682 219.672 248.139 232.887 262.337 238.699C278.115 245.159 295.247 240.13 301.594 227.504C303.703 228.93 306.011 230.173 308.495 231.19C324.93 237.918 342.836 232.181 348.488 218.376C353.003 207.346 348.332 194.504 337.89 186.354C339.429 175.43 332.995 164.207 321.727 159.594C320.759 159.197 319.782 158.861 318.801 158.582C323.783 166.025 326.681 173.755 327.047 181.151L326.997 181.29C326.997 181.29 312.089 208.21 251.442 183.381Z" fill="url(#paint6_linear_1009_8925)"/>
<path d="M198.569 129.124L198.052 128.581L197.888 128.738L197.838 128.959L198.569 129.124ZM220.711 118.418L220.862 119.152L222.868 118.738L221.069 117.759L220.711 118.418ZM217.97 117.116L218.254 116.422L217.97 117.116ZM187.705 124.827L187.616 125.572L188.048 125.623L188.307 125.275L187.705 124.827ZM184.083 179.504L184.798 179.731L185.051 178.932L184.23 178.769L184.083 179.504ZM241.288 207.281L242.031 207.378L242.394 204.579L240.69 206.828L241.288 207.281ZM301.594 227.504L302.014 226.882L301.307 226.404L300.923 227.167L301.594 227.504ZM337.89 186.354L337.147 186.249L337.087 186.678L337.429 186.945L337.89 186.354ZM318.801 158.582L319.005 157.861L317.042 157.304L318.177 158.999L318.801 158.582ZM327.047 181.151L327.753 181.404L327.804 181.263L327.796 181.113L327.047 181.151ZM326.997 181.29L327.653 181.654L327.682 181.601L327.703 181.544L326.997 181.29ZM197.838 128.959C197.598 130.02 196.152 137.784 202.207 148.317C208.256 158.839 221.738 172.031 251.158 184.075L251.726 182.687C222.501 170.723 209.338 157.711 203.508 147.569C197.683 137.438 199.123 130.077 199.301 129.289L197.838 128.959ZM220.559 117.683C211.453 119.563 203.66 123.228 198.052 128.581L199.087 129.667C204.443 124.555 211.956 120.991 220.862 119.152L220.559 117.683ZM221.069 117.759C220.167 117.268 219.228 116.821 218.254 116.422L217.685 117.81C218.609 118.188 219.498 118.612 220.352 119.076L221.069 117.759ZM218.254 116.422C206.7 111.692 193.887 115.246 187.102 124.38L188.307 125.275C194.66 116.722 206.729 113.325 217.685 117.81L218.254 116.422ZM187.793 124.083C174.337 122.484 161.551 128.468 156.861 139.924L158.249 140.492C162.622 129.812 174.65 124.032 187.616 125.572L187.793 124.083ZM156.861 139.924C151.008 154.222 160.096 171.246 176.796 178.083L177.364 176.695C161.194 170.075 152.799 153.806 158.249 140.492L156.861 139.924ZM176.796 178.083C179.158 179.05 181.552 179.765 183.937 180.24L184.23 178.769C181.939 178.313 179.638 177.626 177.364 176.695L176.796 178.083ZM183.368 179.278C178.962 193.176 187.965 209.062 203.965 215.612L204.533 214.224C189.053 207.887 180.689 192.692 184.798 179.731L183.368 179.278ZM203.965 215.612C218.408 221.525 234.093 218.02 241.885 207.734L240.69 206.828C233.393 216.461 218.486 219.937 204.533 214.224L203.965 215.612ZM240.544 207.185C238.886 219.982 247.61 233.48 262.053 239.393L262.622 238.005C248.668 232.293 240.479 219.362 242.031 207.378L240.544 207.185ZM262.053 239.393C278.091 245.959 295.696 240.908 302.264 227.84L300.923 227.167C294.799 239.352 278.139 244.358 262.622 238.005L262.053 239.393ZM301.174 228.125C303.326 229.58 305.679 230.848 308.211 231.884L308.779 230.496C306.343 229.498 304.08 228.279 302.014 226.882L301.174 228.125ZM308.211 231.884C324.911 238.721 343.328 232.957 349.182 218.66L347.794 218.091C342.343 231.405 324.95 237.116 308.779 230.496L308.211 231.884ZM349.182 218.66C353.856 207.244 348.988 194.064 338.352 185.762L337.429 186.945C347.676 194.943 352.151 207.449 347.794 218.091L349.182 218.66ZM338.633 186.458C340.223 175.176 333.579 163.635 322.011 158.9L321.443 160.288C332.412 164.779 338.636 175.685 337.147 186.249L338.633 186.458ZM322.011 158.9C321.017 158.493 320.014 158.147 319.005 157.861L318.596 159.304C319.55 159.575 320.501 159.902 321.443 160.288L322.011 158.9ZM327.796 181.113C327.422 173.55 324.461 165.691 319.424 158.165L318.177 158.999C323.104 166.36 325.941 173.96 326.298 181.188L327.796 181.113ZM327.703 181.544L327.753 181.404L326.341 180.897L326.291 181.036L327.703 181.544ZM251.158 184.075C281.583 196.531 300.661 196.058 312.191 192.361C317.954 190.512 321.806 187.866 324.225 185.663C325.434 184.562 326.283 183.574 326.834 182.854C327.109 182.494 327.31 182.201 327.444 181.995C327.511 181.891 327.561 181.81 327.596 181.752C327.613 181.723 327.626 181.7 327.636 181.684C327.641 181.676 327.644 181.669 327.647 181.664C327.649 181.661 327.65 181.659 327.651 181.658C327.651 181.657 327.652 181.656 327.652 181.655C327.653 181.654 327.653 181.654 326.997 181.29C326.341 180.927 326.341 180.926 326.341 180.926C326.341 180.926 326.342 180.925 326.342 180.925C326.342 180.925 326.342 180.926 326.341 180.926C326.34 180.928 326.339 180.931 326.336 180.935C326.331 180.945 326.322 180.96 326.309 180.981C326.283 181.024 326.243 181.09 326.186 181.178C326.072 181.354 325.893 181.615 325.642 181.943C325.141 182.598 324.352 183.519 323.215 184.554C320.944 186.622 317.278 189.154 311.733 190.932C300.647 194.487 281.948 195.06 251.726 182.687L251.158 184.075Z" fill="#FF971D" mask="url(#path-10-inside-1_1009_8925)"/>
<mask id="path-12-outside-2_1009_8925" maskUnits="userSpaceOnUse" x="185.836" y="97.5804" width="155.115" height="113.575" fill="black">
<rect fill="white" x="185.836" y="97.5804" width="155.115" height="113.575"/>
<path fill-rule="evenodd" clip-rule="evenodd" d="M198.671 129.087C198.671 129.087 190.793 158.552 251.44 183.38C312.086 208.209 327.046 181.661 327.046 181.661L327.065 181.608C326.335 160.997 305.788 137.686 275.207 125.167C244.634 112.65 213.647 114.856 198.669 129.028L198.671 129.087Z"/>
</mask>
<path fill-rule="evenodd" clip-rule="evenodd" d="M198.671 129.087C198.671 129.087 190.793 158.552 251.44 183.38C312.086 208.209 327.046 181.661 327.046 181.661L327.065 181.608C326.335 160.997 305.788 137.686 275.207 125.167C244.634 112.65 213.647 114.856 198.669 129.028L198.671 129.087Z" fill="url(#paint7_radial_1009_8925)"/>
<path d="M198.671 129.087L199.396 129.28L199.424 129.173L199.421 129.063L198.671 129.087ZM327.046 181.661L327.699 182.029L327.732 181.972L327.753 181.911L327.046 181.661ZM327.065 181.608L327.772 181.857L327.82 181.723L327.814 181.581L327.065 181.608ZM198.669 129.028L198.154 128.483L197.909 128.715L197.92 129.052L198.669 129.028ZM251.724 182.686C221.501 170.313 208.476 156.835 202.974 146.568C200.222 141.434 199.339 137.079 199.136 134.029C199.035 132.502 199.104 131.299 199.196 130.486C199.243 130.079 199.295 129.77 199.334 129.566C199.354 129.464 199.37 129.389 199.381 129.341C199.387 129.317 199.391 129.3 199.393 129.29C199.395 129.285 199.396 129.281 199.396 129.28C199.396 129.279 199.396 129.279 199.396 129.279C199.396 129.279 199.396 129.279 199.396 129.279C199.396 129.28 199.396 129.28 198.671 129.087C197.947 128.893 197.946 128.894 197.946 128.895C197.946 128.895 197.946 128.896 197.946 128.897C197.945 128.899 197.944 128.902 197.944 128.904C197.942 128.91 197.94 128.917 197.938 128.927C197.933 128.945 197.927 128.971 197.92 129.003C197.905 129.068 197.884 129.161 197.861 129.281C197.815 129.521 197.757 129.869 197.706 130.317C197.604 131.211 197.532 132.505 197.639 134.128C197.855 137.378 198.793 141.942 201.652 147.277C207.372 157.95 220.731 171.619 251.155 184.074L251.724 182.686ZM327.046 181.661C326.393 181.293 326.393 181.292 326.393 181.292C326.393 181.292 326.393 181.292 326.394 181.291C326.394 181.291 326.393 181.292 326.393 181.292C326.392 181.294 326.391 181.297 326.388 181.301C326.383 181.31 326.374 181.325 326.361 181.346C326.335 181.388 326.294 181.454 326.237 181.54C326.123 181.713 325.944 181.97 325.693 182.293C325.191 182.938 324.4 183.844 323.261 184.862C320.986 186.896 317.314 189.383 311.762 191.115C300.661 194.58 281.947 195.059 251.724 182.686L251.155 184.074C281.579 196.53 300.668 196.149 312.209 192.547C317.978 190.747 321.836 188.148 324.261 185.98C325.472 184.898 326.324 183.924 326.877 183.214C327.153 182.859 327.355 182.57 327.489 182.367C327.556 182.265 327.607 182.184 327.642 182.127C327.659 182.098 327.672 182.076 327.682 182.06C327.687 182.051 327.691 182.045 327.694 182.04C327.695 182.037 327.696 182.035 327.697 182.033C327.698 182.032 327.698 182.032 327.699 182.031C327.699 182.03 327.699 182.029 327.046 181.661ZM326.358 181.358L326.339 181.412L327.753 181.911L327.772 181.857L326.358 181.358ZM327.814 181.581C327.441 171.043 322.011 159.901 312.886 149.849C303.752 139.789 290.874 130.771 275.491 124.473L274.923 125.861C290.121 132.083 302.807 140.979 311.775 150.857C320.75 160.743 325.959 171.562 326.315 181.634L327.814 181.581ZM275.491 124.473C260.112 118.177 244.611 115.575 231.048 116.34C217.496 117.105 205.812 121.237 198.154 128.483L199.185 129.573C206.504 122.647 217.803 118.59 231.132 117.838C244.45 117.087 259.729 119.641 274.923 125.861L275.491 124.473ZM199.421 129.063L199.419 129.004L197.92 129.052L197.922 129.111L199.421 129.063Z" fill="url(#paint8_linear_1009_8925)" mask="url(#path-12-outside-2_1009_8925)"/>
<path d="M298.398 143.025C298.043 143.892 297.034 144.508 295.372 144.816C293.724 145.121 291.508 145.106 288.872 144.78C283.603 144.129 276.713 142.243 269.455 139.272C262.197 136.3 255.962 132.813 251.749 129.582C249.641 127.966 248.051 126.423 247.091 125.049C246.122 123.665 245.835 122.518 246.189 121.651C246.544 120.785 247.553 120.168 249.215 119.861C250.863 119.556 253.079 119.571 255.715 119.896C260.984 120.547 267.874 122.433 275.132 125.405C282.39 128.376 288.625 131.863 292.838 135.094C294.946 136.711 296.536 138.254 297.497 139.627C298.465 141.011 298.753 142.159 298.398 143.025Z" fill="url(#paint9_linear_1009_8925)" stroke="#FF971D" stroke-width="0.5"/>
<path d="M292.312 138.004C292.549 137.403 292.344 136.593 291.621 135.593C290.906 134.604 289.728 133.492 288.164 132.328C285.041 130.001 280.43 127.499 275.071 125.38C269.712 123.262 264.637 121.933 260.767 121.495C258.83 121.275 257.21 121.28 256.013 121.513C254.801 121.748 254.097 122.199 253.86 122.8C253.622 123.401 253.827 124.211 254.55 125.211C255.265 126.2 256.444 127.311 258.007 128.476C261.13 130.802 265.741 133.304 271.1 135.423C276.459 137.542 281.534 138.87 285.404 139.309C287.341 139.528 288.961 139.523 290.159 139.291C291.37 139.056 292.074 138.605 292.312 138.004Z" fill="url(#paint10_linear_1009_8925)" stroke="#FF971D" stroke-width="0.5"/>
<path d="M259.053 126.369C258.773 127.051 258.057 127.521 257.052 127.688C256.051 127.854 254.804 127.709 253.557 127.198C252.31 126.687 251.319 125.917 250.722 125.097C250.122 124.273 249.941 123.435 250.22 122.753C250.5 122.071 251.216 121.601 252.221 121.435C253.222 121.269 254.468 121.414 255.716 121.925C256.963 122.435 257.954 123.206 258.551 124.026C259.151 124.85 259.332 125.687 259.053 126.369Z" fill="white" stroke="#FF971D" stroke-width="0.5"/>
<defs>
<radialGradient id="paint0_radial_1009_8925" cx="0" cy="0" r="1" gradientUnits="userSpaceOnUse" gradientTransform="translate(196.845 230.669) rotate(54.6333) scale(26.1558 19.0319)">
<stop offset="0.178466" stop-color="#457787"/>
<stop offset="1" stop-color="#99C464"/>
</radialGradient>
<radialGradient id="paint1_radial_1009_8925" cx="0" cy="0" r="1" gradientUnits="userSpaceOnUse" gradientTransform="translate(257.601 256.801) rotate(173.715) scale(26.1559 19.0319)">
<stop offset="0.178466" stop-color="#457787"/>
<stop offset="1" stop-color="#99C464"/>
</radialGradient>
<radialGradient id="paint2_radial_1009_8925" cx="0" cy="0" r="1" gradientUnits="userSpaceOnUse" gradientTransform="translate(200.939 223.773) rotate(69.8041) scale(25.6045 18.6307)">
<stop offset="0.178466" stop-color="#457787"/>
<stop offset="1" stop-color="#99C464"/>
</radialGradient>
<radialGradient id="paint3_radial_1009_8925" cx="0" cy="0" r="1" gradientUnits="userSpaceOnUse" gradientTransform="translate(260.033 249.159) rotate(158.544) scale(25.6045 18.6307)">
<stop offset="0.178466" stop-color="#457787"/>
<stop offset="1" stop-color="#99C464"/>
</radialGradient>
<linearGradient id="paint4_linear_1009_8925" x1="279.557" y1="188.153" x2="48.8151" y2="408.08" gradientUnits="userSpaceOnUse">
<stop offset="0.126994" stop-color="#2EBF62"/>
<stop offset="0.932884" stop-color="#ABBC38" stop-opacity="0"/>
</linearGradient>
<radialGradient id="paint5_radial_1009_8925" cx="0" cy="0" r="1" gradientUnits="userSpaceOnUse" gradientTransform="translate(241.1 206.352) rotate(-65.6654) scale(36.1958 44.0523)">
<stop stop-color="#2F648F"/>
<stop offset="1" stop-color="#99C464"/>
</radialGradient>
<linearGradient id="paint6_linear_1009_8925" x1="275.634" y1="124.058" x2="233.529" y2="226.905" gradientUnits="userSpaceOnUse">
<stop offset="0.0833333" stop-color="#FDFF8F"/>
<stop offset="0.479167" stop-color="#ABBCEB"/>
<stop offset="0.963542" stop-color="#668AED"/>
</linearGradient>
<radialGradient id="paint7_radial_1009_8925" cx="0" cy="0" r="1" gradientUnits="userSpaceOnUse" gradientTransform="translate(270.207 130.572) rotate(109.843) scale(58.8637 129.889)">
<stop offset="0.206891" stop-color="#FCFFE7"/>
<stop offset="0.561868" stop-color="#FFD84D"/>
<stop offset="0.968125" stop-color="#EFA5D8"/>
</radialGradient>
<linearGradient id="paint8_linear_1009_8925" x1="255.969" y1="164.683" x2="277.824" y2="110.949" gradientUnits="userSpaceOnUse">
<stop stop-color="#FF5C47"/>
<stop offset="0.947917" stop-color="#FF971D"/>
</linearGradient>
<linearGradient id="paint9_linear_1009_8925" x1="274.27" y1="127.743" x2="268.635" y2="141.747" gradientUnits="userSpaceOnUse">
<stop stop-color="#FFFDA7"/>
<stop offset="1" stop-color="#FFA8F6"/>
</linearGradient>
<linearGradient id="paint10_linear_1009_8925" x1="269.845" y1="138.741" x2="275.163" y2="125.148" gradientUnits="userSpaceOnUse">
<stop stop-color="#F94C3C"/>
<stop offset="1" stop-color="#6D98FD"/>
</linearGradient>
</defs>
</svg>
