<svg width="363" height="431" viewBox="0 0 363 431" fill="none" xmlns="http://www.w3.org/2000/svg">
<path d="M130.623 208.836C148.959 218.801 161.393 237.65 166.905 249.979" stroke="url(#paint0_linear_1006_6101)" stroke-width="0.75"/>
<path d="M135.934 309.661C134.662 305.189 136.477 301.365 139.037 298.411C141.599 295.456 144.864 293.428 146.346 292.595C159.855 285.004 172.439 287.45 181.872 292.187C186.591 294.556 190.515 297.497 193.359 300.034C194.781 301.302 195.93 302.468 196.772 303.407C197.465 304.18 197.936 304.786 198.183 305.165C198.147 305.158 198.108 305.15 198.067 305.141C197.557 305.025 196.775 304.763 195.738 304.415C195.567 304.358 195.388 304.298 195.203 304.236C192.615 303.372 188.801 302.149 184.344 301.491C175.427 300.174 163.899 301.119 154.449 311.755C151.406 315.179 147.387 316.88 143.841 316.617C140.319 316.357 137.214 314.159 135.934 309.661Z" fill="url(#paint1_linear_1006_6101)" stroke="url(#paint2_linear_1006_6101)" stroke-width="0.75"/>
<path d="M143.952 304.491C143.523 303.855 143.605 302.995 144.197 301.918C144.783 300.852 145.817 299.679 147.072 298.534C149.58 296.245 152.867 294.154 154.879 293.328C166.724 288.461 177.473 291.278 185.256 295.375C189.147 297.424 192.288 299.789 194.441 301.662C195.365 302.466 196.105 303.178 196.643 303.733C196.309 303.525 195.924 303.279 195.488 303C195.093 302.748 194.657 302.468 194.181 302.168C191.803 300.669 188.485 298.682 184.568 297.004C176.742 293.653 166.464 291.513 156.513 297.056C153.94 298.489 151.708 300.418 149.843 302.029C149.292 302.504 148.774 302.952 148.288 303.352C147.202 304.245 146.31 304.869 145.579 305.092C145.224 305.199 144.934 305.204 144.687 305.12C144.441 305.036 144.194 304.85 143.952 304.491Z" stroke="url(#paint3_linear_1006_6101)" stroke-width="0.75"/>
<path d="M152.489 410.703C153.654 404.566 158.141 401.078 162.971 399.089C167.804 397.098 172.918 396.638 175.185 396.534C195.848 395.583 209.403 406.045 217.822 417.339C222.033 422.988 224.955 428.841 226.83 433.566C227.767 435.928 228.441 438.005 228.884 439.63C229.308 441.186 229.512 442.302 229.541 442.856C229.447 442.796 229.331 442.711 229.192 442.596C228.649 442.149 227.869 441.365 226.843 440.332C226.673 440.161 226.497 439.984 226.313 439.8C223.749 437.227 219.945 433.497 215.041 430.057C205.231 423.173 190.989 417.425 173.446 424.399C167.75 426.663 161.91 426.286 157.807 423.83C153.725 421.387 151.319 416.866 152.489 410.703Z" fill="url(#paint4_linear_1006_6101)" stroke="url(#paint5_linear_1006_6101)" stroke-width="0.75"/>
<path d="M165.117 409.387C164.977 408.304 165.637 407.29 166.997 406.354C168.348 405.425 170.294 404.645 172.476 404.032C176.839 402.807 182.014 402.284 184.918 402.505C201.971 403.805 213.114 413.611 219.946 423.155C223.362 427.926 225.694 432.626 227.142 436.148C227.866 437.908 228.368 439.372 228.673 440.4C228.716 440.545 228.755 440.681 228.79 440.808C228.728 440.715 228.663 440.614 228.595 440.505C228.256 439.971 227.849 439.286 227.366 438.475C227.047 437.938 226.695 437.347 226.308 436.706C224.374 433.505 221.613 429.164 217.958 424.834C210.653 416.182 199.729 407.525 184.632 408.164C180.729 408.329 176.938 409.282 173.759 410.082C172.817 410.319 171.929 410.543 171.108 410.728C169.283 411.14 167.827 411.356 166.796 411.178C166.292 411.091 165.917 410.915 165.651 410.644C165.385 410.374 165.193 409.977 165.117 409.387Z" stroke="url(#paint6_linear_1006_6101)" stroke-width="0.75"/>
<path d="M275.974 380.611C275.819 377.003 273.547 374.623 270.922 373.062C268.295 371.5 265.371 370.798 264.064 370.544C252.156 368.233 243.409 373.15 237.563 378.997C234.638 381.923 232.445 385.078 230.955 387.667C230.211 388.961 229.644 390.11 229.25 391.016C228.982 391.632 228.799 392.123 228.694 392.464C229.038 392.245 229.52 391.883 230.147 391.413C230.261 391.328 230.379 391.239 230.502 391.147C232.217 389.863 234.762 388.005 237.926 386.411C244.26 383.219 253.113 381.066 262.815 386.673C265.911 388.463 269.299 388.732 271.851 387.671C274.379 386.619 276.131 384.246 275.974 380.611ZM228.59 392.891C228.59 392.891 228.59 392.891 228.59 392.889C228.59 392.891 228.59 392.892 228.59 392.891Z" fill="url(#paint7_linear_1006_6101)" stroke="url(#paint8_linear_1006_6101)" stroke-width="0.75"/>
<path d="M268.725 378.715C268.875 378.179 268.629 377.588 267.93 376.94C267.24 376.299 266.188 375.685 264.974 375.143C262.546 374.06 259.589 373.318 257.898 373.2C247.899 372.502 240.608 377.242 235.831 382.208C233.443 384.691 231.69 387.224 230.551 389.148C230.239 389.675 229.974 390.156 229.754 390.576C229.823 390.491 229.895 390.403 229.969 390.312C230.2 390.026 230.457 389.709 230.739 389.366C232.141 387.661 234.126 385.356 236.634 383.134C241.645 378.696 248.799 374.544 257.619 376.222C259.9 376.656 262.051 377.546 263.839 378.286C264.365 378.503 264.86 378.708 265.318 378.884C266.349 379.282 267.154 379.52 267.735 379.506C268.015 379.499 268.215 379.434 268.361 379.323C268.507 379.212 268.637 379.029 268.725 378.715Z" stroke="url(#paint9_linear_1006_6101)" stroke-width="0.75"/>
<path d="M226.86 229.228C225.205 224.843 221.44 222.841 217.597 221.991C213.75 221.141 209.892 221.464 208.193 221.682C192.711 223.666 184 233.215 179.214 242.721C176.819 247.477 175.41 252.217 174.632 255.98C174.244 257.861 174.013 259.495 173.896 260.762C173.8 261.809 173.783 262.585 173.811 263.04C173.837 263.011 173.865 262.98 173.894 262.945C174.237 262.545 174.712 261.862 175.343 260.957C175.447 260.808 175.555 260.652 175.668 260.49C177.242 258.235 179.593 254.951 182.802 251.739C189.224 245.31 199.114 239.142 213.139 242.062C217.656 243.002 221.928 241.961 224.64 239.615C227.333 237.285 228.525 233.638 226.86 229.228Z" fill="url(#paint10_linear_1006_6101)" stroke="url(#paint11_linear_1006_6101)" stroke-width="0.75"/>
<path d="M217.272 229.866C217.237 229.092 216.652 228.444 215.528 227.929C214.413 227.418 212.872 227.092 211.17 226.92C207.767 226.576 203.854 226.862 201.731 227.403C189.228 230.591 182.225 239.337 178.39 247.334C176.473 251.333 175.351 255.137 174.734 257.948C174.467 259.166 174.295 260.195 174.193 260.971C174.341 260.597 174.508 260.159 174.696 259.662C174.864 259.22 175.049 258.732 175.254 258.202C176.277 255.559 177.768 251.955 179.929 248.242C184.246 240.823 191.274 232.91 202.648 231.409C205.588 231.021 208.551 231.239 211.026 231.42C211.757 231.474 212.445 231.525 213.078 231.556C214.492 231.625 215.589 231.594 216.314 231.334C216.666 231.207 216.904 231.036 217.054 230.819C217.203 230.603 217.291 230.302 217.272 229.866Z" stroke="url(#paint12_linear_1006_6101)" stroke-width="0.75"/>
<path d="M158.438 147.889C149.07 168.688 143.65 228.792 196.908 302.809C250.166 376.826 228.667 475.91 211.26 516.2" stroke="url(#paint13_linear_1006_6101)" stroke-width="0.75"/>
<path d="M152.076 180.238C152.212 165.338 145.215 144.315 141.7 135.665L176.044 154.589C163.471 155.445 153.464 172.184 152.076 180.238Z" fill="url(#paint14_linear_1006_6101)" stroke="#3F6A24" stroke-width="0.75"/>
<path d="M139.786 214.701C128.688 204.767 116.881 185.326 112.859 176.901L103.711 215.052C112.81 206.328 132.902 210.303 139.786 214.701Z" fill="url(#paint15_linear_1006_6101)" stroke="#4C762E" stroke-width="0.75"/>
<mask id="path-13-inside-1_1006_6101" fill="white">
<path fill-rule="evenodd" clip-rule="evenodd" d="M202.583 104.573C197.575 103.784 192.429 101.722 187.655 98.339C182.106 94.4062 177.885 89.2725 175.246 83.7614C169.092 88.3732 160.997 90.7784 152.79 89.7809C137.757 87.9542 128.039 75.4055 131.083 61.7528C134.127 48.1 148.78 38.5132 163.813 40.34C172.062 41.3425 178.711 45.5738 182.529 51.4446C191.206 46.3994 203.685 47.3859 214.313 54.9176C225.802 63.0602 231.599 76.351 229.444 87.4799C235.277 89.2866 240.298 94.1255 242.909 101.353C247.708 114.634 242.551 130.953 231.392 137.8C220.232 144.648 207.295 139.432 202.496 126.151C199.982 119.192 200.2 111.4 202.583 104.573Z"/>
</mask>
<path fill-rule="evenodd" clip-rule="evenodd" d="M202.583 104.573C197.575 103.784 192.429 101.722 187.655 98.339C182.106 94.4062 177.885 89.2725 175.246 83.7614C169.092 88.3732 160.997 90.7784 152.79 89.7809C137.757 87.9542 128.039 75.4055 131.083 61.7528C134.127 48.1 148.78 38.5132 163.813 40.34C172.062 41.3425 178.711 45.5738 182.529 51.4446C191.206 46.3994 203.685 47.3859 214.313 54.9176C225.802 63.0602 231.599 76.351 229.444 87.4799C235.277 89.2866 240.298 94.1255 242.909 101.353C247.708 114.634 242.551 130.953 231.392 137.8C220.232 144.648 207.295 139.432 202.496 126.151C199.982 119.192 200.2 111.4 202.583 104.573Z" fill="url(#paint16_linear_1006_6101)"/>
<path d="M187.655 98.339L187.223 98.9512L187.655 98.339ZM202.583 104.573L203.291 104.821L203.587 103.971L202.699 103.832L202.583 104.573ZM175.246 83.7614L175.922 83.4376L175.527 82.613L174.796 83.1607L175.246 83.7614ZM152.79 89.7809L152.879 89.0361L152.79 89.7809ZM131.083 61.7528L131.814 61.9167L131.083 61.7528ZM163.813 40.34L163.723 41.0848L163.723 41.0848L163.813 40.34ZM182.529 51.4446L181.901 51.8535L182.29 52.4517L182.906 52.0934L182.529 51.4446ZM214.313 54.9176L213.88 55.5298L214.313 54.9176ZM229.444 87.4799L228.708 87.3367L228.58 87.9976L229.223 88.1967L229.444 87.4799ZM242.909 101.353L243.614 101.098L242.909 101.353ZM231.392 137.8L231.784 138.44L231.392 137.8ZM202.496 126.151L201.791 126.405L202.496 126.151ZM187.223 98.9512C192.085 102.397 197.34 104.506 202.467 105.314L202.699 103.832C197.811 103.062 192.772 101.046 188.088 97.7267L187.223 98.9512ZM174.57 84.0853C177.264 89.712 181.569 94.9448 187.223 98.9512L188.088 97.7267C182.643 93.8675 178.506 88.8329 175.922 83.4376L174.57 84.0853ZM152.7 90.5258C161.108 91.5475 169.394 89.0845 175.696 84.3621L174.796 83.1607C168.79 87.6619 160.887 90.0092 152.879 89.0361L152.7 90.5258ZM130.351 61.5889C127.196 75.7375 137.293 88.6536 152.7 90.5258L152.879 89.0361C138.221 87.2548 128.881 75.0735 131.814 61.9167L130.351 61.5889ZM163.903 39.5952C148.537 37.7279 133.489 47.5133 130.351 61.5889L131.814 61.9167C134.764 48.6868 149.024 39.2985 163.723 41.0848L163.903 39.5952ZM183.157 51.0356C179.21 44.966 172.357 40.6225 163.903 39.5952L163.723 41.0848C171.768 42.0624 178.212 46.1816 181.901 51.8535L183.157 51.0356ZM214.746 54.3054C203.934 46.6434 191.137 45.5715 182.152 50.7957L182.906 52.0934C191.275 47.2273 203.436 48.1284 213.88 55.5298L214.746 54.3054ZM230.18 87.6231C232.401 76.1521 226.429 62.5851 214.746 54.3054L213.88 55.5298C225.176 63.5353 230.796 76.5498 228.708 87.3367L230.18 87.6231ZM229.223 88.1967C234.801 89.9244 239.662 94.5701 242.204 101.607L243.614 101.098C240.934 93.6809 235.753 88.6488 229.666 86.7632L229.223 88.1967ZM242.204 101.607C246.896 114.592 241.823 130.519 230.999 137.161L231.784 138.44C243.279 131.386 248.52 114.677 243.614 101.098L242.204 101.607ZM230.999 137.161C225.613 140.466 219.837 140.844 214.838 138.828C209.832 136.81 205.538 132.362 203.201 125.896L201.791 126.405C204.253 133.22 208.827 138.022 214.279 140.22C219.738 142.421 226.011 141.983 231.784 138.44L230.999 137.161ZM203.201 125.896C200.751 119.115 200.959 111.501 203.291 104.821L201.875 104.325C199.442 111.298 199.213 119.269 201.791 126.405L203.201 125.896Z" fill="#DDFF7A" mask="url(#path-13-inside-1_1006_6101)"/>
<path d="M213.698 118.509C205.856 135.969 185.317 143.737 167.822 135.857C150.328 127.976 142.505 107.433 150.347 89.9722C158.19 72.5119 178.729 64.7438 196.224 72.6243C213.718 80.5047 221.541 101.048 213.698 118.509Z" fill="url(#paint17_linear_1006_6101)" stroke="#DDFF7A" stroke-width="0.75"/>
<path d="M242.896 137.489L242.885 137.499L242.874 137.51C242.798 137.589 242.736 137.675 242.692 137.738L242.686 137.746C242.635 137.817 242.603 137.861 242.568 137.897C242.468 138.001 242.367 138.106 242.266 138.21C225.592 155.467 207.042 159.403 192.1 158.518C184.624 158.076 178.051 156.426 173.07 154.631C170.58 153.734 168.491 152.801 166.888 151.966C165.362 151.171 164.297 150.475 163.746 149.995C163.371 148.21 163.712 147.14 164.501 146.462C165.352 145.732 166.811 145.368 168.852 145.245C170.876 145.123 173.38 145.24 176.245 145.394C176.476 145.407 176.709 145.419 176.945 145.432C179.623 145.577 182.584 145.737 185.707 145.75C192.504 145.778 200.105 145.107 207.34 142.045C214.584 138.979 221.442 133.523 226.761 124.019C226.831 123.894 226.981 123.648 227.14 123.405C227.305 123.153 227.457 122.942 227.535 122.861L227.546 122.85L227.556 122.838C227.626 122.753 227.678 122.688 227.721 122.635C227.841 122.485 227.895 122.419 228.098 122.208C232.979 117.156 240.413 116.411 244.701 120.37C248.981 124.321 248.649 131.604 243.77 136.654C243.487 136.946 243.196 137.225 242.896 137.489Z" fill="url(#paint18_linear_1006_6101)" stroke="#DDFF7A" stroke-width="0.75"/>
<mask id="path-17-inside-2_1006_6101" fill="white">
<path fill-rule="evenodd" clip-rule="evenodd" d="M212.549 128.974C212.475 123.362 209.006 117.902 203.276 115.32C196.897 112.447 189.713 114.04 185.569 118.774C184.427 114.833 181.519 111.327 177.337 109.444C170.037 106.155 161.62 109.054 158.537 115.917C157.901 117.333 157.542 118.807 157.436 120.283C155.787 130.013 154.373 146.924 159.151 149.212C165.737 152.366 175.981 156.087 189.518 157.452C197.976 158.304 209.582 155.448 217 151.966C220.254 151.106 223.05 148.924 224.485 145.729C227.102 139.903 224.2 132.916 218.002 130.124C216.22 129.321 214.359 128.953 212.549 128.974Z"/>
</mask>
<path fill-rule="evenodd" clip-rule="evenodd" d="M212.549 128.974C212.475 123.362 209.006 117.902 203.276 115.32C196.897 112.447 189.713 114.04 185.569 118.774C184.427 114.833 181.519 111.327 177.337 109.444C170.037 106.155 161.62 109.054 158.537 115.917C157.901 117.333 157.542 118.807 157.436 120.283C155.787 130.013 154.373 146.924 159.151 149.212C165.737 152.366 175.981 156.087 189.518 157.452C197.976 158.304 209.582 155.448 217 151.966C220.254 151.106 223.05 148.924 224.485 145.729C227.102 139.903 224.2 132.916 218.002 130.124C216.22 129.321 214.359 128.953 212.549 128.974Z" fill="url(#paint19_linear_1006_6101)"/>
<path d="M212.549 128.974L211.8 128.984L211.81 129.733L212.559 129.724L212.549 128.974ZM203.276 115.32L202.968 116.004L203.276 115.32ZM185.569 118.774L184.849 118.982L185.231 120.299L186.133 119.268L185.569 118.774ZM177.337 109.444L177.644 108.759L177.337 109.444ZM158.537 115.917L157.853 115.609L158.537 115.917ZM157.436 120.283L158.175 120.409L158.181 120.374L158.184 120.338L157.436 120.283ZM159.151 149.212L159.474 148.535L159.151 149.212ZM189.518 157.452L189.444 158.198L189.518 157.452ZM217 151.966L216.808 151.241L216.742 151.258L216.681 151.287L217 151.966ZM224.485 145.729L225.169 146.037L224.485 145.729ZM218.002 130.124L217.695 130.809L218.002 130.124ZM213.299 128.965C213.221 123.052 209.571 117.333 203.583 114.636L202.968 116.004C208.441 118.47 211.73 123.673 211.8 128.984L213.299 128.965ZM203.583 114.636C196.92 111.635 189.377 113.284 185.005 118.279L186.133 119.268C190.048 114.796 196.874 113.259 202.968 116.004L203.583 114.636ZM186.289 118.565C185.086 114.412 182.027 110.733 177.644 108.759L177.03 110.128C181.011 111.921 183.768 115.253 184.849 118.982L186.289 118.565ZM177.644 108.759C170.007 105.319 161.123 108.328 157.853 115.609L159.221 116.225C162.116 109.779 170.067 106.991 177.03 110.128L177.644 108.759ZM157.853 115.609C157.18 117.107 156.8 118.667 156.688 120.229L158.184 120.338C158.283 118.947 158.622 117.559 159.221 116.225L157.853 115.609ZM156.697 120.158C155.868 125.048 155.096 131.754 155.134 137.543C155.153 140.433 155.374 143.133 155.908 145.276C156.43 147.368 157.307 149.161 158.827 149.889L159.474 148.535C158.606 148.12 157.868 146.94 157.363 144.914C156.87 142.938 156.652 140.374 156.633 137.534C156.596 131.862 157.355 125.248 158.175 120.409L156.697 120.158ZM158.827 149.889C165.479 153.075 175.808 156.824 189.444 158.198L189.593 156.705C176.155 155.351 165.994 151.658 159.474 148.535L158.827 149.889ZM189.444 158.198C198.075 159.069 209.82 156.165 217.318 152.646L216.681 151.287C209.345 154.73 197.877 157.54 189.593 156.705L189.444 158.198ZM223.801 145.421C222.467 148.392 219.863 150.434 216.808 151.241L217.192 152.692C220.646 151.779 223.633 149.455 225.169 146.037L223.801 145.421ZM217.695 130.809C223.555 133.448 226.231 140.012 223.801 145.421L225.169 146.037C227.973 139.793 224.844 132.384 218.309 129.44L217.695 130.809ZM212.559 129.724C214.26 129.705 216.013 130.051 217.695 130.809L218.309 129.44C216.426 128.592 214.457 128.202 212.54 128.224L212.559 129.724Z" fill="#DDFF7A" mask="url(#path-17-inside-2_1006_6101)"/>
<path fill-rule="evenodd" clip-rule="evenodd" d="M123.966 67.6094C124.231 66.734 124.557 65.8617 124.945 64.9989C128.482 57.1227 136.033 52.5802 143.016 53.5693C147.775 46.5982 156.007 43.4667 162.805 46.5288C170.612 50.0453 173.57 60.3986 169.414 69.6534C169.357 69.7793 169.299 69.9044 169.241 70.0286C169.91 70.1112 170.57 70.2919 171.205 70.5781C175.215 72.3845 176.733 77.7086 174.594 82.4698C174.11 83.5473 173.48 84.5037 172.749 85.3177C172.502 85.6622 172.234 86.0328 171.945 86.4302C168.572 91.079 162.546 99.3842 158.627 112.319C155.239 123.501 159.965 136.121 162.823 143.753C164.443 148.081 165.463 150.805 164.062 150.753C156.735 150.48 133.005 130.811 126.601 116.759C120.307 102.947 117.812 85.1704 123.966 67.6094Z" fill="url(#paint20_radial_1006_6101)"/>
<path d="M123.966 67.6094L124.319 67.7338L124.322 67.7263L124.324 67.7187L123.966 67.6094ZM124.945 64.9989L125.286 65.1529L124.945 64.9989ZM143.016 53.5693L142.964 53.9407L143.195 53.9734L143.326 53.781L143.016 53.5693ZM162.805 46.5288L162.651 46.8709L162.805 46.5288ZM169.414 69.6534L169.755 69.8074L169.755 69.8074L169.414 69.6534ZM169.241 70.0286L168.902 69.8682L168.681 70.3374L169.195 70.4009L169.241 70.0286ZM171.205 70.5781L171.359 70.236L171.359 70.236L171.205 70.5781ZM174.594 82.4698L174.936 82.6238L174.936 82.6238L174.594 82.4698ZM172.749 85.3177L172.47 85.0667L172.456 85.0822L172.444 85.0991L172.749 85.3177ZM171.945 86.4302L171.642 86.2096L171.945 86.4302ZM158.627 112.319L158.986 112.428L158.627 112.319ZM162.823 143.753L162.472 143.885L162.823 143.753ZM164.062 150.753L164.076 150.378L164.062 150.753ZM126.601 116.759L126.26 116.914L126.601 116.759ZM124.324 67.7187C124.585 66.8585 124.905 66.0012 125.286 65.1529L124.603 64.8449C124.209 65.7222 123.877 66.6095 123.607 67.5002L124.324 67.7187ZM125.286 65.1529C128.77 57.3974 136.178 52.9796 142.964 53.9407L143.069 53.1978C135.889 52.1809 128.195 56.8479 124.603 64.8449L125.286 65.1529ZM143.326 53.781C148.011 46.9185 156.061 43.9023 162.651 46.8709L162.959 46.1867C155.953 43.0311 147.54 46.278 142.707 53.3575L143.326 53.781ZM162.651 46.8709C170.217 50.2789 173.169 60.3768 169.072 69.4994L169.755 69.8074C173.972 60.4204 171.006 49.8118 162.959 46.1867L162.651 46.8709ZM169.072 69.4994C169.016 69.6232 168.959 69.7461 168.902 69.8682L169.58 70.1889C169.639 70.0626 169.698 69.9355 169.755 69.8074L169.072 69.4994ZM169.195 70.4009C169.828 70.479 170.451 70.6497 171.051 70.9201L171.359 70.236C170.688 69.934 169.992 69.7433 169.286 69.6563L169.195 70.4009ZM171.051 70.9201C174.82 72.6179 176.332 77.6863 174.252 82.3157L174.936 82.6238C177.134 77.7309 175.61 72.1511 171.359 70.236L171.051 70.9201ZM174.252 82.3157C173.784 83.3581 173.176 84.2817 172.47 85.0667L173.028 85.5686C173.785 84.7257 174.436 83.7366 174.936 82.6238L174.252 82.3157ZM172.444 85.0991C172.199 85.4424 171.93 85.812 171.642 86.2096L172.249 86.6508C172.537 86.2537 172.806 85.882 173.054 85.5362L172.444 85.0991ZM171.642 86.2096C168.263 90.8666 162.206 99.2131 158.268 112.21L158.986 112.428C162.886 99.5552 168.882 91.2914 172.249 86.6508L171.642 86.2096ZM158.268 112.21C156.549 117.883 156.893 123.902 158.015 129.442C159.137 134.982 161.043 140.071 162.472 143.885L163.174 143.622C161.744 139.804 159.858 134.767 158.75 129.293C157.641 123.819 157.317 117.937 158.986 112.428L158.268 112.21ZM162.472 143.885C163.286 146.06 163.935 147.795 164.21 148.981C164.351 149.584 164.377 149.979 164.323 150.202C164.299 150.302 164.266 150.334 164.251 150.345C164.236 150.357 164.192 150.383 164.076 150.378L164.049 151.128C164.283 151.137 164.513 151.089 164.704 150.944C164.895 150.8 165 150.594 165.052 150.378C165.15 149.97 165.083 149.423 164.941 148.811C164.651 147.566 163.98 145.774 163.174 143.622L162.472 143.885ZM164.076 150.378C163.229 150.347 162.107 150.031 160.761 149.446C159.42 148.865 157.884 148.029 156.217 146.985C152.883 144.896 149.046 141.985 145.232 138.641C137.595 131.944 130.11 123.556 126.942 116.603L126.26 116.914C129.495 124.014 137.078 132.487 144.738 139.205C148.574 142.569 152.444 145.506 155.82 147.621C157.507 148.678 159.078 149.534 160.463 150.135C161.841 150.733 163.064 151.091 164.049 151.128L164.076 150.378ZM126.942 116.603C120.681 102.864 118.203 85.1881 124.319 67.7338L123.612 67.4851C117.421 85.1526 119.933 103.031 126.26 116.914L126.942 116.603Z" fill="#DDFF7A"/>
<path d="M199.542 77.9451C206.617 80.5207 212.288 88.4212 212.246 95.5677C212.204 102.714 206.463 106.459 199.388 103.884C192.314 101.308 186.642 93.4078 186.685 86.2613C186.727 79.1148 192.468 75.3695 199.542 77.9451Z" fill="url(#paint21_linear_1006_6101)" stroke="#FF971D" stroke-width="0.75"/>
<path d="M201.008 78.782C206.883 80.921 211.589 87.4798 211.554 93.4078C211.519 99.3359 206.756 102.447 200.88 100.308C195.005 98.1693 190.3 91.6105 190.335 85.6825C190.37 79.7545 195.133 76.643 201.008 78.782Z" fill="url(#paint22_linear_1006_6101)" stroke="#FF971D" stroke-width="0.75"/>
<path d="M201.846 79.6772C206.545 81.3879 210.302 86.6305 210.274 91.3631C210.246 96.0958 206.443 98.5854 201.744 96.8747C197.045 95.164 193.287 89.9215 193.315 85.1888C193.344 80.4562 197.147 77.9665 201.846 79.6772Z" fill="url(#paint23_linear_1006_6101)" stroke="#FF971D" stroke-width="0.75"/>
<mask id="path-24-inside-3_1006_6101" fill="white">
<path fill-rule="evenodd" clip-rule="evenodd" d="M197.565 90.5591C195.555 87.7686 192.332 86.6404 190.365 88.0392C192.332 86.6404 192.297 83.2444 190.287 80.454C192.297 83.2444 195.52 84.3726 197.487 82.9739C195.52 84.3726 195.555 87.7686 197.565 90.5591ZM197.586 90.5888C197.579 90.5789 197.572 90.569 197.565 90.5591C197.572 90.569 197.579 90.579 197.586 90.5889C197.586 90.5889 197.586 90.5888 197.586 90.5888ZM197.509 82.959C197.508 82.9589 197.508 82.9589 197.508 82.9588C197.501 82.9639 197.494 82.9689 197.487 82.9739C197.494 82.9689 197.501 82.9639 197.509 82.959Z"/>
</mask>
<path fill-rule="evenodd" clip-rule="evenodd" d="M197.565 90.5591C195.555 87.7686 192.332 86.6404 190.365 88.0392C192.332 86.6404 192.297 83.2444 190.287 80.454C192.297 83.2444 195.52 84.3726 197.487 82.9739C195.52 84.3726 195.555 87.7686 197.565 90.5591ZM197.586 90.5888C197.579 90.5789 197.572 90.569 197.565 90.5591C197.572 90.569 197.579 90.579 197.586 90.5889C197.586 90.5889 197.586 90.5888 197.586 90.5888ZM197.509 82.959C197.508 82.9589 197.508 82.9589 197.508 82.9588C197.501 82.9639 197.494 82.9689 197.487 82.9739C197.494 82.9689 197.501 82.9639 197.509 82.959Z" fill="white"/>
<path d="M197.565 90.5591L196.954 90.9935L196.954 90.9935L197.565 90.5591ZM197.487 82.9739L197.049 82.365L197.049 82.365L197.487 82.9739ZM197.586 90.5888L198.022 91.1994L198.64 90.764L198.195 90.1519L197.586 90.5888ZM197.586 90.5889L196.973 91.0209L197.409 91.6315L198.022 91.1995L197.586 90.5889ZM197.508 82.9588L198.119 82.5243L197.677 81.9104L197.065 82.3536L197.508 82.9588ZM197.509 82.959L197.942 83.5714L198.562 83.1384L198.119 82.5245L197.509 82.959ZM190.803 88.648C191.533 88.1286 192.558 88.0338 193.701 88.4337C194.841 88.8327 196.028 89.7084 196.954 90.9935L198.175 90.1247C197.091 88.6194 195.662 87.5357 194.196 87.0227C192.733 86.5106 191.163 86.551 189.926 87.4303L190.803 88.648ZM189.676 80.8884C190.602 82.1736 191.053 83.5729 191.065 84.774C191.077 85.9778 190.656 86.9109 189.926 87.4303L190.803 88.648C192.04 87.7687 192.585 86.3045 192.569 84.763C192.553 83.2188 191.982 81.5248 190.898 80.0195L189.676 80.8884ZM197.049 82.365C196.318 82.8844 195.294 82.9793 194.151 82.5794C193.011 82.1804 191.824 81.3047 190.898 80.0195L189.676 80.8884C190.76 82.3937 192.19 83.4774 193.655 83.9904C195.119 84.5025 196.689 84.4621 197.926 83.5827L197.049 82.365ZM197.049 82.365C195.812 83.2444 195.267 84.7086 195.283 86.2501C195.299 87.7943 195.87 89.4882 196.954 90.9935L198.175 90.1247C197.25 88.8395 196.799 87.4402 196.787 86.2391C196.775 85.0353 197.195 84.1021 197.926 83.5827L197.049 82.365ZM196.954 90.9935C196.961 91.0043 196.969 91.015 196.977 91.0257L198.195 90.1519C198.189 90.1429 198.182 90.1338 198.175 90.1246L196.954 90.9935ZM196.954 90.9935C196.96 91.0026 196.967 91.0117 196.973 91.0209L198.199 90.1569C198.191 90.1462 198.183 90.1354 198.175 90.1246L196.954 90.9935ZM197.15 89.9782C197.15 89.9782 197.15 89.9782 197.15 89.9783L198.022 91.1995C198.022 91.1995 198.022 91.1995 198.022 91.1994L197.15 89.9782ZM196.897 83.3932L196.898 83.3934L198.119 82.5245L198.119 82.5243L196.897 83.3932ZM197.065 82.3536C197.06 82.3574 197.054 82.3612 197.049 82.365L197.926 83.5828C197.935 83.5765 197.943 83.5703 197.952 83.564L197.065 82.3536ZM197.075 82.3465C197.066 82.3527 197.058 82.3588 197.049 82.365L197.926 83.5828C197.931 83.5789 197.937 83.5751 197.942 83.5714L197.075 82.3465Z" fill="#FF971D" mask="url(#path-24-inside-3_1006_6101)"/>
<mask id="path-26-inside-4_1006_6101" fill="white">
<path fill-rule="evenodd" clip-rule="evenodd" d="M202.583 104.573C197.575 103.784 192.429 101.722 187.655 98.339C182.106 94.4062 177.885 89.2725 175.246 83.7614C169.092 88.3732 160.997 90.7784 152.79 89.7809C137.757 87.9542 128.039 75.4055 131.083 61.7528C134.127 48.1 148.78 38.5132 163.813 40.34C172.062 41.3425 178.711 45.5738 182.529 51.4446C191.206 46.3994 203.685 47.3859 214.313 54.9176C225.802 63.0602 231.599 76.351 229.444 87.4799C235.277 89.2866 240.298 94.1255 242.909 101.353C247.708 114.634 242.551 130.953 231.392 137.8C220.232 144.648 207.295 139.432 202.496 126.151C199.982 119.192 200.2 111.4 202.583 104.573Z"/>
</mask>
<path fill-rule="evenodd" clip-rule="evenodd" d="M202.583 104.573C197.575 103.784 192.429 101.722 187.655 98.339C182.106 94.4062 177.885 89.2725 175.246 83.7614C169.092 88.3732 160.997 90.7784 152.79 89.7809C137.757 87.9542 128.039 75.4055 131.083 61.7528C134.127 48.1 148.78 38.5132 163.813 40.34C172.062 41.3425 178.711 45.5738 182.529 51.4446C191.206 46.3994 203.685 47.3859 214.313 54.9176C225.802 63.0602 231.599 76.351 229.444 87.4799C235.277 89.2866 240.298 94.1255 242.909 101.353C247.708 114.634 242.551 130.953 231.392 137.8C220.232 144.648 207.295 139.432 202.496 126.151C199.982 119.192 200.2 111.4 202.583 104.573Z" fill="url(#paint24_linear_1006_6101)"/>
<path d="M187.655 98.339L187.223 98.9512L187.655 98.339ZM202.583 104.573L203.291 104.821L203.587 103.971L202.699 103.832L202.583 104.573ZM175.246 83.7614L175.922 83.4376L175.527 82.613L174.796 83.1607L175.246 83.7614ZM152.79 89.7809L152.879 89.0361L152.79 89.7809ZM131.083 61.7528L131.814 61.9167L131.083 61.7528ZM163.813 40.34L163.723 41.0848L163.723 41.0848L163.813 40.34ZM182.529 51.4446L181.901 51.8535L182.29 52.4517L182.906 52.0934L182.529 51.4446ZM214.313 54.9176L213.88 55.5298L214.313 54.9176ZM229.444 87.4799L228.708 87.3367L228.58 87.9976L229.223 88.1967L229.444 87.4799ZM242.909 101.353L243.614 101.098L242.909 101.353ZM231.392 137.8L231.784 138.44L231.392 137.8ZM202.496 126.151L201.791 126.405L202.496 126.151ZM187.223 98.9512C192.085 102.397 197.34 104.506 202.467 105.314L202.699 103.832C197.811 103.062 192.772 101.046 188.088 97.7267L187.223 98.9512ZM174.57 84.0853C177.264 89.712 181.569 94.9448 187.223 98.9512L188.088 97.7267C182.643 93.8675 178.506 88.8329 175.922 83.4376L174.57 84.0853ZM152.7 90.5258C161.108 91.5475 169.394 89.0845 175.696 84.3621L174.796 83.1607C168.79 87.6619 160.887 90.0092 152.879 89.0361L152.7 90.5258ZM130.351 61.5889C127.196 75.7375 137.293 88.6536 152.7 90.5258L152.879 89.0361C138.221 87.2548 128.881 75.0735 131.814 61.9167L130.351 61.5889ZM163.903 39.5952C148.537 37.7279 133.489 47.5133 130.351 61.5889L131.814 61.9167C134.764 48.6868 149.024 39.2985 163.723 41.0848L163.903 39.5952ZM183.157 51.0356C179.21 44.966 172.357 40.6225 163.903 39.5952L163.723 41.0848C171.768 42.0624 178.212 46.1816 181.901 51.8535L183.157 51.0356ZM214.746 54.3054C203.934 46.6434 191.137 45.5715 182.152 50.7957L182.906 52.0934C191.275 47.2273 203.436 48.1284 213.88 55.5298L214.746 54.3054ZM230.18 87.6231C232.401 76.1521 226.429 62.5851 214.746 54.3054L213.88 55.5298C225.176 63.5353 230.796 76.5498 228.708 87.3367L230.18 87.6231ZM229.223 88.1967C234.801 89.9244 239.662 94.5701 242.204 101.607L243.614 101.098C240.934 93.6809 235.753 88.6488 229.666 86.7632L229.223 88.1967ZM242.204 101.607C246.896 114.592 241.823 130.519 230.999 137.161L231.784 138.44C243.279 131.386 248.52 114.677 243.614 101.098L242.204 101.607ZM230.999 137.161C225.613 140.466 219.837 140.844 214.838 138.828C209.832 136.81 205.538 132.362 203.201 125.896L201.791 126.405C204.253 133.22 208.827 138.022 214.279 140.22C219.738 142.421 226.011 141.983 231.784 138.44L230.999 137.161ZM203.201 125.896C200.751 119.115 200.959 111.501 203.291 104.821L201.875 104.325C199.442 111.298 199.213 119.269 201.791 126.405L203.201 125.896Z" fill="#617AD4" mask="url(#path-26-inside-4_1006_6101)"/>
<path d="M213.698 118.509C205.856 135.969 185.317 143.737 167.822 135.857C150.328 127.976 142.505 107.433 150.347 89.9722C158.19 72.5119 178.729 64.7438 196.224 72.6243C213.718 80.5047 221.541 101.048 213.698 118.509Z" fill="url(#paint25_linear_1006_6101)" stroke="#617AD4" stroke-width="0.75"/>
<path d="M242.896 137.489L242.885 137.499L242.874 137.51C242.798 137.589 242.736 137.675 242.692 137.738L242.686 137.746C242.635 137.817 242.603 137.861 242.568 137.897C242.468 138.001 242.367 138.106 242.266 138.21C225.592 155.467 207.042 159.403 192.1 158.518C184.624 158.076 178.051 156.426 173.07 154.631C170.58 153.734 168.491 152.801 166.888 151.966C165.362 151.171 164.297 150.475 163.746 149.995C163.371 148.21 163.712 147.14 164.501 146.462C165.352 145.732 166.811 145.368 168.852 145.245C170.876 145.123 173.38 145.24 176.245 145.394C176.476 145.407 176.709 145.419 176.945 145.432C179.623 145.577 182.584 145.737 185.707 145.75C192.504 145.778 200.105 145.107 207.34 142.045C214.584 138.979 221.442 133.523 226.761 124.019C226.831 123.894 226.981 123.648 227.14 123.405C227.305 123.153 227.457 122.942 227.535 122.861L227.546 122.85L227.556 122.838C227.626 122.753 227.678 122.688 227.721 122.635C227.841 122.485 227.895 122.419 228.098 122.208C232.979 117.156 240.413 116.411 244.701 120.37C248.981 124.321 248.649 131.604 243.77 136.654C243.487 136.946 243.196 137.225 242.896 137.489Z" fill="url(#paint26_linear_1006_6101)" stroke="#617AD4" stroke-width="0.75"/>
<mask id="path-30-inside-5_1006_6101" fill="white">
<path fill-rule="evenodd" clip-rule="evenodd" d="M212.549 128.974C212.475 123.362 209.006 117.902 203.276 115.32C196.897 112.447 189.713 114.04 185.569 118.774C184.427 114.833 181.519 111.327 177.337 109.444C170.037 106.155 161.62 109.054 158.537 115.917C157.901 117.333 157.542 118.807 157.436 120.283C155.787 130.013 154.373 146.924 159.151 149.212C165.737 152.366 175.981 156.087 189.518 157.452C197.976 158.304 209.582 155.448 217 151.966C220.254 151.106 223.05 148.924 224.485 145.729C227.102 139.903 224.2 132.916 218.002 130.124C216.22 129.321 214.359 128.953 212.549 128.974Z"/>
</mask>
<path fill-rule="evenodd" clip-rule="evenodd" d="M212.549 128.974C212.475 123.362 209.006 117.902 203.276 115.32C196.897 112.447 189.713 114.04 185.569 118.774C184.427 114.833 181.519 111.327 177.337 109.444C170.037 106.155 161.62 109.054 158.537 115.917C157.901 117.333 157.542 118.807 157.436 120.283C155.787 130.013 154.373 146.924 159.151 149.212C165.737 152.366 175.981 156.087 189.518 157.452C197.976 158.304 209.582 155.448 217 151.966C220.254 151.106 223.05 148.924 224.485 145.729C227.102 139.903 224.2 132.916 218.002 130.124C216.22 129.321 214.359 128.953 212.549 128.974Z" fill="url(#paint27_linear_1006_6101)"/>
<path d="M212.549 128.974L211.8 128.984L211.81 129.733L212.559 129.724L212.549 128.974ZM203.276 115.32L202.968 116.004L203.276 115.32ZM185.569 118.774L184.849 118.982L185.231 120.299L186.133 119.268L185.569 118.774ZM177.337 109.444L177.644 108.759L177.337 109.444ZM158.537 115.917L157.853 115.609L158.537 115.917ZM157.436 120.283L158.175 120.409L158.181 120.374L158.184 120.338L157.436 120.283ZM159.151 149.212L159.474 148.535L159.151 149.212ZM189.518 157.452L189.444 158.198L189.518 157.452ZM217 151.966L216.808 151.241L216.742 151.258L216.681 151.287L217 151.966ZM224.485 145.729L225.169 146.037L224.485 145.729ZM218.002 130.124L217.695 130.809L218.002 130.124ZM213.299 128.965C213.221 123.052 209.571 117.333 203.583 114.636L202.968 116.004C208.441 118.47 211.73 123.673 211.8 128.984L213.299 128.965ZM203.583 114.636C196.92 111.635 189.377 113.284 185.005 118.279L186.133 119.268C190.048 114.796 196.874 113.259 202.968 116.004L203.583 114.636ZM186.289 118.565C185.086 114.412 182.027 110.733 177.644 108.759L177.03 110.128C181.011 111.921 183.768 115.253 184.849 118.982L186.289 118.565ZM177.644 108.759C170.007 105.319 161.123 108.328 157.853 115.609L159.221 116.225C162.116 109.779 170.067 106.991 177.03 110.128L177.644 108.759ZM157.853 115.609C157.18 117.107 156.8 118.667 156.688 120.229L158.184 120.338C158.283 118.947 158.622 117.559 159.221 116.225L157.853 115.609ZM156.697 120.158C155.868 125.048 155.096 131.754 155.134 137.543C155.153 140.433 155.374 143.133 155.908 145.276C156.43 147.368 157.307 149.161 158.827 149.889L159.474 148.535C158.606 148.12 157.868 146.94 157.363 144.914C156.87 142.938 156.652 140.374 156.633 137.534C156.596 131.862 157.355 125.248 158.175 120.409L156.697 120.158ZM158.827 149.889C165.479 153.075 175.808 156.824 189.444 158.198L189.593 156.705C176.155 155.351 165.994 151.658 159.474 148.535L158.827 149.889ZM189.444 158.198C198.075 159.069 209.82 156.165 217.318 152.646L216.681 151.287C209.345 154.73 197.877 157.54 189.593 156.705L189.444 158.198ZM223.801 145.421C222.467 148.392 219.863 150.434 216.808 151.241L217.192 152.692C220.646 151.779 223.633 149.455 225.169 146.037L223.801 145.421ZM217.695 130.809C223.555 133.448 226.231 140.012 223.801 145.421L225.169 146.037C227.973 139.793 224.844 132.384 218.309 129.44L217.695 130.809ZM212.559 129.724C214.26 129.705 216.013 130.051 217.695 130.809L218.309 129.44C216.426 128.592 214.457 128.202 212.54 128.224L212.559 129.724Z" fill="#617AD4" mask="url(#path-30-inside-5_1006_6101)"/>
<path fill-rule="evenodd" clip-rule="evenodd" d="M123.966 67.6094C124.231 66.734 124.557 65.8617 124.945 64.9989C128.482 57.1227 136.033 52.5802 143.016 53.5693C147.775 46.5982 156.007 43.4667 162.805 46.5288C170.612 50.0453 173.57 60.3986 169.414 69.6534C169.357 69.7793 169.299 69.9044 169.241 70.0286C169.91 70.1112 170.57 70.2919 171.205 70.5781C175.215 72.3845 176.733 77.7086 174.594 82.4698C174.11 83.5473 173.48 84.5037 172.749 85.3177C172.502 85.6622 172.234 86.0328 171.945 86.4302C168.572 91.079 162.546 99.3842 158.627 112.319C155.239 123.501 159.965 136.121 162.823 143.753C164.443 148.081 165.463 150.805 164.062 150.753C156.735 150.48 133.005 130.811 126.601 116.759C120.307 102.947 117.812 85.1704 123.966 67.6094Z" fill="url(#paint28_radial_1006_6101)"/>
<path d="M123.966 67.6094L124.319 67.7338L124.322 67.7263L124.324 67.7187L123.966 67.6094ZM124.945 64.9989L125.286 65.1529L124.945 64.9989ZM143.016 53.5693L142.964 53.9407L143.195 53.9734L143.326 53.781L143.016 53.5693ZM162.805 46.5288L162.651 46.8709L162.805 46.5288ZM169.414 69.6534L169.755 69.8074L169.755 69.8074L169.414 69.6534ZM169.241 70.0286L168.902 69.8682L168.681 70.3374L169.195 70.4009L169.241 70.0286ZM171.205 70.5781L171.359 70.236L171.359 70.236L171.205 70.5781ZM174.594 82.4698L174.936 82.6238L174.936 82.6238L174.594 82.4698ZM172.749 85.3177L172.47 85.0667L172.456 85.0822L172.444 85.0991L172.749 85.3177ZM171.945 86.4302L171.642 86.2096L171.945 86.4302ZM158.627 112.319L158.986 112.428L158.627 112.319ZM162.823 143.753L162.472 143.885L162.823 143.753ZM164.062 150.753L164.076 150.378L164.062 150.753ZM126.601 116.759L126.26 116.914L126.601 116.759ZM124.324 67.7187C124.585 66.8585 124.905 66.0012 125.286 65.1529L124.603 64.8449C124.209 65.7222 123.877 66.6095 123.607 67.5002L124.324 67.7187ZM125.286 65.1529C128.77 57.3974 136.178 52.9796 142.964 53.9407L143.069 53.1978C135.889 52.1809 128.195 56.8479 124.603 64.8449L125.286 65.1529ZM143.326 53.781C148.011 46.9185 156.061 43.9023 162.651 46.8709L162.959 46.1867C155.953 43.0311 147.54 46.278 142.707 53.3575L143.326 53.781ZM162.651 46.8709C170.217 50.2789 173.169 60.3768 169.072 69.4994L169.755 69.8074C173.972 60.4204 171.006 49.8118 162.959 46.1867L162.651 46.8709ZM169.072 69.4994C169.016 69.6232 168.959 69.7461 168.902 69.8682L169.58 70.1889C169.639 70.0626 169.698 69.9355 169.755 69.8074L169.072 69.4994ZM169.195 70.4009C169.828 70.479 170.451 70.6497 171.051 70.9201L171.359 70.236C170.688 69.934 169.992 69.7433 169.286 69.6563L169.195 70.4009ZM171.051 70.9201C174.82 72.6179 176.332 77.6863 174.252 82.3157L174.936 82.6238C177.134 77.7309 175.61 72.1511 171.359 70.236L171.051 70.9201ZM174.252 82.3157C173.784 83.3581 173.176 84.2817 172.47 85.0667L173.028 85.5686C173.785 84.7257 174.436 83.7366 174.936 82.6238L174.252 82.3157ZM172.444 85.0991C172.199 85.4424 171.93 85.812 171.642 86.2096L172.249 86.6508C172.537 86.2537 172.806 85.882 173.054 85.5362L172.444 85.0991ZM171.642 86.2096C168.263 90.8666 162.206 99.2131 158.268 112.21L158.986 112.428C162.886 99.5552 168.882 91.2914 172.249 86.6508L171.642 86.2096ZM158.268 112.21C156.549 117.883 156.893 123.902 158.015 129.442C159.137 134.982 161.043 140.071 162.472 143.885L163.174 143.622C161.744 139.804 159.858 134.767 158.75 129.293C157.641 123.819 157.317 117.937 158.986 112.428L158.268 112.21ZM162.472 143.885C163.286 146.06 163.935 147.795 164.21 148.981C164.351 149.584 164.377 149.979 164.323 150.202C164.299 150.302 164.266 150.334 164.251 150.345C164.236 150.357 164.192 150.383 164.076 150.378L164.049 151.128C164.283 151.137 164.513 151.089 164.704 150.944C164.895 150.8 165 150.594 165.052 150.378C165.15 149.97 165.083 149.423 164.941 148.811C164.651 147.566 163.98 145.774 163.174 143.622L162.472 143.885ZM164.076 150.378C163.229 150.347 162.107 150.031 160.761 149.446C159.42 148.865 157.884 148.029 156.217 146.985C152.883 144.896 149.046 141.985 145.232 138.641C137.595 131.944 130.11 123.556 126.942 116.603L126.26 116.914C129.495 124.014 137.078 132.487 144.738 139.205C148.574 142.569 152.444 145.506 155.82 147.621C157.507 148.678 159.078 149.534 160.463 150.135C161.841 150.733 163.064 151.091 164.049 151.128L164.076 150.378ZM126.942 116.603C120.681 102.864 118.203 85.1881 124.319 67.7338L123.612 67.4851C117.421 85.1526 119.933 103.031 126.26 116.914L126.942 116.603Z" fill="#617AD4"/>
<path d="M199.542 77.9451C206.617 80.5207 212.288 88.4212 212.246 95.5677C212.204 102.714 206.463 106.459 199.388 103.884C192.314 101.308 186.642 93.4078 186.685 86.2613C186.727 79.1148 192.468 75.3695 199.542 77.9451Z" fill="url(#paint29_linear_1006_6101)" stroke="#FF971D" stroke-width="0.75"/>
<path d="M201.008 78.782C206.883 80.921 211.589 87.4798 211.554 93.4078C211.519 99.3359 206.756 102.447 200.88 100.308C195.005 98.1693 190.3 91.6105 190.335 85.6825C190.37 79.7545 195.133 76.643 201.008 78.782Z" fill="url(#paint30_linear_1006_6101)" stroke="#FF971D" stroke-width="0.75"/>
<path d="M189.494 84.3519C190.057 86.1315 192.045 87.6362 193.939 87.705C195.834 87.7737 196.904 86.3798 196.341 84.6002C195.777 82.8207 193.79 81.3159 191.895 81.2471C190.001 81.1784 188.931 82.5723 189.494 84.3519Z" fill="white" stroke="#FF971D" stroke-width="0.75"/>
<mask id="path-37-inside-6_1006_6101" fill="white">
<path fill-rule="evenodd" clip-rule="evenodd" d="M76.4052 197.55C78.6175 194.672 80.2733 191.062 81.0829 186.951C82.0241 182.173 81.6823 177.426 80.3322 173.264C85.7985 172.625 91.1845 169.883 94.9508 165.318C101.846 156.962 100.702 145.662 92.3945 140.08C84.0871 134.498 71.7628 136.747 64.8673 145.103C61.0799 149.693 59.7181 155.171 60.6364 160.102C53.6457 161.759 47.6552 168.422 45.8536 177.57C43.9067 187.455 47.4496 197.204 54.0509 201.914C51.9118 205.728 51.6903 210.717 53.8985 215.756C57.9539 225.011 68.6685 230.934 77.8302 228.984C86.9918 227.035 91.1313 217.952 87.0759 208.697C84.9521 203.85 81.002 199.917 76.4052 197.55Z"/>
</mask>
<path fill-rule="evenodd" clip-rule="evenodd" d="M76.4052 197.55C78.6175 194.672 80.2733 191.062 81.0829 186.951C82.0241 182.173 81.6823 177.426 80.3322 173.264C85.7985 172.625 91.1845 169.883 94.9508 165.318C101.846 156.962 100.702 145.662 92.3945 140.08C84.0871 134.498 71.7628 136.747 64.8673 145.103C61.0799 149.693 59.7181 155.171 60.6364 160.102C53.6457 161.759 47.6552 168.422 45.8536 177.57C43.9067 187.455 47.4496 197.204 54.0509 201.914C51.9118 205.728 51.6903 210.717 53.8985 215.756C57.9539 225.011 68.6685 230.934 77.8302 228.984C86.9918 227.035 91.1313 217.952 87.0759 208.697C84.9521 203.85 81.002 199.917 76.4052 197.55Z" fill="url(#paint31_linear_1006_6101)"/>
<path d="M81.0829 186.951L81.8185 187.097L81.0829 186.951ZM76.4052 197.55L76.0626 198.217L75.2628 197.806L75.8107 197.093L76.4052 197.55ZM80.3322 173.264L79.6191 173.496L79.3368 172.625L80.2446 172.519L80.3322 173.264ZM94.9508 165.318L95.5291 165.796L95.5291 165.796L94.9508 165.318ZM92.3945 140.08L91.9768 140.703L92.3945 140.08ZM64.8673 145.103L65.4456 145.581L64.8673 145.103ZM60.6364 160.102L61.3734 159.965L61.5043 160.667L60.8098 160.832L60.6364 160.102ZM45.8536 177.57L45.1181 177.424L45.8536 177.57ZM54.0509 201.914L54.4858 201.304L55.034 201.695L54.7047 202.282L54.0509 201.914ZM53.8985 215.756L54.5851 215.455L53.8985 215.756ZM77.8302 228.984L77.6737 228.251L77.8302 228.984ZM87.0759 208.697L87.7624 208.396L87.0759 208.697ZM81.8185 187.097C80.9876 191.316 79.2858 195.033 76.9996 198.008L75.8107 197.093C77.9492 194.31 79.5589 190.809 80.3474 186.806L81.8185 187.097ZM81.0452 173.033C82.435 177.317 82.7843 182.193 81.8185 187.097L80.3474 186.806C81.2639 182.152 80.9296 177.535 79.6191 173.496L81.0452 173.033ZM95.5291 165.796C91.6343 170.516 86.0694 173.349 80.4198 174.01L80.2446 172.519C85.5277 171.901 90.7347 169.249 94.3726 164.84L95.5291 165.796ZM92.8121 139.457C101.541 145.323 102.664 157.149 95.5291 165.796L94.3726 164.84C101.028 156.774 99.8626 146.002 91.9768 140.703L92.8121 139.457ZM64.2891 144.625C71.3982 136.01 84.1451 133.633 92.8121 139.457L91.9768 140.703C84.0291 135.362 72.1274 137.484 65.4456 145.581L64.2891 144.625ZM59.8994 160.239C58.9376 155.075 60.3703 149.375 64.2891 144.625L65.4456 145.581C61.7895 150.012 60.4986 155.268 61.3734 159.965L59.8994 160.239ZM45.1181 177.424C46.9632 168.056 53.1255 161.111 60.4631 159.372L60.8098 160.832C54.1658 162.407 48.3473 168.789 46.5892 177.715L45.1181 177.424ZM53.6159 202.525C46.7311 197.612 43.1253 187.542 45.1181 177.424L46.5892 177.715C44.6882 187.368 48.1682 196.795 54.4858 201.304L53.6159 202.525ZM54.7047 202.282C52.6962 205.863 52.4579 210.601 54.5851 215.455L53.2119 216.057C50.9226 210.832 51.1274 205.593 53.397 201.547L54.7047 202.282ZM54.5851 215.455C58.5137 224.421 68.8977 230.118 77.6737 228.251L77.9866 229.718C68.4393 231.75 57.3942 225.602 53.2119 216.057L54.5851 215.455ZM77.6737 228.251C82.0328 227.323 85.157 224.714 86.7273 221.269C88.3008 217.816 88.3426 213.456 86.3893 208.998L87.7624 208.396C89.8645 213.193 89.8643 218.002 88.0916 221.892C86.3156 225.789 82.7892 228.696 77.9866 229.718L77.6737 228.251ZM86.3893 208.998C84.3414 204.324 80.5215 200.513 76.0626 198.217L76.7478 196.883C81.4826 199.321 85.5628 203.376 87.7624 208.396L86.3893 208.998Z" fill="#617AD4" mask="url(#path-37-inside-6_1006_6101)"/>
<path d="M77.5443 210.145C90.1618 215.314 104.581 209.246 109.749 196.59C114.917 183.934 108.876 169.486 96.2588 164.318C83.6413 159.149 69.2222 165.217 64.054 177.873C58.8859 190.528 64.9268 204.977 77.5443 210.145Z" fill="url(#paint32_linear_1006_6101)" stroke="#617AD4" stroke-width="0.75"/>
<path d="M71.6986 234.379L71.7141 234.378L71.7295 234.379C71.8158 234.383 71.8971 234.399 71.9506 234.409L71.9584 234.41C72.021 234.423 72.0522 234.428 72.0788 234.429L72.0789 234.429L72.3891 234.442C89.5064 235.172 101.04 228.087 108.337 220.283C111.988 216.378 114.579 212.292 116.274 208.914C117.122 207.225 117.744 205.716 118.162 204.498C118.552 203.362 118.758 202.5 118.812 201.987C118.145 200.92 117.478 200.575 116.794 200.609C116.031 200.647 115.118 201.157 114.001 202.097C112.896 203.026 111.66 204.317 110.248 205.81C110.134 205.93 110.02 206.052 109.904 206.174C108.587 207.569 107.128 209.113 105.512 210.662C101.995 214.03 97.7101 217.439 92.4287 219.424C87.1383 221.413 80.8684 221.965 73.4029 219.65C73.3077 219.621 73.1116 219.568 72.9112 219.521C72.699 219.471 72.5267 219.439 72.4582 219.436L72.4427 219.435L72.4273 219.434C72.3467 219.424 72.2874 219.416 72.2385 219.409C72.1039 219.391 72.0482 219.383 71.844 219.375C66.8643 219.162 62.7052 222.412 62.4368 226.505C62.169 230.587 65.8653 234.164 70.8423 234.377C71.1304 234.389 71.416 234.389 71.6986 234.379Z" fill="url(#paint33_linear_1006_6101)" stroke="#617AD4" stroke-width="0.75"/>
<mask id="path-41-inside-7_1006_6101" fill="white">
<path fill-rule="evenodd" clip-rule="evenodd" d="M83.2509 215.111C80.5234 212.163 79.6313 207.621 81.3315 203.458C83.2247 198.822 87.7395 196.106 92.2238 196.523C90.8698 193.914 90.6488 190.659 91.8908 187.617C94.0566 182.314 99.8508 179.669 104.833 181.709C105.873 182.135 106.795 182.732 107.584 183.458C113.238 187.7 122.266 195.749 120.919 199.283C119.057 204.166 115.576 211.146 109.226 218.527C105.267 223.129 97.8605 227.36 92.3002 229.217C90.1821 230.389 87.6431 230.642 85.3135 229.688C81.0844 227.955 79.1465 222.901 80.985 218.399C81.5147 217.102 82.3001 215.992 83.2509 215.111Z"/>
</mask>
<path fill-rule="evenodd" clip-rule="evenodd" d="M83.2509 215.111C80.5234 212.163 79.6313 207.621 81.3315 203.458C83.2247 198.822 87.7395 196.106 92.2238 196.523C90.8698 193.914 90.6488 190.659 91.8908 187.617C94.0566 182.314 99.8508 179.669 104.833 181.709C105.873 182.135 106.795 182.732 107.584 183.458C113.238 187.7 122.266 195.749 120.919 199.283C119.057 204.166 115.576 211.146 109.226 218.527C105.267 223.129 97.8605 227.36 92.3002 229.217C90.1821 230.389 87.6431 230.642 85.3135 229.688C81.0844 227.955 79.1465 222.901 80.985 218.399C81.5147 217.102 82.3001 215.992 83.2509 215.111Z" fill="url(#paint34_linear_1006_6101)"/>
<path d="M83.2509 215.111L83.8008 214.601L84.3104 215.152L83.7606 215.661L83.2509 215.111ZM81.3315 203.458L80.6374 203.173L81.3315 203.458ZM92.2238 196.523L92.8891 196.177L93.5221 197.397L92.1551 197.27L92.2238 196.523ZM91.8908 187.617L91.1968 187.333L91.8908 187.617ZM104.833 181.709L104.549 182.404L104.833 181.709ZM107.584 183.458L107.135 184.058L107.105 184.036L107.077 184.01L107.584 183.458ZM120.919 199.283L121.619 199.551L121.619 199.551L120.919 199.283ZM109.226 218.527L109.795 219.017L109.226 218.527ZM92.3002 229.217L91.937 228.56L91.9971 228.527L92.0624 228.505L92.3002 229.217ZM85.3135 229.688L85.597 228.993L85.597 228.993L85.3135 229.688ZM80.985 218.399L81.6791 218.683L80.985 218.399ZM82.7011 215.62C79.7691 212.452 78.8305 207.598 80.6374 203.173L82.0255 203.742C80.4321 207.644 81.2777 211.875 83.8008 214.601L82.7011 215.62ZM80.6374 203.173C82.6486 198.248 87.4624 195.327 92.2925 195.776L92.1551 197.27C88.0166 196.885 83.8007 199.395 82.0255 203.742L80.6374 203.173ZM91.5586 196.868C90.1029 194.064 89.8716 190.578 91.1968 187.333L92.5849 187.902C91.426 190.739 91.6366 193.764 92.8891 196.177L91.5586 196.868ZM91.1968 187.333C93.5023 181.687 99.711 178.801 105.116 181.015L104.549 182.404C99.9906 180.536 94.6109 182.94 92.5849 187.902L91.1968 187.333ZM105.116 181.015C106.24 181.476 107.238 182.121 108.092 182.906L107.077 184.01C106.352 183.343 105.505 182.795 104.549 182.404L105.116 181.015ZM108.034 182.858C110.882 184.995 114.589 188.096 117.424 191.123C118.839 192.634 120.063 194.154 120.851 195.547C121.613 196.894 122.085 198.33 121.619 199.551L120.218 199.015C120.426 198.469 120.275 197.573 119.546 196.285C118.844 195.043 117.711 193.623 116.33 192.149C113.575 189.207 109.941 186.164 107.135 184.058L108.034 182.858ZM121.619 199.551C119.731 204.502 116.209 211.561 109.795 219.017L108.658 218.037C114.943 210.732 118.382 203.83 120.218 199.015L121.619 199.551ZM109.795 219.017C105.721 223.751 98.1829 228.044 92.5379 229.929L92.0624 228.505C97.5381 226.677 104.813 222.507 108.658 218.037L109.795 219.017ZM85.597 228.993C87.6987 229.854 90.0002 229.632 91.937 228.56L92.6634 229.873C90.364 231.146 87.5875 231.43 85.0299 230.382L85.597 228.993ZM81.6791 218.683C79.9802 222.843 81.7912 227.434 85.597 228.993L85.0299 230.382C80.3775 228.476 78.3127 222.959 80.291 218.114L81.6791 218.683ZM83.7606 215.661C82.8891 216.469 82.167 217.488 81.6791 218.683L80.291 218.114C80.8624 216.715 81.7111 215.515 82.7413 214.56L83.7606 215.661Z" fill="#617AD4" mask="url(#path-41-inside-7_1006_6101)"/>
<path fill-rule="evenodd" clip-rule="evenodd" d="M99.0958 139.677C98.4895 139.325 97.849 139.009 97.1769 138.734C91.4583 136.391 85.3008 137.759 82.1676 141.716C76.2661 140.449 70.4564 142.882 68.4405 147.818C66.1246 153.49 69.6923 160.317 76.4092 163.069C76.5002 163.106 76.5913 163.142 76.6825 163.178C76.3744 163.552 76.12 163.972 75.9307 164.436C74.741 167.349 76.5779 170.858 80.0334 172.273C80.83 172.6 81.6432 172.786 82.4375 172.844C82.7206 172.899 83.0255 172.955 83.351 173.015C87.3915 173.764 94.6101 175.102 103.018 179.879C110.286 184.009 114.055 192.884 116.334 198.251C117.626 201.294 118.44 203.21 119.14 202.492C122.806 198.74 125.421 176.843 121.817 166.398C118.288 156.172 110.864 145.762 99.0958 139.677Z" fill="url(#paint35_radial_1006_6101)"/>
<path d="M99.0958 139.677L98.924 140.01L98.9159 140.006L98.908 140.001L99.0958 139.677ZM97.1769 138.734L97.3186 138.386L97.1769 138.734ZM82.1676 141.716L82.4615 141.949L82.317 142.132L82.0892 142.083L82.1676 141.716ZM68.4405 147.818L68.0934 147.676L68.4405 147.818ZM76.4092 163.069L76.2674 163.416L76.2674 163.416L76.4092 163.069ZM76.6825 163.178L76.8178 162.828L77.302 163.016L76.9717 163.417L76.6825 163.178ZM75.9307 164.436L75.5837 164.293L75.9307 164.436ZM80.0334 172.273L80.1752 171.926L80.1752 171.926L80.0334 172.273ZM82.4375 172.844L82.4645 172.47L82.4862 172.472L82.5076 172.476L82.4375 172.844ZM83.351 173.015L83.283 173.384L83.351 173.015ZM103.018 179.879L103.202 179.553L103.018 179.879ZM116.334 198.251L115.989 198.398L116.334 198.251ZM119.14 202.492L118.872 202.23L119.14 202.492ZM121.817 166.398L121.462 166.52L121.817 166.398ZM98.908 140.001C98.3165 139.658 97.6913 139.35 97.0351 139.081L97.3186 138.386C98.0066 138.668 98.6625 138.992 99.2836 139.352L98.908 140.001ZM97.0351 139.081C91.4391 136.788 85.4712 138.148 82.4615 141.949L81.8737 141.483C85.1305 137.369 91.4776 135.994 97.3186 138.386L97.0351 139.081ZM82.0892 142.083C76.3161 140.843 70.7174 143.235 68.7875 147.961L68.0934 147.676C70.1954 142.529 76.2161 140.055 82.246 141.35L82.0892 142.083ZM68.7875 147.961C66.5715 153.387 69.9682 160.025 76.551 162.722L76.2674 163.416C69.4164 160.61 65.6777 153.592 68.0934 147.676L68.7875 147.961ZM76.551 162.722C76.6398 162.758 76.7288 162.794 76.8178 162.828L76.5472 163.528C76.4538 163.491 76.3606 163.454 76.2674 163.416L76.551 162.722ZM76.9717 163.417C76.6872 163.762 76.4524 164.15 76.2777 164.578L75.5837 164.293C75.7875 163.794 76.0617 163.341 76.3932 162.939L76.9717 163.417ZM76.2777 164.578C75.1881 167.246 76.8533 170.565 80.1752 171.926L79.8916 172.621C76.3025 171.15 74.2939 167.452 75.5837 164.293L76.2777 164.578ZM80.1752 171.926C80.9354 172.238 81.7098 172.415 82.4645 172.47L82.4104 173.219C81.5765 173.157 80.7247 172.962 79.8916 172.621L80.1752 171.926ZM82.5076 172.476C82.7895 172.53 83.0932 172.586 83.419 172.647L83.283 173.384C82.9578 173.324 82.6518 173.267 82.3674 173.213L82.5076 172.476ZM83.419 172.647C87.4694 173.397 94.7387 174.744 103.202 179.553L102.833 180.205C94.4815 175.46 87.3136 174.131 83.283 173.384L83.419 172.647ZM103.202 179.553C106.911 181.66 109.711 184.968 111.864 188.402C114.018 191.836 115.54 195.423 116.679 198.105L115.989 198.398C114.848 195.712 113.347 192.178 111.229 188.8C109.111 185.423 106.392 182.228 102.833 180.205L103.202 179.553ZM116.679 198.105C117.33 199.638 117.845 200.849 118.282 201.592C118.506 201.973 118.677 202.171 118.791 202.245C118.839 202.276 118.847 202.266 118.829 202.268C118.812 202.27 118.826 202.278 118.872 202.23L119.409 202.755C119.28 202.887 119.115 202.991 118.914 203.014C118.712 203.037 118.532 202.971 118.384 202.875C118.109 202.697 117.864 202.361 117.636 201.972C117.168 201.176 116.63 199.908 115.989 198.398L116.679 198.105ZM118.872 202.23C119.282 201.81 119.702 201.108 120.111 200.146C120.516 199.19 120.9 198.005 121.249 196.645C121.947 193.925 122.502 190.53 122.832 186.92C123.491 179.687 123.238 171.666 121.462 166.52L122.171 166.276C124 171.575 124.241 179.725 123.578 186.989C123.246 190.629 122.685 194.064 121.975 196.832C121.62 198.216 121.226 199.439 120.801 200.439C120.379 201.434 119.915 202.236 119.409 202.755L118.872 202.23ZM121.462 166.52C117.959 156.369 110.592 146.044 98.924 140.01L99.2677 139.343C111.136 145.481 118.616 155.975 122.171 166.276L121.462 166.52Z" fill="#617AD4"/>
<path d="M64.9341 182.309C62.5588 187.083 63.5043 193.899 67.0041 197.539C70.5039 201.18 75.2737 200.309 77.649 195.534C80.0244 190.76 79.0789 183.944 75.5791 180.304C72.0792 176.663 67.3095 177.534 64.9341 182.309Z" fill="url(#paint36_linear_1006_6101)" stroke="#FF971D" stroke-width="0.75"/>
<path d="M64.587 183.466C62.6184 187.423 63.4038 193.066 66.2994 196.078C69.1949 199.09 73.1452 198.373 75.1138 194.416C77.0824 190.459 76.297 184.815 73.4014 181.804C70.5058 178.792 66.5556 179.509 64.587 183.466Z" fill="url(#paint37_linear_1006_6101)" stroke="#FF971D" stroke-width="0.75"/>
<path d="M71.9254 192.953C71.0882 194.038 71.0129 195.87 71.7673 197.046C72.5218 198.222 73.8126 198.285 74.6497 197.2C75.4869 196.115 75.5623 194.282 74.8078 193.106C74.0534 191.93 72.7626 191.868 71.9254 192.953Z" fill="white" stroke="#FF971D" stroke-width="0.75"/>
<path d="M245.92 351.408C234.951 363.116 230.439 379.88 229.4 390.21" stroke="url(#paint38_linear_1006_6101)" stroke-width="0.75"/>
<path d="M240.199 358.586C245.894 348.652 250.257 330.926 251.153 323.805L267.061 349.431C258.31 345.266 244.159 353.711 240.199 358.586Z" fill="url(#paint39_linear_1006_6101)" stroke="#4B752E" stroke-width="0.75"/>
<mask id="path-50-inside-8_1006_6101" fill="white">
<path fill-rule="evenodd" clip-rule="evenodd" d="M290.12 326.967C287.338 325.673 284.721 323.593 282.578 320.782C280.088 317.516 278.608 313.748 278.129 310.015C273.638 311.766 268.437 311.878 263.826 309.933C255.385 306.373 252.12 297.269 256.535 289.598C260.95 281.927 271.372 278.594 279.813 282.155C284.449 284.11 287.524 287.738 288.622 291.882C294.674 290.285 301.787 292.922 306.554 299.174C311.706 305.932 312.532 314.837 309.123 321.143C312.192 323.179 314.2 326.9 314.333 331.656C314.579 340.388 308.414 349.303 300.565 351.569C292.715 353.834 286.152 348.592 285.907 339.859C285.778 335.284 287.409 330.659 290.12 326.967Z"/>
</mask>
<path fill-rule="evenodd" clip-rule="evenodd" d="M290.12 326.967C287.338 325.673 284.721 323.593 282.578 320.782C280.088 317.516 278.608 313.748 278.129 310.015C273.638 311.766 268.437 311.878 263.826 309.933C255.385 306.373 252.12 297.269 256.535 289.598C260.95 281.927 271.372 278.594 279.813 282.155C284.449 284.11 287.524 287.738 288.622 291.882C294.674 290.285 301.787 292.922 306.554 299.174C311.706 305.932 312.532 314.837 309.123 321.143C312.192 323.179 314.2 326.9 314.333 331.656C314.579 340.388 308.414 349.303 300.565 351.569C292.715 353.834 286.152 348.592 285.907 339.859C285.778 335.284 287.409 330.659 290.12 326.967Z" fill="url(#paint40_linear_1006_6101)"/>
<path d="M282.578 320.782L283.174 320.327L282.578 320.782ZM290.12 326.967L290.724 327.411L291.266 326.672L290.436 326.286L290.12 326.967ZM278.129 310.015L278.872 309.919L278.75 308.967L277.857 309.315L278.129 310.015ZM263.826 309.933L264.117 309.242L263.826 309.933ZM279.813 282.155L279.522 282.846L279.813 282.155ZM288.622 291.882L287.898 292.075L288.09 292.799L288.814 292.608L288.622 291.882ZM306.554 299.174L307.15 298.719L306.554 299.174ZM309.123 321.143L308.464 320.785L308.138 321.389L308.709 321.768L309.123 321.143ZM314.333 331.656L313.584 331.677L314.333 331.656ZM300.565 351.569L300.772 352.29L300.565 351.569ZM285.907 339.859L285.158 339.88L285.907 339.859ZM281.982 321.237C284.195 324.14 286.907 326.3 289.804 327.647L290.436 326.286C287.769 325.046 285.246 323.046 283.174 320.327L281.982 321.237ZM277.385 310.11C277.881 313.972 279.41 317.864 281.982 321.237L283.174 320.327C280.765 317.167 279.335 313.524 278.872 309.919L277.385 310.11ZM263.535 310.625C268.34 312.651 273.744 312.53 278.401 310.714L277.857 309.315C273.532 311.002 268.533 311.104 264.117 309.242L263.535 310.625ZM255.885 289.223C251.231 297.311 254.706 306.901 263.535 310.625L264.117 309.242C256.063 305.845 253.01 297.226 257.184 289.972L255.885 289.223ZM280.104 281.463C271.333 277.764 260.499 281.206 255.885 289.223L257.184 289.972C261.4 282.647 271.41 279.425 279.522 282.846L280.104 281.463ZM289.347 291.69C288.186 287.308 284.942 283.503 280.104 281.463L279.522 282.846C283.957 284.717 286.862 288.168 287.898 292.075L289.347 291.69ZM307.15 298.719C302.235 292.272 294.828 289.468 288.431 291.157L288.814 292.608C294.52 291.101 301.34 293.573 305.958 299.63L307.15 298.719ZM309.783 321.5C313.349 314.902 312.457 305.681 307.15 298.719L305.958 299.63C310.954 306.184 311.715 314.772 308.464 320.785L309.783 321.5ZM308.709 321.768C311.541 323.647 313.456 327.122 313.584 331.677L315.083 331.635C314.943 326.678 312.843 322.711 309.538 320.517L308.709 321.768ZM313.584 331.677C313.821 340.1 307.848 348.686 300.357 350.848L300.772 352.29C308.981 349.921 315.337 340.676 315.083 331.635L313.584 331.677ZM300.357 350.848C296.645 351.919 293.298 351.206 290.852 349.251C288.399 347.292 286.774 344.02 286.656 339.838L285.158 339.88C285.286 344.431 287.065 348.146 289.917 350.425C292.775 352.708 296.635 353.484 300.772 352.29L300.357 350.848ZM286.656 339.838C286.533 335.45 288.1 330.986 290.724 327.411L289.516 326.522C286.719 330.333 285.024 335.118 285.158 339.88L286.656 339.838Z" fill="#617AD4" mask="url(#path-50-inside-8_1006_6101)"/>
<path d="M296.456 332.019C289.543 342.508 275.423 345.388 264.919 338.448C254.415 331.509 251.507 317.38 258.421 306.89C265.335 296.401 279.454 293.521 289.958 300.46C300.462 307.4 303.37 321.529 296.456 332.019Z" fill="url(#paint41_linear_1006_6101)" stroke="#617AD4" stroke-width="0.75"/>
<path d="M306.923 349.797L306.908 349.804L306.894 349.812C306.821 349.854 306.759 349.904 306.72 349.935L306.714 349.94C306.667 349.977 306.647 349.992 306.63 350.002L306.63 350.002L306.38 350.143C292.631 357.932 279.902 356.583 270.319 352.835C265.524 350.959 261.518 348.482 258.572 346.249C255.717 344.084 253.889 342.171 253.292 341.275C253.347 340.069 253.733 339.518 254.279 339.278C254.905 339.003 255.875 339.063 257.227 339.419C258.558 339.77 260.165 340.38 262.009 341.093C262.148 341.146 262.288 341.201 262.43 341.255C264.159 341.925 266.076 342.667 268.126 343.345C272.561 344.813 277.652 345.996 282.912 345.521C288.184 345.044 293.606 342.904 298.693 337.766C298.757 337.702 298.893 337.574 299.035 337.45C299.188 337.317 299.311 337.221 299.361 337.193L299.375 337.185L299.389 337.176C299.452 337.133 299.497 337.101 299.534 337.075C299.636 337.003 299.677 336.975 299.839 336.883C303.815 334.63 308.747 335.682 310.876 339.13C312.997 342.566 311.595 347.19 307.624 349.439C307.394 349.569 307.16 349.689 306.923 349.797Z" fill="url(#paint42_linear_1006_6101)" stroke="#617AD4" stroke-width="0.75"/>
<path d="M287.588 309.224C291.574 311.113 293.541 316.005 291.979 320.152C290.417 324.299 285.918 326.126 281.933 324.237C277.947 322.348 275.98 317.456 277.542 313.309C279.104 309.162 283.603 307.335 287.588 309.224Z" fill="url(#paint43_linear_1006_6101)" stroke="#FF971D" stroke-width="0.75"/>
<path d="M285.795 314.431C287.67 314.733 289.071 316.52 288.922 318.424C288.773 320.328 287.131 321.625 285.257 321.323C283.382 321.021 281.981 319.234 282.13 317.329C282.279 315.425 283.921 314.129 285.795 314.431Z" fill="url(#paint44_linear_1006_6101)" stroke="#FF971D" stroke-width="0.75"/>
<mask id="path-56-inside-9_1006_6101" fill="white">
<path fill-rule="evenodd" clip-rule="evenodd" d="M292.528 324.671C293.014 319.626 290.45 314.708 285.788 312.621C281.452 310.681 276.504 311.728 273.073 314.883C272.16 313.333 270.829 312.078 269.142 311.323C264.295 309.153 258.341 311.927 255.845 317.518C255.325 318.684 254.996 319.879 254.845 321.061C253.182 328.837 251.299 342.213 254.459 343.738C258.823 345.844 265.675 348.184 274.923 348.475C280.691 348.656 288.82 345.74 294.118 342.571C296.417 341.708 298.472 339.82 299.638 337.208C301.757 332.461 300.139 327.121 296.024 325.279C294.902 324.777 293.711 324.586 292.528 324.671Z"/>
</mask>
<path fill-rule="evenodd" clip-rule="evenodd" d="M292.528 324.671C293.014 319.626 290.45 314.708 285.788 312.621C281.452 310.681 276.504 311.728 273.073 314.883C272.16 313.333 270.829 312.078 269.142 311.323C264.295 309.153 258.341 311.927 255.845 317.518C255.325 318.684 254.996 319.879 254.845 321.061C253.182 328.837 251.299 342.213 254.459 343.738C258.823 345.844 265.675 348.184 274.923 348.475C280.691 348.656 288.82 345.74 294.118 342.571C296.417 341.708 298.472 339.82 299.638 337.208C301.757 332.461 300.139 327.121 296.024 325.279C294.902 324.777 293.711 324.586 292.528 324.671Z" fill="url(#paint45_linear_1006_6101)"/>
<path d="M292.528 324.671L291.782 324.599L291.697 325.484L292.582 325.42L292.528 324.671ZM285.788 312.621L285.483 313.306L285.788 312.621ZM273.073 314.883L272.427 315.264L272.898 316.063L273.58 315.436L273.073 314.883ZM269.142 311.323L268.836 312.008L269.142 311.323ZM255.845 317.518L256.529 317.825L255.845 317.518ZM254.845 321.061L255.578 321.219L255.584 321.188L255.588 321.157L254.845 321.061ZM254.459 343.738L254.134 344.414L254.459 343.738ZM274.923 348.475L274.946 347.725L274.923 348.475ZM294.118 342.571L293.855 341.868L293.792 341.892L293.734 341.926L294.118 342.571ZM299.638 337.208L298.954 336.902L299.638 337.208ZM296.024 325.279L295.718 325.964L296.024 325.279ZM293.274 324.744C293.788 319.408 291.078 314.167 286.094 311.936L285.483 313.306C289.823 315.249 292.24 319.843 291.782 324.599L293.274 324.744ZM286.094 311.936C281.46 309.862 276.196 310.992 272.566 314.33L273.58 315.436C276.812 312.463 281.445 311.499 285.483 313.306L286.094 311.936ZM273.719 314.502C272.733 312.828 271.288 311.461 269.448 310.638L268.836 312.008C270.371 312.695 271.587 313.837 272.427 315.264L273.719 314.502ZM269.448 310.638C264.135 308.26 257.784 311.337 255.161 317.212L256.529 317.825C258.899 312.517 264.454 310.047 268.836 312.008L269.448 310.638ZM255.161 317.212C254.611 318.444 254.262 319.711 254.101 320.966L255.588 321.157C255.73 320.047 256.039 318.923 256.529 317.825L255.161 317.212ZM254.112 320.904C253.276 324.813 252.382 330.14 252.095 334.696C251.952 336.97 251.958 339.09 252.211 340.758C252.338 341.591 252.532 342.347 252.822 342.964C253.111 343.579 253.527 344.122 254.134 344.414L254.785 343.062C254.601 342.974 254.385 342.765 254.179 342.325C253.973 341.889 253.809 341.289 253.694 340.532C253.464 339.02 253.451 337.024 253.591 334.791C253.872 330.334 254.751 325.085 255.578 321.219L254.112 320.904ZM254.134 344.414C258.58 346.559 265.534 348.93 274.899 349.225L274.946 347.725C265.816 347.438 259.066 345.128 254.785 343.062L254.134 344.414ZM274.899 349.225C277.903 349.319 281.469 348.61 284.927 347.494C288.392 346.375 291.802 344.831 294.503 343.215L293.734 341.926C291.137 343.48 287.832 344.979 284.467 346.065C281.093 347.154 277.711 347.812 274.946 347.725L274.899 349.225ZM298.954 336.902C297.866 339.339 295.958 341.079 293.855 341.868L294.382 343.273C296.876 342.337 299.078 340.301 300.323 337.514L298.954 336.902ZM295.718 325.964C299.368 327.597 300.946 332.439 298.954 336.902L300.323 337.514C302.568 332.484 300.911 326.644 296.33 324.594L295.718 325.964ZM292.582 325.42C293.648 325.343 294.715 325.515 295.718 325.964L296.33 324.594C295.09 324.039 293.774 323.83 292.474 323.923L292.582 325.42Z" fill="#617AD4" mask="url(#path-56-inside-9_1006_6101)"/>
<path fill-rule="evenodd" clip-rule="evenodd" d="M267.542 280.354C272.151 278.082 277.353 278.667 280.661 281.516C285.635 280.61 290.735 282.817 293.122 287.337C295.719 292.252 294.252 298.282 289.924 301.826C290.348 302.739 290.579 303.787 290.554 304.898C290.487 307.874 288.611 310.322 286.16 310.891C285.676 311.147 284.864 311.39 283.769 311.718C280.477 312.702 274.62 314.455 267.336 319.651C259.654 325.132 255.812 336.332 254.317 340.69C253.897 341.914 253.662 342.599 253.58 342.465C242.073 323.902 244.664 312.041 246.273 304.677L246.275 304.665C247.884 297.303 255.46 287.646 266.103 280.985C266.581 280.686 267.061 280.478 267.542 280.354Z" fill="url(#paint46_radial_1006_6101)"/>
<path d="M267.542 280.354L267.636 280.717L267.673 280.707L267.708 280.69L267.542 280.354ZM280.661 281.516L280.417 281.8L280.552 281.917L280.728 281.885L280.661 281.516ZM293.122 287.337L292.791 287.512L293.122 287.337ZM289.924 301.826L289.687 301.535L289.461 301.72L289.584 301.984L289.924 301.826ZM290.554 304.898L290.179 304.889L290.554 304.898ZM286.16 310.891L286.076 310.525L286.028 310.536L285.985 310.559L286.16 310.891ZM283.769 311.718L283.662 311.358L283.662 311.358L283.769 311.718ZM267.336 319.651L267.554 319.957L267.336 319.651ZM254.317 340.69L253.963 340.568L254.317 340.69ZM253.58 342.465L253.261 342.663L253.261 342.663L253.58 342.465ZM246.273 304.677L246.639 304.758L246.639 304.758L246.273 304.677ZM246.275 304.665L245.909 304.585L245.909 304.585L246.275 304.665ZM266.103 280.985L266.302 281.303L266.302 281.303L266.103 280.985ZM267.708 280.69C272.199 278.477 277.237 279.061 280.417 281.8L280.905 281.231C277.47 278.272 272.102 277.688 267.377 280.017L267.708 280.69ZM280.728 281.885C285.556 281.005 290.487 283.15 292.791 287.512L293.454 287.161C290.983 282.484 285.714 280.214 280.594 281.147L280.728 281.885ZM292.791 287.512C295.297 292.256 293.889 298.094 289.687 301.535L290.161 302.116C294.615 298.469 296.141 292.249 293.454 287.161L292.791 287.512ZM289.584 301.984C289.984 302.845 290.203 303.836 290.179 304.889L290.929 304.906C290.955 303.739 290.712 302.633 290.264 301.668L289.584 301.984ZM290.179 304.889C290.116 307.722 288.334 310.001 286.076 310.525L286.245 311.256C288.888 310.643 290.859 308.025 290.929 304.906L290.179 304.889ZM285.985 310.559C285.542 310.794 284.776 311.025 283.662 311.358L283.876 312.077C284.953 311.755 285.81 311.501 286.336 311.223L285.985 310.559ZM283.662 311.358C280.356 312.347 274.452 314.114 267.119 319.345L267.554 319.957C274.788 314.796 280.599 313.057 283.876 312.077L283.662 311.358ZM267.119 319.345C263.209 322.135 260.294 326.364 258.175 330.417C256.052 334.475 254.71 338.388 253.963 340.568L254.672 340.812C255.419 338.634 256.745 334.768 258.839 330.766C260.934 326.759 263.782 322.648 267.554 319.957L267.119 319.345ZM253.963 340.568C253.751 341.185 253.591 341.651 253.473 341.949C253.412 342.103 253.373 342.185 253.353 342.218C253.334 342.248 253.359 342.191 253.437 342.148C253.491 342.119 253.591 342.085 253.71 342.123C253.821 342.158 253.877 342.233 253.898 342.267L253.261 342.663C253.292 342.713 253.36 342.799 253.484 342.838C253.615 342.88 253.73 342.844 253.798 342.806C253.907 342.747 253.968 342.649 253.989 342.615C254.049 342.518 254.11 342.378 254.17 342.225C254.296 341.907 254.463 341.42 254.672 340.812L253.963 340.568ZM253.898 342.267C248.171 333.029 245.964 325.478 245.381 319.336C244.798 313.192 245.835 308.435 246.639 304.758L245.907 304.597C245.101 308.283 244.039 313.138 244.635 319.407C245.23 325.677 247.481 333.338 253.261 342.663L253.898 342.267ZM246.639 304.758L246.642 304.745L245.909 304.585L245.907 304.597L246.639 304.758ZM246.642 304.745C247.429 301.142 249.688 296.94 253.091 292.801C256.49 288.665 261.014 284.613 266.302 281.303L265.905 280.667C260.549 284.019 255.964 288.125 252.512 292.324C249.064 296.518 246.73 300.826 245.909 304.585L246.642 304.745ZM266.302 281.303C266.75 281.023 267.195 280.831 267.636 280.717L267.448 279.991C266.927 280.126 266.412 280.35 265.905 280.667L266.302 281.303Z" fill="#617AD4"/>
<path d="M251.849 281.01L251.839 281.023L251.828 281.035C251.772 281.098 251.71 281.148 251.671 281.18L251.665 281.185C251.619 281.223 251.6 281.239 251.587 281.254L251.587 281.254L251.396 281.468C240.911 293.257 240.667 307.352 243.16 318.524C244.406 324.108 246.334 328.949 247.996 332.381C248.827 334.096 249.59 335.457 250.165 336.379C250.238 336.496 250.308 336.606 250.374 336.708C250.37 336.691 250.365 336.675 250.361 336.658C250.282 336.357 250.187 336.006 250.079 335.611C249.875 334.862 249.629 333.956 249.372 332.932C248.585 329.79 247.682 325.453 247.502 320.636C247.141 310.996 249.68 299.39 261.861 291.602C261.937 291.553 262.09 291.447 262.241 291.333C262.403 291.212 262.523 291.112 262.561 291.069L262.572 291.056L262.584 291.045C262.639 290.993 262.68 290.955 262.713 290.924C262.804 290.84 262.841 290.806 262.965 290.667C266.003 287.251 266.017 282.203 263.098 279.392C260.191 276.592 255.38 276.989 252.347 280.4C252.17 280.598 252.004 280.801 251.849 281.01Z" fill="url(#paint47_linear_1006_6101)" stroke="#617AD4" stroke-width="0.75"/>
<defs>
<linearGradient id="paint0_linear_1006_6101" x1="145.065" y1="206.504" x2="152.463" y2="252.312" gradientUnits="userSpaceOnUse">
<stop stop-color="#426D26"/>
<stop offset="1" stop-color="#70964D"/>
</linearGradient>
<linearGradient id="paint1_linear_1006_6101" x1="154.908" y1="301.134" x2="194.168" y2="302.788" gradientUnits="userSpaceOnUse">
<stop stop-color="#98C463"/>
<stop offset="1" stop-color="#225131"/>
</linearGradient>
<linearGradient id="paint2_linear_1006_6101" x1="136.046" y1="315.561" x2="229.871" y2="311.904" gradientUnits="userSpaceOnUse">
<stop stop-color="#5D65AE"/>
<stop offset="1" stop-color="#E4FF98" stop-opacity="0"/>
</linearGradient>
<linearGradient id="paint3_linear_1006_6101" x1="144.241" y1="306.749" x2="192.232" y2="294.111" gradientUnits="userSpaceOnUse">
<stop stop-color="#E4FF98"/>
<stop offset="1" stop-color="#E4FF98" stop-opacity="0"/>
</linearGradient>
<linearGradient id="paint4_linear_1006_6101" x1="180.285" y1="411.931" x2="226.04" y2="437.361" gradientUnits="userSpaceOnUse">
<stop stop-color="#98C463"/>
<stop offset="1" stop-color="#225131"/>
</linearGradient>
<linearGradient id="paint5_linear_1006_6101" x1="149.223" y1="417.807" x2="263.118" y2="469.506" gradientUnits="userSpaceOnUse">
<stop stop-color="#5D65AE"/>
<stop offset="1" stop-color="#E4FF98" stop-opacity="0"/>
</linearGradient>
<linearGradient id="paint6_linear_1006_6101" x1="164.237" y1="412.227" x2="228.916" y2="425.829" gradientUnits="userSpaceOnUse">
<stop stop-color="#E4FF98"/>
<stop offset="1" stop-color="#E4FF98" stop-opacity="0"/>
</linearGradient>
<linearGradient id="paint7_linear_1006_6101" x1="259.809" y1="378.944" x2="230.963" y2="389.878" gradientUnits="userSpaceOnUse">
<stop stop-color="#98C463"/>
<stop offset="1" stop-color="#225131"/>
</linearGradient>
<linearGradient id="paint8_linear_1006_6101" x1="277.429" y1="385.033" x2="206.613" y2="405.493" gradientUnits="userSpaceOnUse">
<stop stop-color="#5D65AE"/>
<stop offset="1" stop-color="#E4FF98" stop-opacity="0"/>
</linearGradient>
<linearGradient id="paint9_linear_1006_6101" x1="269.145" y1="380.491" x2="230.262" y2="382.934" gradientUnits="userSpaceOnUse">
<stop stop-color="#E4FF98"/>
<stop offset="1" stop-color="#E4FF98" stop-opacity="0"/>
</linearGradient>
<linearGradient id="paint10_linear_1006_6101" x1="206.394" y1="233.743" x2="175.606" y2="258.661" gradientUnits="userSpaceOnUse">
<stop stop-color="#98C463"/>
<stop offset="1" stop-color="#225131"/>
</linearGradient>
<linearGradient id="paint11_linear_1006_6101" x1="230.308" y1="234.07" x2="152.164" y2="287.449" gradientUnits="userSpaceOnUse">
<stop stop-color="#5D65AE"/>
<stop offset="1" stop-color="#E4FF98" stop-opacity="0"/>
</linearGradient>
<linearGradient id="paint12_linear_1006_6101" x1="218.39" y1="231.867" x2="171.966" y2="250.446" gradientUnits="userSpaceOnUse">
<stop stop-color="#E4FF98"/>
<stop offset="1" stop-color="#E4FF98" stop-opacity="0"/>
</linearGradient>
<linearGradient id="paint13_linear_1006_6101" x1="157.371" y1="163.684" x2="226.734" y2="513.7" gradientUnits="userSpaceOnUse">
<stop stop-color="#437226"/>
<stop offset="1" stop-color="#D5E9BA"/>
</linearGradient>
<linearGradient id="paint14_linear_1006_6101" x1="166.877" y1="138.696" x2="154.877" y2="176.589" gradientUnits="userSpaceOnUse">
<stop offset="0.1334" stop-color="#97DC6D"/>
<stop offset="1" stop-color="#588E38"/>
</linearGradient>
<linearGradient id="paint15_linear_1006_6101" x1="98.1426" y1="197.568" x2="134.219" y2="214.204" gradientUnits="userSpaceOnUse">
<stop offset="0.1334" stop-color="#97DC6D"/>
<stop offset="1" stop-color="#558E33"/>
</linearGradient>
<linearGradient id="paint16_linear_1006_6101" x1="218.587" y1="55.9208" x2="166.846" y2="121.848" gradientUnits="userSpaceOnUse">
<stop stop-color="#76A0DE"/>
<stop offset="0.950371" stop-color="#473184"/>
</linearGradient>
<linearGradient id="paint17_linear_1006_6101" x1="169.333" y1="147.428" x2="219.516" y2="90.1662" gradientUnits="userSpaceOnUse">
<stop stop-color="#C39EFF"/>
<stop offset="0.885992" stop-color="#FFFDA7"/>
</linearGradient>
<linearGradient id="paint18_linear_1006_6101" x1="229.548" y1="108.531" x2="185.887" y2="167.013" gradientUnits="userSpaceOnUse">
<stop stop-color="#FBEAFF"/>
<stop offset="0.91152" stop-color="#627DDD"/>
</linearGradient>
<linearGradient id="paint19_linear_1006_6101" x1="199.282" y1="113.521" x2="177.453" y2="161.983" gradientUnits="userSpaceOnUse">
<stop offset="0.184559" stop-color="#D9B2F0"/>
<stop offset="1" stop-color="#5454AE"/>
</linearGradient>
<radialGradient id="paint20_radial_1006_6101" cx="0" cy="0" r="1" gradientUnits="userSpaceOnUse" gradientTransform="translate(215.211 14.0077) rotate(113.76) scale(170.269 127.565)">
<stop offset="0.296875" stop-color="#FFF8E0"/>
<stop offset="0.651042" stop-color="#EE98BE"/>
<stop offset="0.880177" stop-color="#4F459C"/>
</radialGradient>
<linearGradient id="paint21_linear_1006_6101" x1="190.936" y1="97.2853" x2="201.572" y2="80.1699" gradientUnits="userSpaceOnUse">
<stop stop-color="#EC97EB"/>
<stop offset="1" stop-color="#FFEA5C"/>
</linearGradient>
<linearGradient id="paint22_linear_1006_6101" x1="207.407" y1="84.0692" x2="199.33" y2="98.1931" gradientUnits="userSpaceOnUse">
<stop stop-color="#8ABFFF"/>
<stop offset="1" stop-color="#504AA1"/>
</linearGradient>
<linearGradient id="paint23_linear_1006_6101" x1="207.002" y1="83.864" x2="200.494" y2="95.2434" gradientUnits="userSpaceOnUse">
<stop offset="0.320139" stop-color="white"/>
<stop offset="1" stop-color="#D9EAFF"/>
</linearGradient>
<linearGradient id="paint24_linear_1006_6101" x1="218.587" y1="55.9208" x2="166.846" y2="121.848" gradientUnits="userSpaceOnUse">
<stop stop-color="#76A0DE"/>
<stop offset="0.950371" stop-color="#473184"/>
</linearGradient>
<linearGradient id="paint25_linear_1006_6101" x1="169.333" y1="147.428" x2="219.516" y2="90.1662" gradientUnits="userSpaceOnUse">
<stop stop-color="#C39EFF"/>
<stop offset="0.885992" stop-color="#FFFDA7"/>
</linearGradient>
<linearGradient id="paint26_linear_1006_6101" x1="229.548" y1="108.531" x2="185.887" y2="167.013" gradientUnits="userSpaceOnUse">
<stop stop-color="#FBEAFF"/>
<stop offset="0.91152" stop-color="#627DDD"/>
</linearGradient>
<linearGradient id="paint27_linear_1006_6101" x1="199.282" y1="113.521" x2="177.453" y2="161.983" gradientUnits="userSpaceOnUse">
<stop offset="0.184559" stop-color="#D9B2F0"/>
<stop offset="1" stop-color="#5454AE"/>
</linearGradient>
<radialGradient id="paint28_radial_1006_6101" cx="0" cy="0" r="1" gradientUnits="userSpaceOnUse" gradientTransform="translate(215.211 14.0077) rotate(113.76) scale(170.269 127.565)">
<stop offset="0.296875" stop-color="#FFF8E0"/>
<stop offset="0.651042" stop-color="#EE98BE"/>
<stop offset="0.880177" stop-color="#4F459C"/>
</radialGradient>
<linearGradient id="paint29_linear_1006_6101" x1="190.936" y1="97.2853" x2="201.572" y2="80.1699" gradientUnits="userSpaceOnUse">
<stop stop-color="#EC97EB"/>
<stop offset="1" stop-color="#FFEA5C"/>
</linearGradient>
<linearGradient id="paint30_linear_1006_6101" x1="207.407" y1="84.0692" x2="199.33" y2="98.1931" gradientUnits="userSpaceOnUse">
<stop stop-color="#8ABFFF"/>
<stop offset="1" stop-color="#504AA1"/>
</linearGradient>
<linearGradient id="paint31_linear_1006_6101" x1="44.1306" y1="180.198" x2="108.264" y2="191.067" gradientUnits="userSpaceOnUse">
<stop offset="0.0426602" stop-color="#76A0DE"/>
<stop offset="1" stop-color="#473184"/>
</linearGradient>
<linearGradient id="paint32_linear_1006_6101" x1="114.767" y1="203.376" x2="60.5194" y2="198.408" gradientUnits="userSpaceOnUse">
<stop stop-color="#C39EFF"/>
<stop offset="0.885992" stop-color="#FFFDA7"/>
</linearGradient>
<linearGradient id="paint33_linear_1006_6101" x1="64.3564" y1="212.891" x2="115.821" y2="221.71" gradientUnits="userSpaceOnUse">
<stop stop-color="#FBEAFF"/>
<stop offset="0.91152" stop-color="#627DDD"/>
</linearGradient>
<linearGradient id="paint34_linear_1006_6101" x1="82.5167" y1="200.555" x2="117.718" y2="214.93" gradientUnits="userSpaceOnUse">
<stop offset="0.0956974" stop-color="#D9B2F0"/>
<stop offset="1" stop-color="#5454AE"/>
</linearGradient>
<radialGradient id="paint35_radial_1006_6101" cx="0" cy="0" r="1" gradientUnits="userSpaceOnUse" gradientTransform="translate(25.2378 156.783) rotate(22.7027) scale(121.799 91.2811)">
<stop offset="0.296875" stop-color="#FFF8E0"/>
<stop offset="0.651042" stop-color="#F2AEC6"/>
<stop offset="0.953125" stop-color="#4F459C"/>
</radialGradient>
<linearGradient id="paint36_linear_1006_6101" x1="78.8548" y1="188.022" x2="64.9032" y2="184.388" gradientUnits="userSpaceOnUse">
<stop stop-color="#EC97EB"/>
<stop offset="1" stop-color="#FFEA5C"/>
</linearGradient>
<linearGradient id="paint37_linear_1006_6101" x1="63.7999" y1="189.286" x2="74.9499" y2="192.63" gradientUnits="userSpaceOnUse">
<stop stop-color="#8ABFFF"/>
<stop offset="1" stop-color="#504AA1"/>
</linearGradient>
<linearGradient id="paint38_linear_1006_6101" x1="240.956" y1="359.639" x2="240.493" y2="388.417" gradientUnits="userSpaceOnUse">
<stop stop-color="#4B752E"/>
<stop offset="0.963542" stop-color="#A9C48E"/>
</linearGradient>
<linearGradient id="paint39_linear_1006_6101" x1="266.893" y1="335.325" x2="244.593" y2="356.194" gradientUnits="userSpaceOnUse">
<stop offset="0.1334" stop-color="#B8FF8D"/>
<stop offset="1" stop-color="#629F3D"/>
</linearGradient>
<linearGradient id="paint40_linear_1006_6101" x1="308.86" y1="300.476" x2="265.161" y2="330.384" gradientUnits="userSpaceOnUse">
<stop stop-color="#76A0DE"/>
<stop offset="0.950371" stop-color="#473184"/>
</linearGradient>
<linearGradient id="paint41_linear_1006_6101" x1="264.61" y1="346.252" x2="303.353" y2="314.246" gradientUnits="userSpaceOnUse">
<stop stop-color="#C39EFF"/>
<stop offset="0.885992" stop-color="#FFFDA7"/>
</linearGradient>
<linearGradient id="paint42_linear_1006_6101" x1="303.004" y1="328.124" x2="264.685" y2="357.304" gradientUnits="userSpaceOnUse">
<stop stop-color="#FBEAFF"/>
<stop offset="0.91152" stop-color="#627DDD"/>
</linearGradient>
<linearGradient id="paint43_linear_1006_6101" x1="291.261" y1="313.316" x2="283.173" y2="324.166" gradientUnits="userSpaceOnUse">
<stop stop-color="#8ABFFF"/>
<stop offset="1" stop-color="#504AA1"/>
</linearGradient>
<linearGradient id="paint44_linear_1006_6101" x1="287.94" y1="315.553" x2="285.777" y2="321.338" gradientUnits="userSpaceOnUse">
<stop offset="0.320139" stop-color="white"/>
<stop offset="1" stop-color="#D9EAFF"/>
</linearGradient>
<linearGradient id="paint45_linear_1006_6101" x1="284.034" y1="313.27" x2="266.366" y2="352.746" gradientUnits="userSpaceOnUse">
<stop offset="0.184559" stop-color="#D9B2F0"/>
<stop offset="1" stop-color="#5454AE"/>
</linearGradient>
<radialGradient id="paint46_radial_1006_6101" cx="0" cy="0" r="1" gradientUnits="userSpaceOnUse" gradientTransform="translate(335.336 291.685) rotate(151.663) scale(112.011 87.0191)">
<stop offset="0.296875" stop-color="#FFF8E0"/>
<stop offset="0.651042" stop-color="#EE98BE"/>
<stop offset="0.880177" stop-color="#4F459C"/>
</radialGradient>
<linearGradient id="paint47_linear_1006_6101" x1="272.184" y1="289.417" x2="236.239" y2="346.175" gradientUnits="userSpaceOnUse">
<stop stop-color="#F3B2C8"/>
<stop offset="0.91152" stop-color="#627DDD"/>
</linearGradient>
</defs>
</svg>
