<svg width="72" height="72" viewBox="0 0 72 72" fill="none" xmlns="http://www.w3.org/2000/svg">
<circle cx="41.3259" cy="43.2407" r="4.02333" transform="rotate(7.892 41.3259 43.2407)" fill="#212121"/>
<circle cx="35.2117" cy="35.1589" r="6.29305" transform="rotate(7.892 35.2117 35.1589)" fill="#212121"/>
<circle cx="45.5234" cy="48.8351" r="2.94552" transform="rotate(7.892 45.5234 48.8351)" fill="#212121"/>
<circle cx="48.1052" cy="52.2486" r="2.00205" transform="rotate(7.892 48.1052 52.2486)" fill="#212121"/>
<path d="M49.0054 53.4396C49.625 52.9709 50.5071 53.0932 50.9758 53.7127C51.4445 54.3323 51.509 56.7489 51.509 56.7489C51.509 56.7489 49.201 56.0295 48.7323 55.41C48.2636 54.7905 48.3859 53.9083 49.0054 53.4396Z" fill="#212121"/>
<path d="M54.7331 20.2546C52.7834 17.6775 50.3452 15.5096 47.5577 13.8747C44.7703 12.2398 41.6881 11.1699 38.4871 10.7262L35.1083 35.101L54.7331 20.2546Z" fill="url(#paint0_radial_1009_9076)"/>
<path d="M52.3573 40.0579C53.0024 37.797 53.1959 35.4311 52.9267 33.0954C52.6575 30.7597 51.9309 28.4999 50.7884 26.445L35.1405 35.1453L52.3573 40.0579Z" fill="url(#paint1_radial_1009_9076)"/>
<path d="M15.4822 49.9472C13.5325 47.3701 12.1096 44.4341 11.2946 41.3071C10.4796 38.18 10.2885 34.923 10.7322 31.7221L35.1069 35.1009L15.4822 49.9472Z" fill="url(#paint2_radial_1009_9076)"/>
<path d="M35.1647 53.0256C32.8135 53.0314 30.4842 52.574 28.3098 51.6796C26.1354 50.7852 24.1584 49.4713 22.4918 47.8129L35.1204 35.1217L35.1647 53.0256Z" fill="url(#paint3_radial_1009_9076)"/>
<path d="M25.3511 25.8094L32.0118 30.579L29.9747 22.7696" stroke="black" stroke-width="0.274532"/>
<ellipse cx="24.7594" cy="25.281" rx="1.04361" ry="1.06845" transform="rotate(-1.72685 24.7594 25.281)" fill="#212121"/>
<circle cx="29.8763" cy="21.9856" r="1.06862" transform="rotate(19.1455 29.8763 21.9856)" fill="#212121"/>
<path d="M35.2282 35.1765L50.6177 37.4633" stroke="#C8B6D3" stroke-width="0.274532"/>
<path d="M35.231 35.1768L50.7427 35.8434" stroke="#C8B6D3" stroke-width="0.274532"/>
<path d="M35.2304 35.1765L50.5786 34.4391" stroke="#C8B6D3" stroke-width="0.274532"/>
<path d="M35.2282 35.1768L50.3696 32.9781" stroke="#C8B6D3" stroke-width="0.274532"/>
<path d="M35.2282 35.1765L50.1196 31.4596" stroke="#C8B6D3" stroke-width="0.274532"/>
<path d="M35.229 35.1767L49.5415 30.1005" stroke="#C8B6D3" stroke-width="0.274532"/>
<path d="M35.2277 35.1774L48.9751 28.6415" stroke="#C8B6D3" stroke-width="0.274532"/>
<path d="M35.1931 35.2049L33.2075 50.6361" stroke="#C8B6D3" stroke-width="0.274532"/>
<path d="M35.1937 35.2045L31.6157 50.3126" stroke="#C8B6D3" stroke-width="0.274532"/>
<path d="M35.1936 35.2044L30.3091 49.7733" stroke="#C8B6D3" stroke-width="0.274532"/>
<path d="M35.1899 35.2044L28.9556 49.1769" stroke="#C8B6D3" stroke-width="0.274532"/>
<path d="M35.1943 35.2049L27.5669 48.5238" stroke="#C8B6D3" stroke-width="0.274532"/>
<path d="M35.1945 35.204L26.4165 47.5961" stroke="#C8B6D3" stroke-width="0.274532"/>
<path d="M35.1935 35.2044L25.1646 46.6556" stroke="#C8B6D3" stroke-width="0.274532"/>
<path d="M35.1543 35.079L14.3853 47.9027" stroke="#C8B6D3" stroke-width="0.274532"/>
<path d="M35.1559 35.0789L13.2075 45.6427" stroke="#C8B6D3" stroke-width="0.274532"/>
<path d="M35.1565 35.0788L12.5747 43.5175" stroke="#C8B6D3" stroke-width="0.274532"/>
<path d="M35.1537 35.0788L11.9653 41.2831" stroke="#C8B6D3" stroke-width="0.274532"/>
<path d="M35.1552 35.0793L11.3872 38.9401" stroke="#C8B6D3" stroke-width="0.274532"/>
<path d="M35.1542 35.0791L11.3794 36.6219" stroke="#C8B6D3" stroke-width="0.274532"/>
<path d="M35.1534 35.079L11.2896 34.1678" stroke="#C8B6D3" stroke-width="0.274532"/>
<path d="M35.1554 35.0789L53.145 18.5812" stroke="#C8B6D3" stroke-width="0.274532"/>
<path d="M35.1558 35.079L51.2915 16.8317" stroke="#C8B6D3" stroke-width="0.274532"/>
<path d="M35.1536 35.0791L49.4165 15.6442" stroke="#C8B6D3" stroke-width="0.274532"/>
<path d="M35.1563 35.0789L47.4341 14.4525" stroke="#C8B6D3" stroke-width="0.274532"/>
<path d="M35.1541 35.0786L45.3345 13.257" stroke="#C8B6D3" stroke-width="0.274532"/>
<path d="M35.1562 35.0789L43.1079 12.6202" stroke="#C8B6D3" stroke-width="0.274532"/>
<path d="M35.1576 35.0792L40.772 11.8673" stroke="#C8B6D3" stroke-width="0.274532"/>
<defs>
<radialGradient id="paint0_radial_1009_9076" cx="0" cy="0" r="1" gradientUnits="userSpaceOnUse" gradientTransform="translate(35.1083 35.101) rotate(52.892) scale(24.6078)">
<stop offset="0.427083" stop-color="#C39EFF"/>
<stop offset="1" stop-color="white" stop-opacity="0"/>
</radialGradient>
<radialGradient id="paint1_radial_1009_9076" cx="0" cy="0" r="1" gradientUnits="userSpaceOnUse" gradientTransform="translate(35.1405 35.1453) rotate(105.926) scale(17.9039)">
<stop offset="0.427083" stop-color="#C39EFF"/>
<stop offset="1" stop-color="white" stop-opacity="0"/>
</radialGradient>
<radialGradient id="paint2_radial_1009_9076" cx="0" cy="0" r="1" gradientUnits="userSpaceOnUse" gradientTransform="translate(35.1069 35.1009) rotate(52.892) scale(24.6078)">
<stop offset="0.427083" stop-color="#C39EFF"/>
<stop offset="1" stop-color="white" stop-opacity="0"/>
</radialGradient>
<radialGradient id="paint3_radial_1009_9076" cx="0" cy="0" r="1" gradientUnits="userSpaceOnUse" gradientTransform="translate(35.1204 35.1217) rotate(-0.141534) scale(17.9039)">
<stop offset="0.427083" stop-color="#C39EFF"/>
<stop offset="1" stop-color="white" stop-opacity="0"/>
</radialGradient>
</defs>
</svg>
