<svg width="184" height="184" viewBox="0 0 184 184" fill="none" xmlns="http://www.w3.org/2000/svg">
<path d="M96.6414 87.3003C77.2669 111.182 53.2554 121.864 16.5866 117.739" stroke="url(#paint0_linear_1009_8640)" stroke-width="1.25634"/>
<path d="M80.6814 79.8716C86.8013 73.7517 96.7236 73.7517 102.843 79.8716C108.963 85.9915 108.963 95.9137 102.843 102.034C96.7236 108.153 86.8013 108.153 80.6814 102.034C74.5616 95.9137 74.5616 85.9915 80.6814 79.8716Z" fill="url(#paint1_linear_1009_8640)" stroke="#83AF5A" stroke-width="0.278488"/>
<path d="M81.3307 28.9001C79.1758 28.1614 77.0118 28.8239 75.1386 30.2771C73.2649 31.7305 71.697 33.9653 70.7502 36.3301C64.2289 52.6202 67.9061 65.5002 73.6996 74.5002C76.5979 79.0028 80.0271 82.5355 82.9772 85.0368C85.931 87.5413 88.3945 89.0034 89.3571 89.3737C89.4751 89.4191 89.5495 89.433 89.5913 89.4316C89.5981 89.4313 89.6031 89.4307 89.6065 89.43C89.6089 89.415 89.6097 89.3774 89.5904 89.3035C89.5682 89.2185 89.5254 89.1073 89.4604 88.968C89.2238 88.4609 88.7337 87.6636 88.0799 86.5998C88.0104 86.4868 87.939 86.3707 87.8659 86.2517C86.3506 83.7833 84.1162 80.0796 82.2372 75.5338C78.4789 66.4413 76.137 53.964 83.8161 41.2453C85.5868 38.3126 86.0377 35.5912 85.5154 33.4276C84.9941 31.2679 83.4989 29.6434 81.3307 28.9001Z" fill="url(#paint2_linear_1009_8640)" stroke="#FF971D" stroke-width="0.278488"/>
<path d="M154.119 101.689C154.858 103.844 154.195 106.007 152.742 107.881C151.289 109.754 149.054 111.322 146.689 112.269C130.399 118.79 117.519 115.113 108.519 109.32C104.017 106.421 100.484 102.992 97.9825 100.042C95.4781 97.0883 94.0159 94.6248 93.6457 93.6622C93.6003 93.5441 93.5863 93.4698 93.5878 93.428C93.588 93.4212 93.5887 93.4162 93.5893 93.4128C93.6043 93.4104 93.642 93.4096 93.7158 93.4289C93.8008 93.4511 93.9121 93.4939 94.0514 93.5589C94.5584 93.7955 95.3558 94.2856 96.4195 94.9394C96.5326 95.0089 96.6486 95.0803 96.7677 95.1533C99.236 96.6687 102.94 98.9031 107.486 100.782C116.578 104.54 129.055 106.882 141.774 99.2032C144.707 97.4325 147.428 96.9816 149.592 97.5039C151.751 98.0252 153.376 99.5204 154.119 101.689Z" fill="url(#paint3_linear_1009_8640)" stroke="#FF971D" stroke-width="0.278488"/>
<path d="M141.43 95.414C128.207 108.637 105.393 107.3 90.4723 92.3788C75.5511 77.4576 74.2142 54.6436 87.437 41.4207C100.66 28.1979 123.474 29.5348 138.395 44.456C153.316 59.3771 154.653 82.1912 141.43 95.414Z" fill="url(#paint4_linear_1009_8640)" stroke="#FF971D" stroke-width="0.278488"/>
<path d="M86.5602 39.7314C74.0953 52.8418 74.3108 73.4813 86.0329 88.9632C78.3259 77.3188 78.6776 62.4431 87.8819 52.7622C96.9668 43.2068 110.167 41.4023 123.93 47.1884L123.931 47.1887L123.942 47.1928L123.988 47.2089C124.029 47.2231 124.089 47.2436 124.168 47.269C124.326 47.3199 124.556 47.3902 124.845 47.4673C125.423 47.6217 126.236 47.8033 127.173 47.9121C129.052 48.1304 131.411 48.0543 133.388 46.9043C136.093 45.3303 137.476 42.5587 137.053 39.6386C136.752 37.5616 135.9 35.7685 134.399 34.2346C132.897 32.6988 130.737 31.4172 127.812 30.3755C113.107 25.1393 96.8872 28.8696 86.5602 39.7314Z" fill="url(#paint5_linear_1009_8640)" stroke="#FF971D" stroke-width="0.278488"/>
<path d="M83.4434 51.7794C75.7483 67.4628 81.3227 86.1445 95.8012 96.7163C85.9121 88.4248 82.3621 74.8136 88.0373 63.2469C93.6602 51.7868 105.011 46.1411 118.869 47.2476L118.869 47.2472L118.879 47.2487L118.879 47.2487L118.879 47.2487L118.88 47.2488L118.883 47.2493L118.896 47.2512C118.901 47.252 118.909 47.253 118.918 47.2542C118.926 47.2554 118.936 47.2567 118.948 47.2582C118.993 47.2643 119.062 47.2728 119.15 47.2824C119.326 47.3017 119.581 47.3257 119.897 47.3441C120.529 47.3808 121.403 47.3951 122.369 47.3053C124.306 47.1253 126.584 46.5297 128.045 44.8914C130.055 42.6362 130.563 39.6911 129.417 37.1607C127.792 33.574 124.045 31.375 117.921 30.7584C103.379 30.4424 89.8354 38.7519 83.4434 51.7794Z" fill="url(#paint6_linear_1009_8640)" stroke="#FF971D" stroke-width="0.278488"/>
<path d="M143.173 96.3439C130.062 108.809 109.423 108.593 93.9409 96.8713C105.585 104.578 120.461 104.227 130.142 95.0223C139.698 85.9371 141.502 72.7369 135.715 58.9732L135.715 58.9715L135.71 58.9597C135.706 58.9491 135.7 58.9331 135.693 58.912C135.677 58.8698 135.655 58.8069 135.627 58.7253C135.572 58.562 135.495 58.3236 135.41 58.0248C135.241 57.4269 135.039 56.5881 134.909 55.6248C134.65 53.6936 134.686 51.285 135.835 49.3099C137.409 46.6043 140.18 45.2212 143.1 45.6447C147.241 46.2452 150.447 49.2454 152.529 55.0918C157.765 69.797 154.035 86.0169 143.173 96.3439Z" fill="url(#paint7_linear_1009_8640)" stroke="#FF971D" stroke-width="0.278488"/>
<path d="M131.125 99.4605C115.441 107.156 96.7595 101.581 86.1877 87.1027C94.4792 96.9919 108.09 100.542 119.657 94.8666C131.117 89.2437 136.763 77.8932 135.656 64.0351L135.657 64.0351L135.655 64.0251L135.655 64.0251L135.655 64.025L135.655 64.0243L135.655 64.0212L135.653 64.0083C135.651 63.9967 135.649 63.9793 135.646 63.9564C135.64 63.9105 135.631 63.8423 135.622 63.7543C135.602 63.5783 135.578 63.323 135.56 63.007C135.523 62.3747 135.509 61.501 135.599 60.5353C135.779 58.5976 136.374 56.3197 138.013 54.8593C140.268 52.8491 143.213 52.3409 145.743 53.4873C149.33 55.1124 151.529 58.8588 152.146 64.9829C152.462 79.5246 144.152 93.0685 131.125 99.4605Z" fill="url(#paint8_linear_1009_8640)" stroke="#FF971D" stroke-width="0.278488"/>
<path d="M89.8253 94.602L89.813 94.5919L89.7986 94.5848C89.6847 94.5293 89.6253 94.4856 89.5998 94.4563C89.5997 94.4562 89.5997 94.4562 89.5996 94.4561C89.6031 94.4531 89.6075 94.4495 89.613 94.4454C89.6325 94.4311 89.6613 94.4143 89.7018 94.3955C89.7831 94.3579 89.8981 94.3186 90.0488 94.2775C90.5608 94.1376 91.4117 93.9948 92.5339 93.8064C92.7411 93.7716 92.9575 93.7353 93.1827 93.6971C96.0622 93.2093 100.332 92.4317 104.927 90.8131C114.12 87.5754 124.634 80.9655 127.942 66.5698C128.791 62.8733 130.527 60.1789 132.649 58.738C134.765 57.3016 137.28 57.0999 139.733 58.4098C142.183 59.7176 143.131 61.7855 143.209 64.0897C143.287 66.402 142.487 68.9497 141.435 71.1856C133.993 86.9996 122.193 93.7577 111.699 96.1102C106.45 97.287 101.527 97.3614 97.6386 96.9134C95.6946 96.6893 94.0113 96.3349 92.677 95.9233C91.339 95.5106 90.3637 95.044 89.8253 94.602Z" fill="url(#paint9_linear_1009_8640)" stroke="#FF971D" stroke-width="0.278488"/>
<path d="M133.131 85.2281C134.361 86.6896 134.439 88.2512 133.899 89.7451C133.356 91.2467 132.189 92.677 130.937 93.8447C122.077 102.106 112.752 103.078 105.396 101.722C101.715 101.043 98.5262 99.7802 96.1357 98.5529C93.7401 97.323 92.1597 96.1355 91.687 95.6146C91.6584 95.583 91.6384 95.5577 91.6248 95.538C91.6303 95.5375 91.6364 95.5371 91.643 95.5368C91.7014 95.5336 91.7828 95.5377 91.8895 95.5499C92.2531 95.5915 92.8355 95.7182 93.6077 95.8862C93.7503 95.9172 93.8993 95.9496 94.0546 95.9832C96.0367 96.4113 98.9921 97.0116 102.375 97.1535C109.143 97.4373 117.642 95.8858 123.497 87.4439C124.994 85.2864 126.798 84.0059 128.524 83.6276C130.241 83.251 131.897 83.7634 133.131 85.2281Z" fill="url(#paint10_linear_1009_8640)" stroke="#FF971D" stroke-width="0.278488"/>
<path fill-rule="evenodd" clip-rule="evenodd" d="M122.584 59.723L137.381 45.0888L137.736 45.4479L122.939 60.0821L122.584 59.723Z" fill="#FF0000" stroke="#FF971D" stroke-width="0.278488" stroke-miterlimit="10"/>
<path fill-rule="evenodd" clip-rule="evenodd" d="M121.873 57.2153L133.383 39.877L132.962 39.5977L121.452 56.936L121.873 57.2153Z" fill="#FF0000" stroke="#FF971D" stroke-width="0.278488" stroke-miterlimit="10"/>
<path fill-rule="evenodd" clip-rule="evenodd" d="M125.47 61.0009L142.808 49.4907L143.088 49.9115L125.749 61.4217L125.47 61.0009Z" fill="#FF0000" stroke="#FF971D" stroke-width="0.278488" stroke-miterlimit="10"/>
<path d="M132.071 38.6272C131.257 39.2517 131.095 40.3941 131.696 41.1773C132.298 41.9606 133.443 42.0988 134.257 41.4743C135.07 40.8498 135.232 39.7075 134.631 38.9242C134.03 38.1409 132.884 38.0028 132.071 38.6272Z" fill="url(#paint11_linear_1009_8640)" stroke="#FF971D" stroke-width="0.278488"/>
<path d="M144.152 50.7088C143.528 51.5221 142.386 51.6846 141.602 51.0832C140.819 50.4818 140.681 49.3362 141.305 48.5229C141.93 47.7095 143.072 47.5471 143.855 48.1485C144.639 48.7498 144.777 49.8954 144.152 50.7088Z" fill="url(#paint12_linear_1009_8640)" stroke="#FF971D" stroke-width="0.278488"/>
<path d="M136.076 40.9904C134.512 42.5544 134.512 45.0902 136.076 46.6542C137.64 48.2182 140.176 48.2182 141.74 46.6542C143.304 45.0902 143.304 42.5544 141.74 40.9904C140.176 39.4263 137.64 39.4263 136.076 40.9904Z" fill="url(#paint13_linear_1009_8640)" stroke="#FF971D" stroke-width="0.278488"/>
<path d="M88.302 93.0787L88.3121 93.091L88.3191 93.1054C88.3747 93.2194 88.4184 93.2788 88.4477 93.3043C88.4478 93.3043 88.4478 93.3044 88.4479 93.3044C88.4509 93.301 88.4545 93.2966 88.4586 93.291C88.4729 93.2715 88.4897 93.2427 88.5085 93.2022C88.5461 93.121 88.5854 93.0059 88.6265 92.8552C88.7664 92.3432 88.9092 91.4924 89.0976 90.3702C89.1324 90.163 89.1687 89.9466 89.2069 89.7214C89.6946 86.8418 90.4723 82.5722 92.0909 77.9766C95.3286 68.7839 101.938 58.2702 116.334 54.9621C120.031 54.1126 122.725 52.3773 124.166 50.2547C125.602 48.1389 125.804 45.6241 124.494 43.1706C123.186 40.7209 121.118 39.7728 118.814 39.695C116.502 39.617 113.954 40.417 111.718 41.4692C95.9044 48.9107 89.1463 60.711 86.7938 71.2047C85.617 76.454 85.5426 81.3774 85.9906 85.2655C86.2147 87.2095 86.5691 88.8927 86.9807 90.2271C87.3933 91.565 87.8599 92.5404 88.302 93.0787Z" fill="url(#paint14_linear_1009_8640)" stroke="#FF971D" stroke-width="0.278488"/>
<path d="M97.8239 49.9212C96.3624 48.6906 94.8008 48.613 93.3069 49.1529C91.8053 49.6956 90.375 50.8627 89.2073 52.1151C80.9463 60.9751 79.9738 70.3002 81.3305 77.6563C82.0093 81.337 83.2718 84.5259 84.4991 86.9163C85.729 89.312 86.9165 90.8924 87.4374 91.365C87.469 91.3937 87.4943 91.4136 87.514 91.4272C87.5145 91.4217 87.5149 91.4157 87.5152 91.4091C87.5184 91.3507 87.5143 91.2693 87.5021 91.1625C87.4605 90.7989 87.3338 90.2165 87.1658 89.4443C87.1348 89.3018 87.1024 89.1528 87.0688 88.9975C86.6407 87.0153 86.0404 84.0599 85.8985 80.6767C85.6147 73.9087 87.1662 65.4103 95.6081 59.5549C97.7656 58.0584 99.0461 56.2537 99.4244 54.5283C99.801 52.8107 99.2886 51.1546 97.8239 49.9212Z" fill="url(#paint15_linear_1009_8640)" stroke="#FF971D" stroke-width="0.278488"/>
<path d="M126.834 67.1022L126.834 67.1019L126.826 67.1101L126.574 67.363L126.351 67.5859C117.559 76.378 108.964 83.697 102.176 88.423C98.7807 90.7867 95.8436 92.4978 93.5633 93.4215C92.4226 93.8835 91.4542 94.1453 90.6795 94.1968C89.9038 94.2485 89.3442 94.0886 88.9904 93.7348C88.6367 93.3811 88.4768 92.8214 88.5284 92.0457C88.58 91.271 88.8417 90.3026 89.3038 89.1619C90.2275 86.8817 91.9385 83.9445 94.3022 80.5495C99.0283 73.7615 106.347 65.166 115.139 56.3739C115.298 56.2153 115.457 56.0571 115.615 55.8994L115.615 55.8997L115.623 55.8909C115.747 55.7453 115.882 55.6168 116.024 55.4816C116.097 55.4121 116.172 55.3408 116.249 55.2646C119.885 51.6282 125.33 51.2307 128.412 54.3131C131.495 57.3955 131.097 62.8402 127.461 66.4766C127.384 66.5528 127.313 66.6277 127.244 66.7008C127.109 66.8431 126.98 66.9784 126.834 67.1022Z" fill="url(#paint16_linear_1009_8640)" stroke="#FF971D" stroke-width="0.278488"/>
<defs>
<linearGradient id="paint0_linear_1009_8640" x1="125.795" y1="78.245" x2="-19.8879" y2="130.463" gradientUnits="userSpaceOnUse">
<stop offset="0.126994" stop-color="#33AE60"/>
<stop offset="0.932884" stop-color="#ABBC38" stop-opacity="0"/>
</linearGradient>
<linearGradient id="paint1_linear_1009_8640" x1="80.583" y1="102.132" x2="87.8282" y2="94.9788" gradientUnits="userSpaceOnUse">
<stop stop-color="#99C464"/>
<stop offset="1" stop-color="#669664"/>
</linearGradient>
<linearGradient id="paint2_linear_1009_8640" x1="91.3709" y1="40.161" x2="85.9268" y2="91.7955" gradientUnits="userSpaceOnUse">
<stop stop-color="#FFC369"/>
<stop offset="1" stop-color="#CF31D8"/>
</linearGradient>
<linearGradient id="paint3_linear_1009_8640" x1="142.858" y1="91.6483" x2="91.2239" y2="97.0924" gradientUnits="userSpaceOnUse">
<stop stop-color="#FFC369"/>
<stop offset="1" stop-color="#CF31D8"/>
</linearGradient>
<linearGradient id="paint4_linear_1009_8640" x1="138.494" y1="44.3575" x2="90.3738" y2="92.4772" gradientUnits="userSpaceOnUse">
<stop stop-color="#FB5F62"/>
<stop offset="1" stop-color="#7D1B87"/>
</linearGradient>
<linearGradient id="paint5_linear_1009_8640" x1="133.263" y1="39.7696" x2="77.0335" y2="74.0049" gradientUnits="userSpaceOnUse">
<stop stop-color="#F8FFDD"/>
<stop offset="0.517031" stop-color="#90CC5C"/>
<stop offset="1" stop-color="#1078A9"/>
</linearGradient>
<linearGradient id="paint6_linear_1009_8640" x1="128.23" y1="38.0261" x2="79.2082" y2="83.308" gradientUnits="userSpaceOnUse">
<stop stop-color="#FFB250"/>
<stop offset="1" stop-color="#FF2525"/>
</linearGradient>
<linearGradient id="paint7_linear_1009_8640" x1="143.134" y1="49.641" x2="108.899" y2="105.871" gradientUnits="userSpaceOnUse">
<stop stop-color="#F8FFDD"/>
<stop offset="0.517031" stop-color="#90CC5C"/>
<stop offset="1" stop-color="#1078A9"/>
</linearGradient>
<linearGradient id="paint8_linear_1009_8640" x1="144.878" y1="54.6736" x2="99.596" y2="103.696" gradientUnits="userSpaceOnUse">
<stop stop-color="#FFB250"/>
<stop offset="1" stop-color="#FF2525"/>
</linearGradient>
<linearGradient id="paint9_linear_1009_8640" x1="137.641" y1="60.4011" x2="97.478" y2="96.6771" gradientUnits="userSpaceOnUse">
<stop stop-color="#FFD8DB"/>
<stop offset="1" stop-color="#FFED57"/>
</linearGradient>
<linearGradient id="paint10_linear_1009_8640" x1="131.303" y1="85.9458" x2="96.0642" y2="98.9705" gradientUnits="userSpaceOnUse">
<stop stop-color="#FFFBA6"/>
<stop offset="0.893711" stop-color="#FF2421"/>
<stop offset="1" stop-color="#FF201F"/>
</linearGradient>
<linearGradient id="paint11_linear_1009_8640" x1="134.741" y1="38.8394" x2="131.586" y2="41.2621" gradientUnits="userSpaceOnUse">
<stop stop-color="#FFE1E4"/>
<stop offset="1" stop-color="#98D22F"/>
</linearGradient>
<linearGradient id="paint12_linear_1009_8640" x1="143.94" y1="48.038" x2="141.517" y2="51.1936" gradientUnits="userSpaceOnUse">
<stop stop-color="#FFE1E4"/>
<stop offset="1" stop-color="#98D22F"/>
</linearGradient>
<linearGradient id="paint13_linear_1009_8640" x1="141.839" y1="40.8919" x2="135.978" y2="46.7526" gradientUnits="userSpaceOnUse">
<stop stop-color="#FFE1E4"/>
<stop offset="1" stop-color="#98D22F"/>
</linearGradient>
<linearGradient id="paint14_linear_1009_8640" x1="122.503" y1="45.2629" x2="86.2269" y2="85.4261" gradientUnits="userSpaceOnUse">
<stop stop-color="#FFD8DB"/>
<stop offset="1" stop-color="#FFED57"/>
</linearGradient>
<linearGradient id="paint15_linear_1009_8640" x1="97.1062" y1="51.7494" x2="84.0815" y2="86.9878" gradientUnits="userSpaceOnUse">
<stop stop-color="#FFFBA6"/>
<stop offset="0.893711" stop-color="#FF2421"/>
<stop offset="1" stop-color="#FF201F"/>
</linearGradient>
<linearGradient id="paint16_linear_1009_8640" x1="128.511" y1="54.2147" x2="88.892" y2="93.8333" gradientUnits="userSpaceOnUse">
<stop stop-color="#FFFDA7"/>
<stop offset="0.983751" stop-color="#C60DE3"/>
</linearGradient>
</defs>
</svg>
