<svg width="308" height="330" viewBox="0 0 308 330" fill="none" xmlns="http://www.w3.org/2000/svg">
<path d="M167.011 146.32C136.976 201.26 92.8087 231.466 17.8578 236.665" stroke="url(#paint0_linear_1009_8639)" stroke-width="2.55798"/>
<path d="M141.212 149.988C145.363 143.974 150.792 139.697 156.201 137.636C161.611 135.574 166.973 135.737 171.04 138.544C175.108 141.352 177.162 146.307 177.153 152.097C177.145 157.886 175.071 164.478 170.92 170.493C166.769 176.507 161.34 180.784 155.931 182.845C150.52 184.907 145.158 184.744 141.091 181.937C137.024 179.129 134.969 174.174 134.978 168.384C134.987 162.595 137.06 156.003 141.212 149.988Z" fill="#88B45D" stroke="#FF971D" stroke-width="0.567019"/>
<ellipse rx="55.4388" ry="36.553" transform="matrix(-0.845713 -0.533638 -0.533638 0.845713 207.647 83.6005)" fill="#FF6060" stroke="url(#paint1_linear_1009_8639)" stroke-width="0.376632"/>
<ellipse rx="31.6793" ry="20.7134" transform="matrix(-0.845713 -0.533638 -0.533638 0.845713 207.605 85.8874)" fill="url(#paint2_linear_1009_8639)" stroke="#668AED" stroke-width="0.376632"/>
<ellipse rx="17.3762" ry="4.76237" transform="matrix(-0.832741 -0.553663 -0.553663 0.832741 216.547 72.5714)" fill="url(#paint3_linear_1009_8639)" stroke="#668AED" stroke-width="0.376632"/>
<ellipse cx="217.259" cy="71.4995" rx="12.7426" ry="3.47525" transform="rotate(-146.158 217.259 71.4995)" fill="url(#paint4_linear_1009_8639)" stroke="#668AED" stroke-width="0.376632"/>
<path d="M192 78.2008C196.467 47.6739 175.342 19.3053 144.815 14.8378C144.815 14.8378 154.093 33.8201 147.359 64.0754C140.625 94.3307 136.195 97.4224 129.591 118.866C122.987 140.31 136.234 166.592 159.019 176.119C184.473 186.763 213.736 174.757 224.38 149.303C235.024 123.849 223.018 94.5854 197.564 83.9416C195.514 83.0846 193.44 82.3744 191.353 81.8063C191.605 80.6201 191.821 79.418 192 78.2008Z" fill="url(#paint5_linear_1009_8639)" stroke="url(#paint6_linear_1009_8639)" stroke-width="0.376632"/>
<path d="M221.27 97.8988C248.035 82.5519 282.172 91.8074 297.519 118.572C297.519 118.572 276.457 116.898 250.776 134.254C225.096 151.61 223.843 156.865 206.313 170.87C188.783 184.875 159.474 182.184 142.258 164.478C123.024 144.697 123.468 113.07 143.248 93.8364C163.029 74.6028 194.656 75.0461 213.889 94.8266C215.438 96.4193 216.859 98.0888 218.153 99.8224C219.164 99.1524 220.203 98.5107 221.27 97.8988Z" fill="url(#paint7_linear_1009_8639)" stroke="url(#paint8_linear_1009_8639)" stroke-width="0.376632"/>
<path d="M209.767 68.051C209.548 68.3642 209.124 68.5309 208.563 68.4988C208.007 68.4669 207.35 68.2377 206.735 67.8077C206.12 67.3778 205.68 66.8402 205.459 66.3281C205.236 65.8125 205.247 65.3573 205.466 65.0441C205.685 64.7309 206.109 64.5641 206.669 64.5963C207.226 64.6282 207.882 64.8574 208.497 65.2874C209.112 65.7173 209.553 66.2549 209.774 66.7669C209.997 67.2826 209.986 67.7378 209.767 68.051Z" fill="white" stroke="#FF971D" stroke-width="0.42633"/>
<defs>
<linearGradient id="paint0_linear_1009_8639" x1="222.072" y1="117.484" x2="-50.5188" y2="275.537" gradientUnits="userSpaceOnUse">
<stop offset="0.126994" stop-color="#1A6F38"/>
<stop offset="0.932884" stop-color="#ABBC38" stop-opacity="0"/>
</linearGradient>
<linearGradient id="paint1_linear_1009_8639" x1="55.4388" y1="0" x2="55.4388" y2="73.1061" gradientUnits="userSpaceOnUse">
<stop stop-color="#FF1D1D"/>
<stop offset="1" stop-color="#FFEA5C"/>
</linearGradient>
<linearGradient id="paint2_linear_1009_8639" x1="31.6793" y1="0" x2="31.6793" y2="41.4268" gradientUnits="userSpaceOnUse">
<stop offset="0.19207" stop-color="#FEFFD8"/>
<stop offset="0.859417" stop-color="#B8DB2B"/>
</linearGradient>
<linearGradient id="paint3_linear_1009_8639" x1="17.3762" y1="0" x2="17.3762" y2="9.52475" gradientUnits="userSpaceOnUse">
<stop stop-color="#FFCE6D"/>
<stop offset="0.104167" stop-color="#FCC595"/>
<stop offset="0.75458" stop-color="#F5B0EE"/>
</linearGradient>
<linearGradient id="paint4_linear_1009_8639" x1="217.259" y1="68.0242" x2="217.259" y2="74.9747" gradientUnits="userSpaceOnUse">
<stop stop-color="#FF5463"/>
<stop offset="1" stop-color="#8EBCF9"/>
</linearGradient>
<linearGradient id="paint5_linear_1009_8639" x1="206.54" y1="48.3811" x2="134.474" y2="161.301" gradientUnits="userSpaceOnUse">
<stop stop-color="#FEEDA1"/>
<stop offset="0.75458" stop-color="#F44444"/>
</linearGradient>
<linearGradient id="paint6_linear_1009_8639" x1="206.54" y1="48.3811" x2="134.474" y2="161.301" gradientUnits="userSpaceOnUse">
<stop stop-color="#FF1D1D"/>
<stop offset="1" stop-color="#FFEA5C"/>
</linearGradient>
<linearGradient id="paint7_linear_1009_8639" x1="243.684" y1="73.4395" x2="120.906" y2="224.475" gradientUnits="userSpaceOnUse">
<stop stop-color="#FDEDA1"/>
<stop offset="0.411458" stop-color="#F56363"/>
<stop offset="1" stop-color="#F11A1A"/>
</linearGradient>
<linearGradient id="paint8_linear_1009_8639" x1="243.684" y1="73.4395" x2="165.042" y2="181.882" gradientUnits="userSpaceOnUse">
<stop stop-color="#FF1D1D"/>
<stop offset="1" stop-color="#FFEA5C"/>
</linearGradient>
</defs>
</svg>
