<svg width="432" height="199" viewBox="0 0 432 199" fill="none" xmlns="http://www.w3.org/2000/svg">
    <path d="M50.8891 116.806V100.517H49.2704L46.64 108.307C44.6165 114.378 42.1884 115.49 38.6474 115.49H15.9851C13.4558 115.49 11.837 113.669 11.837 111.342V83.925C11.837 81.6992 13.1523 80.384 15.378 80.384H30.6549C34.3982 80.384 36.9275 82.1039 37.6357 85.746L38.2427 88.9835H39.7603V70.7727H38.2427L37.6357 74.0102C36.9275 77.5512 34.3982 79.0687 30.6549 79.0687H15.378C13.1523 79.0687 11.837 77.7535 11.837 75.5277V50.2349C11.837 47.7056 13.6581 46.3904 15.9851 46.3904H36.8263C40.3673 46.3904 42.7955 47.5033 44.8189 53.5736L47.4493 61.3638H49.0681V45.0752L0 45.1764V46.6939L2.42811 47.0986C4.75505 47.5033 5.56442 48.2115 5.56442 50.842V111.14C5.56442 113.77 4.75505 114.479 2.42811 114.883L0 115.288V116.806H50.8891Z" fill="white"/>
    <path d="M92.5401 116.806V115.288L89.1003 114.883C86.7733 114.58 85.964 113.77 85.964 111.14V50.842C85.964 47.301 87.0768 46.4916 90.112 46.4916H101.14C103.972 46.4916 104.782 47.1998 105.389 49.0209L109.84 62.3755H111.358V45.1764H54.2974V62.3755H55.8149L60.2665 49.0209C60.8735 47.1998 61.6829 46.4916 64.5157 46.4916H75.5433C78.5785 46.4916 79.6913 47.301 79.6913 50.842V111.14C79.6913 113.77 78.882 114.58 76.555 114.883L73.1152 115.288V116.806H92.5401Z" fill="white"/>
    <path d="M166.09 116.806V100.517H164.471L161.841 108.307C159.817 114.378 157.389 115.49 153.848 115.49H131.186C128.657 115.49 127.038 113.669 127.038 111.342V83.925C127.038 81.6992 128.353 80.384 130.579 80.384H145.856C149.599 80.384 152.128 82.1039 152.837 85.746L153.444 88.9835H154.961V70.7727H153.444L152.837 74.0102C152.128 77.5512 149.599 79.0687 145.856 79.0687H130.579C128.353 79.0687 127.038 77.7535 127.038 75.5277V50.2349C127.038 47.7056 128.859 46.3904 131.186 46.3904H152.027C155.568 46.3904 157.996 47.5033 160.02 53.5736L162.65 61.3638H164.269V45.0752L115.201 45.1764V46.6939L117.629 47.0986C119.956 47.5033 120.765 48.2115 120.765 50.842V111.14C120.765 113.77 119.956 114.479 117.629 114.883L115.201 115.288V116.806H166.09Z" fill="white"/>
    <path d="M216.239 89.1859C215.228 87.9718 214.317 86.5554 218.263 84.9367C222.714 83.1156 226.053 80.991 228.683 77.6523C231.213 74.4149 232.326 70.4692 232.326 66.3212C232.326 51.3478 221.096 45.1764 206.021 45.1764H171.319V46.6939L173.747 47.0986C176.074 47.5033 176.884 48.2115 176.884 50.842V111.14C176.884 113.77 176.074 114.479 173.747 114.883L171.319 115.288V116.806H189.732V115.288L186.293 114.883C183.966 114.58 183.156 113.77 183.156 111.14V107.093C183.156 100.517 186.09 95.5597 193.071 93.3339L205.616 89.287C207.539 88.68 208.146 88.9835 208.854 89.7929L225.142 109.42C226.154 110.735 226.559 111.646 226.559 112.455C226.559 113.77 225.648 114.479 223.321 114.883L220.893 115.288V116.806H242.139V115.288C239.003 114.782 236.271 112.961 231.921 107.801L216.239 89.1859ZM192.666 92.1198C187.304 93.8397 184.573 96.5714 183.156 100.011V50.842C183.156 47.301 184.269 46.4916 187.304 46.4916H206.021C222.208 46.4916 231.01 53.4724 231.01 66.3212C231.01 70.2668 229.999 73.8078 227.672 76.843C223.928 81.598 218.667 83.7226 209.866 86.5554L192.666 92.1198Z" fill="white"/>
    <path d="M258.259 116.806V115.288L255.831 114.883C253.504 114.479 252.694 113.669 252.694 111.14V56.6087C252.694 55.4958 253.402 54.8888 254.212 54.8888C254.819 54.8888 255.223 54.99 255.831 55.7993L299.132 116.806H305V50.842C305 48.2115 305.809 47.5033 308.136 47.0986L310.564 46.6939V45.1764H298.12V46.6939L300.548 47.0986C302.875 47.5033 303.685 48.3127 303.685 50.842V106.081C303.685 107.093 303.077 107.801 302.268 107.801C301.661 107.801 301.155 107.498 300.751 106.992L256.842 45.0752H245.815V46.5928L248.243 46.9974C250.57 47.4021 251.379 48.1103 251.379 50.7408V111.14C251.379 113.77 250.57 114.479 248.243 114.883L245.815 115.288V116.806H258.259Z" fill="white"/>
    <path d="M324.956 116.806V115.389L320.403 114.782C318.784 114.58 318.177 113.467 318.683 111.949L326.372 90.2988C326.676 89.3882 327.586 88.68 328.598 88.68H351.361C352.272 88.68 353.081 89.1859 353.486 90.0964L361.984 110.837C362.693 112.556 361.681 114.58 359.86 114.883L357.027 115.288V116.806H375.036V115.288L373.214 114.883C371.191 114.479 369.977 113.467 368.965 110.938L342.155 45.1764H335.174L338.31 53.0677L317.267 111.949C316.66 113.77 315.749 114.681 314.232 114.883L310.387 115.288V116.806H324.956ZM331.026 87.3648C328.901 87.3648 327.89 85.6449 328.699 83.5203L339.019 54.8888L350.653 83.3179C351.564 85.4425 350.451 87.3648 348.225 87.3648H331.026Z" fill="white"/>
    <path d="M431.001 116.806V99.6065H429.484L425.032 112.961C424.425 114.782 423.616 115.49 420.783 115.49H394.883C391.848 115.49 390.735 114.681 390.735 111.14V50.842C390.735 48.2115 391.545 47.4021 393.872 47.0986L397.311 46.6939V45.1764H378.898V46.6939L381.326 47.0986C383.653 47.5033 384.463 48.2115 384.463 50.842V111.14C384.463 113.77 383.653 114.479 381.326 114.883L378.898 115.288V116.806H431.001Z" fill="white"/>
    <path d="M66.166 167.96L68.5941 168.365C70.9211 168.769 71.7304 169.478 71.7304 172.108V189.813C65.6602 194.771 57.7688 197.502 48.8657 197.502C28.2268 197.502 13.3546 182.63 13.3546 161.991C13.3546 141.352 28.2268 126.48 48.8657 126.48C60.2981 126.48 70.0105 131.033 76.3843 138.722L77.396 137.912C70.8199 129.92 60.7028 125.165 48.8657 125.165C27.5186 125.165 12.0394 140.644 12.0394 161.991C12.0394 183.338 27.5186 198.817 48.8657 198.817C57.1618 198.817 64.5473 196.49 70.5164 192.342C71.3258 191.938 71.9328 192.14 71.9328 193.152V197.806H78.0031V172.108C78.0031 169.478 78.8124 168.769 81.1394 168.365L83.5675 167.96V166.443H66.166V167.96Z" fill="white"/>
    <path d="M97.6169 197.806V196.389L93.0641 195.782C91.4454 195.58 90.8384 194.467 91.3442 192.949L99.0332 171.299C99.3368 170.388 100.247 169.68 101.259 169.68H124.023C124.933 169.68 125.742 170.186 126.147 171.096L134.646 191.837C135.354 193.556 134.342 195.58 132.521 195.883L129.688 196.288V197.806H147.697V196.288L145.876 195.883C143.852 195.479 142.638 194.467 141.626 191.938L114.816 126.176H107.835L110.971 134.068L89.9278 192.949C89.3208 194.77 88.4103 195.681 86.8927 195.883L83.0482 196.288V197.806H97.6169ZM103.687 168.365C101.563 168.365 100.551 166.645 101.36 164.52L111.68 135.889L123.314 164.318C124.225 166.443 123.112 168.365 120.886 168.365H103.687Z" fill="white"/>
    <path d="M196.479 170.186C195.468 168.972 194.557 167.555 198.503 165.937C202.954 164.116 206.293 161.991 208.923 158.652C211.453 155.415 212.566 151.469 212.566 147.321C212.566 132.348 201.336 126.176 186.261 126.176H151.559V127.694L153.987 128.099C156.314 128.503 157.124 129.212 157.124 131.842V192.14C157.124 194.77 156.314 195.479 153.987 195.883L151.559 196.288V197.806H169.972V196.288L166.533 195.883C164.206 195.58 163.396 194.77 163.396 192.14V188.093C163.396 181.517 166.33 176.56 173.311 174.334L185.856 170.287C187.779 169.68 188.386 169.984 189.094 170.793L205.382 190.42C206.394 191.735 206.799 192.646 206.799 193.455C206.799 194.771 205.888 195.479 203.561 195.883L201.133 196.288V197.806H222.379V196.288C219.243 195.782 216.511 193.961 212.161 188.801L196.479 170.186ZM172.906 173.12C167.544 174.84 164.813 177.571 163.396 181.011V131.842C163.396 128.301 164.509 127.492 167.544 127.492H186.261C202.448 127.492 211.25 134.472 211.25 147.321C211.25 151.267 210.239 154.808 207.912 157.843C204.168 162.598 198.907 164.723 190.106 167.555L172.906 173.12Z" fill="white"/>
    <path d="M255.495 197.806C276.134 197.806 292.524 182.124 292.524 161.789C292.524 137.912 275.932 126.075 255.495 126.075H226.055V127.795L228.483 128.2C230.304 128.503 231.619 130.122 231.619 131.842V192.14C231.619 194.77 230.81 195.479 228.483 195.883L226.055 196.288V197.806H255.495ZM242.04 196.49C239.409 196.49 237.892 194.669 237.892 192.342V131.235C237.892 128.706 239.713 127.39 242.04 127.39H255.495C277.348 127.39 291.209 140.745 291.209 161.789C291.209 180.404 276.337 196.49 255.495 196.49H242.04Z" fill="white"/>
    <path d="M346.499 197.806V181.517H344.88L342.25 189.307C340.226 195.378 337.798 196.49 334.257 196.49H311.595C309.066 196.49 307.447 194.669 307.447 192.342V164.925C307.447 162.699 308.762 161.384 310.988 161.384H326.265C330.008 161.384 332.537 163.104 333.246 166.746L333.853 169.984H335.37V151.773H333.853L333.246 155.01C332.537 158.551 330.008 160.069 326.265 160.069H310.988C308.762 160.069 307.447 158.754 307.447 156.528V131.235C307.447 128.706 309.268 127.39 311.595 127.39H332.436C335.977 127.39 338.405 128.503 340.429 134.574L343.059 142.364H344.678V126.075L295.61 126.176V127.694L298.038 128.099C300.365 128.503 301.174 129.212 301.174 131.842V192.14C301.174 194.77 300.365 195.479 298.038 195.883L295.61 196.288V197.806H346.499Z" fill="white"/>
    <path d="M364.172 197.806V196.288L361.744 195.883C359.417 195.479 358.608 194.669 358.608 192.14V137.609C358.608 136.496 359.316 135.889 360.125 135.889C360.732 135.889 361.137 135.99 361.744 136.799L405.046 197.806H410.913V131.842C410.913 129.212 411.723 128.503 414.05 128.099L416.478 127.694V126.176H404.034V127.694L406.462 128.099C408.789 128.503 409.598 129.313 409.598 131.842V187.081C409.598 188.093 408.991 188.801 408.182 188.801C407.575 188.801 407.069 188.498 406.664 187.992L362.756 126.075H351.728V127.593L354.156 127.997C356.483 128.402 357.293 129.11 357.293 131.741V192.14C357.293 194.77 356.483 195.479 354.156 195.883L351.728 196.288V197.806H364.172Z" fill="white"/>
    <path d="M187.698 36.159V35.394L185.964 35.19C184.791 35.037 184.383 34.629 184.383 33.303V2.907C184.383 1.122 184.944 0.714 186.474 0.714H192.033C193.461 0.714 193.869 1.071 194.175 1.989L196.419 8.721H197.184V0.0510025H168.42V8.721H169.185L171.429 1.989C171.735 1.071 172.143 0.714 173.571 0.714H179.13C180.66 0.714 181.221 1.122 181.221 2.907V33.303C181.221 34.629 180.813 35.037 179.64 35.19L177.906 35.394V36.159H187.698Z" fill="white"/>
    <path d="M207.893 36.159V35.394L206.669 35.19C205.496 34.986 205.088 34.629 205.088 33.303V19.278C205.088 18.462 205.496 18.054 206.312 18.054H224.315C225.131 18.054 225.539 18.462 225.539 19.278V33.303C225.539 34.629 225.131 34.986 223.958 35.19L222.734 35.394V36.159H231.506V35.394L230.282 35.19C229.109 34.986 228.701 34.629 228.701 33.303V2.907C228.701 1.581 229.109 1.224 230.282 1.02L231.506 0.816002V0.0510025H222.734V0.816002L223.958 1.02C225.131 1.224 225.539 1.581 225.539 2.907V16.167C225.539 16.983 225.131 17.391 224.315 17.391H206.312C205.496 17.391 205.088 16.983 205.088 16.167V2.907C205.088 1.581 205.496 1.224 206.669 1.02L207.893 0.816002V0.0510025H199.121V0.816002L200.345 1.02C201.518 1.224 201.926 1.581 201.926 2.907V33.303C201.926 34.629 201.518 34.986 200.345 35.19L199.121 35.394V36.159H207.893Z" fill="white"/>
    <path d="M260.036 36.159V27.948H259.22L257.894 31.875C256.874 34.935 255.65 35.496 253.865 35.496H242.441C241.166 35.496 240.35 34.578 240.35 33.405V19.584C240.35 18.462 241.013 17.799 242.135 17.799H249.836C251.723 17.799 252.998 18.666 253.355 20.502L253.661 22.134H254.426V12.954H253.661L253.355 14.586C252.998 16.371 251.723 17.136 249.836 17.136H242.135C241.013 17.136 240.35 16.473 240.35 15.351V2.601C240.35 1.326 241.268 0.663001 242.441 0.663001H252.947C254.732 0.663001 255.956 1.224 256.976 4.284L258.302 8.211H259.118V0L234.383 0.0510025V0.816002L235.607 1.02C236.78 1.224 237.188 1.581 237.188 2.907V33.303C237.188 34.629 236.78 34.986 235.607 35.19L234.383 35.394V36.159H260.036Z" fill="white"/>
</svg>
